<svg width="56" height="57" viewBox="0 0 56 57" fill="none" xmlns="http://www.w3.org/2000/svg">
<path fill-rule="evenodd" clip-rule="evenodd" d="M27.0948 5.20478C27.6618 5.04144 28.2615 5.04144 28.8285 5.20478C30.0371 5.54778 31.2551 5.86511 32.4778 6.18477C38.2201 7.68044 44.0511 9.20178 49.2405 13.4274L51.6298 15.3734C52.5981 16.1621 53.0835 17.3334 53.0835 18.5001V34.8334C53.0835 35.2976 52.8991 35.7427 52.5709 36.0709C52.2427 36.3991 51.7976 36.5834 51.3335 36.5834C50.8693 36.5834 50.4242 36.3991 50.096 36.0709C49.7678 35.7427 49.5835 35.2976 49.5835 34.8334V23.2998L49.2031 23.6101C47.4841 25.0039 45.6059 26.1889 43.6078 27.1404C43.7011 27.3536 43.7486 27.5846 43.7501 27.8334V37.8528C43.7501 39.1447 43.36 40.4065 42.6311 41.4731C41.9021 42.5397 40.8681 43.3615 39.6645 43.8308L30.3311 47.4708C28.8321 48.0553 27.1682 48.0553 25.6691 47.4708L16.3358 43.8308C15.1321 43.3615 14.0982 42.5397 13.3692 41.4731C12.6402 40.4065 12.2502 39.1447 12.2501 37.8528V27.8334C12.2517 27.5799 12.3015 27.3434 12.3995 27.1241C10.4628 26.1931 8.5728 25.0474 6.7598 23.5728L4.37047 21.6268C2.4338 20.0471 2.4338 16.9531 4.37047 15.3734L6.79714 13.3901C11.9468 9.19011 17.7381 7.67578 23.4385 6.18711C24.6608 5.87304 25.8797 5.54557 27.0948 5.20478ZM49.5835 18.5024C49.5835 18.2924 49.4995 18.1524 49.4201 18.0871L47.0308 16.1411C42.0001 12.6668 37.5155 11.1338 31.8268 9.63811C30.5356 9.30336 29.2475 8.95646 27.9628 8.59744C26.6328 8.97311 25.3401 9.31378 24.0848 9.64511C18.4381 11.1291 13.5171 12.4241 9.01147 16.1038L6.58247 18.0848C6.5008 18.1501 6.4168 18.2878 6.4168 18.4978C6.4168 18.7078 6.5008 18.8478 6.58013 18.9131L8.9718 20.8591C13.5171 24.5621 18.4825 25.8664 24.1735 27.3621C25.4257 27.6857 26.7137 28.0326 28.0375 28.4028C29.3675 28.0271 30.6601 27.6864 31.9155 27.3551C37.5621 25.8711 42.4831 24.5761 46.9888 20.8988L49.4178 18.9154C49.4995 18.8501 49.5835 18.7124 49.5835 18.5024ZM32.5641 30.8131C35.1308 30.1434 37.7138 29.4668 40.2501 28.5451V37.8528C40.2501 39.0544 39.5128 40.1324 38.3928 40.5711L29.0595 44.2088C28.3782 44.4743 27.6221 44.4743 26.9408 44.2088L17.6075 40.5688C17.0605 40.3556 16.5906 39.9823 16.2592 39.4977C15.9279 39.0131 15.7504 38.4398 15.7501 37.8528V28.5241C18.3145 29.4574 20.9278 30.1388 23.5201 30.8154C24.7451 31.1351 25.9631 31.4524 27.1718 31.7954C27.7388 31.9588 28.3385 31.9588 28.9055 31.7954C30.1165 31.4501 31.3368 31.1328 32.5641 30.8131Z" fill="#333333"/>
</svg>
