<svg width="22" height="17" viewBox="0 0 22 17" fill="none" xmlns="http://www.w3.org/2000/svg">
<path d="M20 0.625H2C1.70163 0.625 1.41548 0.743526 1.2045 0.954505C0.993526 1.16548 0.875 1.45163 0.875 1.75V14.5C0.875 14.9973 1.07254 15.4742 1.42417 15.8258C1.77581 16.1775 2.25272 16.375 2.75 16.375H19.25C19.7473 16.375 20.2242 16.1775 20.5758 15.8258C20.9275 15.4742 21.125 14.9973 21.125 14.5V1.75C21.125 1.45163 21.0065 1.16548 20.7955 0.954505C20.5845 0.743526 20.2984 0.625 20 0.625ZM11 8.47375L4.89219 2.875H17.1078L11 8.47375ZM7.69906 8.5L3.125 12.6925V4.3075L7.69906 8.5ZM9.36406 10.0262L10.2397 10.8297C10.4472 11.02 10.7185 11.1255 11 11.1255C11.2815 11.1255 11.5528 11.02 11.7603 10.8297L12.6359 10.0262L17.1078 14.125H4.89219L9.36406 10.0262ZM14.3009 8.5L18.875 4.3075V12.6925L14.3009 8.5Z" fill="#6B6B6B"/>
</svg>
