<svg width="17" height="17" viewBox="0 0 17 17" fill="none" xmlns="http://www.w3.org/2000/svg">
<path d="M15.54 8.66666C15.54 8.14666 15.4933 7.64666 15.4067 7.16666H8.5V10.0033H12.4467C12.2767 10.92 11.76 11.6967 10.9833 12.2167V14.0567H13.3533C14.74 12.78 15.54 10.9 15.54 8.66666Z" fill="#4285F4"/>
<path d="M8.49999 15.8333C10.48 15.8333 12.14 15.1767 13.3533 14.0567L10.9833 12.2167C10.3267 12.6567 9.48665 12.9167 8.49999 12.9167C6.58999 12.9167 4.97332 11.6267 4.39665 9.89334H1.94666V11.7933C3.15332 14.19 5.63332 15.8333 8.49999 15.8333Z" fill="#34A853"/>
<path d="M4.39669 9.89333C4.25002 9.45333 4.16669 8.98333 4.16669 8.5C4.16669 8.01667 4.25002 7.54666 4.39669 7.10667V5.20667H1.94669C1.43335 6.22857 1.16623 7.35641 1.16669 8.5C1.16669 9.68333 1.45002 10.8033 1.94669 11.7933L4.39669 9.89333Z" fill="#FBBC05"/>
<path d="M8.49999 4.08332C9.57665 4.08332 10.5433 4.45332 11.3033 5.17999L13.4067 3.07666C12.1367 1.89332 10.4767 1.16666 8.49999 1.16666C5.63332 1.16666 3.15332 2.80999 1.94666 5.20666L4.39665 7.10666C4.97332 5.37332 6.58999 4.08332 8.49999 4.08332Z" fill="#EA4335"/>
</svg>
