<svg width="20" height="21" viewBox="0 0 20 21" fill="none" xmlns="http://www.w3.org/2000/svg">
<path d="M17.5 11.75V16.75C17.5 16.9158 17.4342 17.0747 17.3169 17.1919C17.1997 17.3092 17.0408 17.375 16.875 17.375H3.125C2.95924 17.375 2.80027 17.3092 2.68306 17.1919C2.56585 17.0747 2.5 16.9158 2.5 16.75V11.75C2.5 11.5842 2.56585 11.4253 2.68306 11.3081C2.80027 11.1909 2.95924 11.125 3.125 11.125C3.29076 11.125 3.44973 11.1909 3.56694 11.3081C3.68415 11.4253 3.75 11.5842 3.75 11.75V16.125H16.25V11.75C16.25 11.5842 16.3158 11.4253 16.4331 11.3081C16.5503 11.1909 16.7092 11.125 16.875 11.125C17.0408 11.125 17.1997 11.1909 17.3169 11.3081C17.4342 11.4253 17.5 11.5842 17.5 11.75ZM7.31719 6.56719L9.375 4.5086V11.75C9.375 11.9158 9.44085 12.0747 9.55806 12.1919C9.67527 12.3092 9.83424 12.375 10 12.375C10.1658 12.375 10.3247 12.3092 10.4419 12.1919C10.5592 12.0747 10.625 11.9158 10.625 11.75V4.5086L12.6828 6.56719C12.8001 6.68447 12.9591 6.75035 13.125 6.75035C13.2909 6.75035 13.4499 6.68447 13.5672 6.56719C13.6845 6.44992 13.7503 6.29086 13.7503 6.125C13.7503 5.95915 13.6845 5.80009 13.5672 5.68282L10.4422 2.55782C10.3841 2.49971 10.3152 2.45361 10.2393 2.42215C10.1635 2.3907 10.0821 2.37451 10 2.37451C9.91787 2.37451 9.83654 2.3907 9.76066 2.42215C9.68479 2.45361 9.61586 2.49971 9.55781 2.55782L6.43281 5.68282C6.31554 5.80009 6.24965 5.95915 6.24965 6.125C6.24965 6.29086 6.31554 6.44992 6.43281 6.56719C6.55009 6.68447 6.70915 6.75035 6.875 6.75035C7.04085 6.75035 7.19991 6.68447 7.31719 6.56719Z" fill="black"/>
</svg>
