<svg width="20" height="19" viewBox="0 0 20 19" fill="none" xmlns="http://www.w3.org/2000/svg">
<path d="M17.5 0.125488H2.5C2.00272 0.125488 1.52581 0.323032 1.17417 0.674663C0.822544 1.02629 0.625 1.50321 0.625 2.00049V17.0005C0.625 17.4978 0.822544 17.9747 1.17417 18.3263C1.52581 18.6779 2.00272 18.8755 2.5 18.8755H17.5C17.9973 18.8755 18.4742 18.6779 18.8258 18.3263C19.1775 17.9747 19.375 17.4978 19.375 17.0005V2.00049C19.375 1.50321 19.1775 1.02629 18.8258 0.674663C18.4742 0.323032 17.9973 0.125488 17.5 0.125488ZM17.125 16.6255H2.875V2.37549H17.125V16.6255ZM5.125 9.50049C5.125 9.20212 5.24353 8.91597 5.4545 8.70499C5.66548 8.49401 5.95163 8.37549 6.25 8.37549H8.875V5.75049C8.875 5.45212 8.99353 5.16597 9.2045 4.95499C9.41548 4.74401 9.70163 4.62549 10 4.62549C10.2984 4.62549 10.5845 4.74401 10.7955 4.95499C11.0065 5.16597 11.125 5.45212 11.125 5.75049V8.37549H13.75C14.0484 8.37549 14.3345 8.49401 14.5455 8.70499C14.7565 8.91597 14.875 9.20212 14.875 9.50049C14.875 9.79886 14.7565 10.085 14.5455 10.296C14.3345 10.507 14.0484 10.6255 13.75 10.6255H11.125V13.2505C11.125 13.5489 11.0065 13.835 10.7955 14.046C10.5845 14.257 10.2984 14.3755 10 14.3755C9.70163 14.3755 9.41548 14.257 9.2045 14.046C8.99353 13.835 8.875 13.5489 8.875 13.2505V10.6255H6.25C5.95163 10.6255 5.66548 10.507 5.4545 10.296C5.24353 10.085 5.125 9.79886 5.125 9.50049Z" fill="#DD5928"/>
</svg>
