<svg width="16" height="17" viewBox="0 0 16 17" fill="none" xmlns="http://www.w3.org/2000/svg">
<path d="M13 2.62891H3C2.66848 2.62891 2.35054 2.7606 2.11612 2.99502C1.8817 3.22944 1.75 3.54739 1.75 3.87891V13.8789C1.75 14.2104 1.8817 14.5284 2.11612 14.7628C2.35054 14.9972 2.66848 15.1289 3 15.1289H13C13.3315 15.1289 13.6495 14.9972 13.8839 14.7628C14.1183 14.5284 14.25 14.2104 14.25 13.8789V3.87891C14.25 3.54739 14.1183 3.22944 13.8839 2.99502C13.6495 2.7606 13.3315 2.62891 13 2.62891ZM12.75 13.6289H3.25V4.12891H12.75V13.6289ZM4.75 8.87891C4.75 8.67999 4.82902 8.48923 4.96967 8.34858C5.11032 8.20792 5.30109 8.12891 5.5 8.12891H7.25V6.37891C7.25 6.17999 7.32902 5.98923 7.46967 5.84858C7.61032 5.70792 7.80109 5.62891 8 5.62891C8.19891 5.62891 8.38968 5.70792 8.53033 5.84858C8.67098 5.98923 8.75 6.17999 8.75 6.37891V8.12891H10.5C10.6989 8.12891 10.8897 8.20792 11.0303 8.34858C11.171 8.48923 11.25 8.67999 11.25 8.87891C11.25 9.07782 11.171 9.26858 11.0303 9.40924C10.8897 9.54989 10.6989 9.62891 10.5 9.62891H8.75V11.3789C8.75 11.5778 8.67098 11.7686 8.53033 11.9092C8.38968 12.0499 8.19891 12.1289 8 12.1289C7.80109 12.1289 7.61032 12.0499 7.46967 11.9092C7.32902 11.7686 7.25 11.5778 7.25 11.3789V9.62891H5.5C5.30109 9.62891 5.11032 9.54989 4.96967 9.40924C4.82902 9.26858 4.75 9.07782 4.75 8.87891Z" fill="white"/>
</svg>
