<svg width="20" height="20" viewBox="0 0 20 20" fill="none" xmlns="http://www.w3.org/2000/svg">
<path d="M18.3437 2.00916L5.32192 0.026363C5.06327 -0.0130929 4.79814 -0.00821898 4.54168 0.0407063C4.28522 0.0896316 4.04245 0.18165 3.82724 0.311503C3.61204 0.441356 3.42861 0.606501 3.28744 0.797501C3.14627 0.988501 3.05012 1.20161 3.0045 1.42466L0.0302392 15.9939C-0.061587 16.4441 0.0576428 16.9073 0.36172 17.2817C0.665798 17.656 1.12984 17.911 1.65183 17.9905L14.6736 19.9733C14.7897 19.9911 14.9075 20 15.0255 20C15.4962 20.0002 15.9518 19.8572 16.3122 19.5962C16.6727 19.3353 16.9148 18.973 16.996 18.5733L19.9703 4.00402C20.0154 3.78094 20.0091 3.55237 19.9518 3.33138C19.8945 3.11039 19.7872 2.9013 19.6362 2.71605C19.4851 2.53081 19.2932 2.37304 19.0715 2.25174C18.8497 2.13045 18.6024 2.04802 18.3437 2.00916ZM14.6966 17.875L2.46263 16.012L5.29892 2.12295L17.5329 3.98592L14.6966 17.875ZM6.38865 4.74024C6.44399 4.47013 6.62148 4.23003 6.88207 4.07273C7.14267 3.91544 7.46504 3.85382 7.7783 3.90143L14.4966 4.92473C14.7971 4.96445 15.0688 5.10104 15.257 5.30689C15.4452 5.51274 15.5357 5.7725 15.5103 6.03369C15.4849 6.29488 15.3455 6.53802 15.1202 6.71399C14.8949 6.88995 14.6006 6.98562 14.2967 6.98166C14.2263 6.98156 14.1561 6.97637 14.0867 6.96614L7.36141 5.93854C7.04816 5.89082 6.76972 5.73777 6.58731 5.51306C6.40489 5.28835 6.33343 5.01037 6.38865 4.74024ZM5.69882 8.13599C5.72622 8.00216 5.78393 7.87429 5.86866 7.7597C5.95338 7.64511 6.06346 7.54603 6.19261 7.46814C6.32175 7.39024 6.46743 7.33505 6.62132 7.30572C6.77521 7.27638 6.93429 7.27348 7.08948 7.29718L13.8098 8.32134C14.1048 8.36715 14.3692 8.50651 14.551 8.712C14.7328 8.91749 14.8188 9.17421 14.7921 9.43164C14.7654 9.68907 14.6279 9.92855 14.4067 10.1029C14.1855 10.2773 13.8966 10.374 13.5969 10.374C13.5265 10.3739 13.4563 10.3687 13.3869 10.3584L6.66758 9.33429C6.35507 9.28577 6.07762 9.13239 5.89603 8.90777C5.71444 8.68315 5.64352 8.40562 5.69882 8.13599ZM4.999 11.5317C5.05434 11.2616 5.23182 11.0215 5.49242 10.8642C5.75301 10.7069 6.07538 10.6453 6.38865 10.6929L9.75181 11.2059C10.0475 11.2505 10.313 11.3892 10.496 11.5944C10.6789 11.7996 10.766 12.0565 10.74 12.3144C10.714 12.5723 10.5768 12.8124 10.3556 12.9874C10.1343 13.1623 9.84505 13.2593 9.54486 13.2594C9.47445 13.2594 9.40418 13.2539 9.33492 13.243L5.97475 12.7318C5.81918 12.7084 5.67048 12.6589 5.53717 12.5859C5.40387 12.5129 5.28858 12.4179 5.19793 12.3065C5.10728 12.195 5.04304 12.0691 5.0089 11.9362C4.97477 11.8033 4.9714 11.6658 4.999 11.5317Z" fill="#6B6B6B"/>
</svg>
