<svg width="20" height="20" viewBox="0 0 20 20" fill="none" xmlns="http://www.w3.org/2000/svg">
<path d="M12.8422 14.1486C13.4189 13.584 13.8143 12.8603 13.978 12.0699C14.1418 11.2796 14.0663 10.4584 13.7614 9.71106C13.4564 8.96374 12.9358 8.32421 12.2659 7.87402C11.596 7.42384 10.8071 7.18341 9.99999 7.18341C9.19285 7.18341 8.40401 7.42384 7.73409 7.87402C7.06417 8.32421 6.54353 8.96374 6.23859 9.71106C5.93364 10.4584 5.85822 11.2796 6.02194 12.0699C6.18565 12.8603 6.58109 13.584 7.1578 14.1486C6.18135 14.6677 5.36953 15.4495 4.81405 16.4057C4.69509 16.6206 4.66526 16.8737 4.73099 17.1104C4.79671 17.3471 4.95274 17.5486 5.16549 17.6715C5.37824 17.7943 5.63072 17.8288 5.86861 17.7674C6.10649 17.706 6.31077 17.5537 6.43749 17.3432C6.80382 16.7242 7.32507 16.2114 7.94988 15.8551C8.5747 15.4989 9.28153 15.3115 10.0008 15.3115C10.72 15.3115 11.4268 15.4989 12.0517 15.8551C12.6765 16.2114 13.1977 16.7242 13.564 17.3432C13.6244 17.4522 13.7058 17.548 13.8036 17.6252C13.9013 17.7023 14.0135 17.7592 14.1335 17.7926C14.2535 17.8259 14.379 17.835 14.5025 17.8192C14.6261 17.8035 14.7453 17.7634 14.8531 17.7011C14.961 17.6388 15.0554 17.5556 15.1307 17.4565C15.2061 17.3573 15.2609 17.2441 15.2921 17.1235C15.3232 17.0029 15.33 16.8773 15.312 16.7541C15.2941 16.6308 15.2517 16.5124 15.1875 16.4057C14.6316 15.4493 13.8192 14.6675 12.8422 14.1486ZM7.81249 11.2502C7.81249 10.8176 7.94078 10.3946 8.18115 10.0349C8.42151 9.67516 8.76315 9.39479 9.16287 9.22922C9.56258 9.06365 10.0024 9.02033 10.4267 9.10474C10.8511 9.18914 11.2409 9.39748 11.5468 9.70341C11.8527 10.0093 12.0611 10.3991 12.1455 10.8234C12.2299 11.2478 12.1865 11.6876 12.021 12.0873C11.8554 12.487 11.575 12.8287 11.2153 13.069C10.8556 13.3094 10.4326 13.4377 9.99999 13.4377C9.41983 13.4377 8.86343 13.2072 8.45319 12.797C8.04295 12.3868 7.81249 11.8304 7.81249 11.2502ZM19.3133 11.9994C19.2148 12.0735 19.1027 12.1274 18.9834 12.158C18.8641 12.1887 18.7399 12.1956 18.6179 12.1782C18.496 12.1609 18.3786 12.1197 18.2726 12.057C18.1665 11.9943 18.0739 11.9112 18 11.8127C17.3492 10.9463 16.4492 10.2822 15.7086 10.1221C15.5116 10.0795 15.3337 9.97458 15.201 9.82291C15.0684 9.67123 14.9882 9.48086 14.9722 9.28001C14.9563 9.07916 15.0054 8.8785 15.1125 8.70779C15.2195 8.53708 15.3787 8.40539 15.5664 8.33224C15.8001 8.241 16.0085 8.0948 16.1738 7.90603C16.3391 7.71725 16.4565 7.49144 16.516 7.2477C16.5756 7.00395 16.5756 6.74945 16.516 6.50571C16.4565 6.26196 16.3391 6.03615 16.1738 5.84738C16.0085 5.6586 15.8001 5.51241 15.5664 5.42117C15.3327 5.32992 15.0804 5.29632 14.8309 5.32319C14.5814 5.35006 14.3421 5.43661 14.1331 5.57553C13.9242 5.71445 13.7518 5.90165 13.6305 6.1213C13.5729 6.23261 13.4937 6.33125 13.3974 6.41141C13.3011 6.49157 13.1897 6.55161 13.0698 6.58798C12.9499 6.62435 12.8239 6.63633 12.6993 6.62319C12.5747 6.61005 12.454 6.57206 12.3443 6.51148C12.2346 6.4509 12.1382 6.36895 12.0608 6.27047C11.9833 6.17199 11.9264 6.05898 11.8933 5.93812C11.8603 5.81726 11.8518 5.69101 11.8684 5.56681C11.8849 5.44262 11.9262 5.32301 11.9898 5.21505C12.2218 4.80485 12.5357 4.44674 12.9119 4.16294C13.2881 3.87915 13.7186 3.67574 14.1768 3.56536C14.6349 3.45498 15.1109 3.43997 15.5751 3.52128C16.0392 3.60258 16.4817 3.77846 16.8751 4.03799C17.2684 4.29752 17.6042 4.63516 17.8616 5.02992C18.1189 5.42469 18.2924 5.86816 18.3711 6.33279C18.4499 6.79741 18.4323 7.27327 18.3194 7.73079C18.2065 8.18832 18.0007 8.61774 17.7148 8.99239C18.4027 9.45061 19.0066 10.0238 19.5 10.6869C19.6493 10.8857 19.7134 11.1357 19.6784 11.3818C19.6434 11.628 19.5121 11.8501 19.3133 11.9994ZM4.29139 10.1244C3.55077 10.2846 2.65077 10.9486 1.99999 11.8158C1.85028 12.0146 1.62774 12.1458 1.3813 12.1806C1.13487 12.2153 0.884732 12.1507 0.685923 12.001C0.487115 11.8513 0.355918 11.6287 0.321194 11.3823C0.286471 11.1359 0.351065 10.8857 0.500767 10.6869C0.994391 10.024 1.59822 9.45084 2.28592 8.99239C2.00007 8.61774 1.79429 8.18832 1.68139 7.73079C1.56849 7.27327 1.55086 6.79741 1.62961 6.33279C1.70836 5.86816 1.88181 5.42469 2.13917 5.02992C2.39653 4.63516 2.73231 4.29752 3.12566 4.03799C3.51901 3.77846 3.96152 3.60258 4.4257 3.52128C4.88988 3.43997 5.36583 3.45498 5.82397 3.56536C6.28211 3.67574 6.71266 3.87915 7.08888 4.16294C7.46509 4.44674 7.77894 4.80485 8.01092 5.21505C8.07451 5.32301 8.11582 5.44262 8.1324 5.56681C8.14898 5.69101 8.14049 5.81726 8.10744 5.93812C8.0744 6.05898 8.01746 6.17199 7.94 6.27047C7.86253 6.36895 7.76611 6.4509 7.65644 6.51148C7.54676 6.57206 7.42606 6.61005 7.30145 6.62319C7.17685 6.63633 7.05087 6.62435 6.93098 6.58798C6.81108 6.55161 6.69969 6.49157 6.60338 6.41141C6.50708 6.33125 6.42783 6.23261 6.3703 6.1213C6.24899 5.90165 6.07657 5.71445 5.86762 5.57553C5.65867 5.43661 5.41933 5.35006 5.16986 5.32319C4.92038 5.29632 4.6681 5.32992 4.43436 5.42117C4.20062 5.51241 3.99229 5.6586 3.827 5.84738C3.6617 6.03615 3.5443 6.26196 3.48472 6.50571C3.42514 6.74945 3.42514 7.00395 3.48472 7.2477C3.5443 7.49144 3.6617 7.71725 3.82699 7.90603C3.99229 8.0948 4.20062 8.241 4.43436 8.33224C4.6221 8.40539 4.78128 8.53708 4.8883 8.70779C4.99533 8.8785 5.0445 9.07916 5.02855 9.28001C5.01259 9.48086 4.93235 9.67123 4.79972 9.82291C4.66708 9.97458 4.48911 10.0795 4.29217 10.1221L4.29139 10.1244Z" fill="#6B6B6B"/>
</svg>
