<svg width="14" height="13" viewBox="0 0 14 13" fill="none" xmlns="http://www.w3.org/2000/svg">
<path d="M3.96938 7.53063C3.89961 7.46086 3.84427 7.37804 3.80651 7.28689C3.76876 7.19573 3.74932 7.09804 3.74932 6.99938C3.74932 6.90071 3.76876 6.80302 3.80651 6.71186C3.84427 6.62071 3.89961 6.53789 3.96938 6.46812C4.03914 6.39836 4.12196 6.34302 4.21311 6.30526C4.30427 6.26751 4.40196 6.24807 4.50063 6.24807C4.59929 6.24807 4.69698 6.26751 4.78814 6.30526C4.87929 6.34302 4.96211 6.39836 5.03188 6.46812L6 7.4375L8.96937 4.4675C9.11027 4.3266 9.30137 4.24745 9.50062 4.24745C9.69988 4.24745 9.89098 4.3266 10.0319 4.4675C10.1728 4.6084 10.2519 4.79949 10.2519 4.99875C10.2519 5.19801 10.1728 5.3891 10.0319 5.53L6.53188 9.03C6.4622 9.09992 6.3794 9.1554 6.28824 9.19325C6.19708 9.23111 6.09934 9.25059 6.00063 9.25059C5.90191 9.25059 5.80417 9.23111 5.71301 9.19325C5.62185 9.1554 5.53905 9.09992 5.46938 9.03L3.96938 7.53063ZM13.25 1.5V11.5C13.25 11.8315 13.1183 12.1495 12.8839 12.3839C12.6495 12.6183 12.3315 12.75 12 12.75H2C1.66848 12.75 1.35054 12.6183 1.11612 12.3839C0.881696 12.1495 0.75 11.8315 0.75 11.5V1.5C0.75 1.16848 0.881696 0.850537 1.11612 0.616117C1.35054 0.381696 1.66848 0.25 2 0.25H12C12.3315 0.25 12.6495 0.381696 12.8839 0.616117C13.1183 0.850537 13.25 1.16848 13.25 1.5ZM11.75 1.75H2.25V11.25H11.75V1.75Z" fill="white"/>
</svg>
