<svg width="24" height="25" viewBox="0 0 24 25" fill="none" xmlns="http://www.w3.org/2000/svg">
<path d="M17.2969 13.1748L9.79687 20.6748C9.58553 20.8861 9.29888 21.0049 9 21.0049C8.70111 21.0049 8.41447 20.8861 8.20312 20.6748C7.99178 20.4635 7.87305 20.1768 7.87305 19.8779C7.87305 19.579 7.99178 19.2924 8.20312 19.0811L14.9072 12.3789L8.205 5.6748C8.10035 5.57016 8.01734 5.44592 7.96071 5.30919C7.90407 5.17247 7.87492 5.02592 7.87492 4.87793C7.87492 4.72993 7.90407 4.58339 7.96071 4.44666C8.01734 4.30993 8.10035 4.1857 8.205 4.08105C8.30965 3.97641 8.43388 3.8934 8.57061 3.83676C8.70734 3.78013 8.85388 3.75098 9.00187 3.75098C9.14987 3.75098 9.29641 3.78013 9.43314 3.83676C9.56987 3.8934 9.6941 3.97641 9.79875 4.08105L17.2987 11.5811C17.4035 11.6857 17.4866 11.81 17.5432 11.9468C17.5998 12.0836 17.6289 12.2303 17.6287 12.3783C17.6285 12.5264 17.5991 12.673 17.5422 12.8096C17.4852 12.9463 17.4019 13.0704 17.2969 13.1748Z" fill="#8C8C8C"/>
</svg>
