<svg width="10" height="18" viewBox="0 0 10 18" fill="none" xmlns="http://www.w3.org/2000/svg">
<path d="M9.52913 15.704C9.74047 15.9154 9.85921 16.202 9.85921 16.5009C9.85921 16.7998 9.74047 17.0864 9.52913 17.2978C9.31778 17.5091 9.03114 17.6279 8.73225 17.6279C8.43337 17.6279 8.14672 17.5091 7.93538 17.2978L0.435379 9.79779C0.330499 9.69327 0.247283 9.56908 0.190502 9.43233C0.133721 9.29559 0.104492 9.14898 0.104492 9.00091C0.104492 8.85285 0.133721 8.70624 0.190502 8.56949C0.247283 8.43275 0.330499 8.30856 0.435379 8.20404L7.93538 0.704039C8.14672 0.492694 8.43337 0.373962 8.73225 0.373962C9.03114 0.373962 9.31778 0.492695 9.52913 0.704039C9.74047 0.915383 9.85921 1.20203 9.85921 1.50091C9.85921 1.7998 9.74047 2.08644 9.52913 2.29779L2.82694 8.99998L9.52913 15.704Z" fill="#6B6B6B"/>
</svg>
