<svg width="20" height="20" viewBox="0 0 20 20" fill="none" xmlns="http://www.w3.org/2000/svg">
<path d="M17.1875 7.50019C17.1882 6.29523 16.8859 5.10943 16.3085 4.05184C15.7311 2.99424 14.897 2.09878 13.8831 1.4478C12.8691 0.796814 11.7077 0.4112 10.5058 0.326412C9.30379 0.241623 8.09979 0.460381 7.00447 0.962572C5.90915 1.46476 4.95766 2.23427 4.23749 3.20033C3.51732 4.1664 3.05158 5.29802 2.88311 6.49114C2.71463 7.68426 2.84882 8.90059 3.27333 10.0283C3.69784 11.156 4.39906 12.1589 5.3125 12.9447V18.7502C5.31252 18.91 5.35339 19.0672 5.43124 19.2067C5.50909 19.3463 5.62133 19.4637 5.7573 19.5477C5.89327 19.6317 6.04845 19.6795 6.20811 19.6866C6.36777 19.6938 6.52661 19.66 6.66953 19.5885L10 17.9236L13.3313 19.5885C13.4741 19.6598 13.6329 19.6935 13.7924 19.6862C13.952 19.679 14.107 19.6311 14.2429 19.5472C14.3788 19.4632 14.4909 19.3459 14.5687 19.2064C14.6465 19.0669 14.6874 18.9099 14.6875 18.7502V12.9447C15.4719 12.2709 16.1013 11.4355 16.5328 10.4958C16.9643 9.55609 17.1876 8.53423 17.1875 7.50019ZM4.6875 7.50019C4.6875 6.44947 4.99907 5.42236 5.58282 4.54872C6.16656 3.67508 6.99626 2.99417 7.967 2.59208C8.93773 2.18999 10.0059 2.08478 11.0364 2.28977C12.0669 2.49475 13.0135 3.00072 13.7565 3.74368C14.4995 4.48665 15.0054 5.43325 15.2104 6.46377C15.4154 7.49429 15.3102 8.56246 14.9081 9.53319C14.506 10.5039 13.8251 11.3336 12.9515 11.9174C12.0778 12.5011 11.0507 12.8127 10 12.8127C8.59148 12.8112 7.24107 12.2511 6.24509 11.2551C5.24912 10.2591 4.68895 8.9087 4.6875 7.50019ZM12.8125 17.2338L10.4188 16.0369C10.2885 15.9717 10.1449 15.9378 9.99922 15.9378C9.85358 15.9378 9.70994 15.9717 9.57969 16.0369L7.1875 17.233V14.1143C8.07693 14.4924 9.0335 14.6874 10 14.6874C10.9665 14.6874 11.9231 14.4924 12.8125 14.1143V17.2338ZM10 11.5627C10.8035 11.5627 11.5889 11.3244 12.257 10.878C12.9251 10.4316 13.4458 9.79716 13.7533 9.05484C14.0607 8.31251 14.1412 7.49568 13.9844 6.70763C13.8277 5.91958 13.4408 5.19572 12.8726 4.62757C12.3045 4.05941 11.5806 3.6725 10.7926 3.51575C10.0045 3.35899 9.18767 3.43945 8.44535 3.74693C7.70302 4.05441 7.06855 4.57511 6.62216 5.24318C6.17576 5.91126 5.9375 6.6967 5.9375 7.50019C5.93874 8.57725 6.36715 9.60984 7.12875 10.3714C7.89035 11.133 8.92294 11.5614 10 11.5627ZM10 5.31269C10.4326 5.31269 10.8556 5.44098 11.2153 5.68135C11.575 5.92171 11.8554 6.26335 12.021 6.66307C12.1866 7.06278 12.2299 7.50261 12.1455 7.92695C12.0611 8.35128 11.8527 8.74106 11.5468 9.04698C11.2409 9.35291 10.8511 9.56125 10.4268 9.64565C10.0024 9.73006 9.56259 9.68674 9.16288 9.52117C8.76317 9.35561 8.42153 9.07523 8.18116 8.7155C7.9408 8.35576 7.8125 7.93283 7.8125 7.50019C7.8125 6.92003 8.04297 6.36363 8.45321 5.95339C8.86344 5.54316 9.41984 5.31269 10 5.31269Z" fill="#6B6B6B"/>
</svg>
