<svg width="12" height="12" viewBox="0 0 12 12" fill="none" xmlns="http://www.w3.org/2000/svg">
<path d="M10.125 1.6875H1.875C1.62636 1.6875 1.3879 1.78627 1.21209 1.96209C1.03627 2.1379 0.9375 2.37636 0.9375 2.625V10.125C0.937511 10.2209 0.962036 10.3152 1.00875 10.3989C1.05546 10.4827 1.1228 10.5531 1.20438 10.6035C1.28596 10.6539 1.37907 10.6826 1.47487 10.6869C1.57066 10.6912 1.66596 10.6709 1.75172 10.628L3 10.0041L4.24828 10.628C4.32643 10.6671 4.41261 10.6874 4.5 10.6874C4.58739 10.6874 4.67357 10.6671 4.75172 10.628L6 10.0041L7.24828 10.628C7.32643 10.6671 7.41261 10.6874 7.5 10.6874C7.58739 10.6874 7.67357 10.6671 7.75172 10.628L9 10.0041L10.2483 10.628C10.334 10.6709 10.4293 10.6912 10.5251 10.6869C10.6209 10.6826 10.714 10.6539 10.7956 10.6035C10.8772 10.5531 10.9445 10.4827 10.9913 10.3989C11.038 10.3152 11.0625 10.2209 11.0625 10.125V2.625C11.0625 2.37636 10.9637 2.1379 10.7879 1.96209C10.6121 1.78627 10.3736 1.6875 10.125 1.6875ZM9.9375 9.21469L9.25172 8.87203C9.17357 8.83293 9.08739 8.81257 9 8.81257C8.91261 8.81257 8.82643 8.83293 8.74828 8.87203L7.5 9.49594L6.25172 8.87203C6.17357 8.83293 6.08739 8.81257 6 8.81257C5.91261 8.81257 5.82643 8.83293 5.74828 8.87203L4.5 9.49594L3.25172 8.87203C3.17357 8.83293 3.08739 8.81257 3 8.81257C2.91261 8.81257 2.82643 8.83293 2.74828 8.87203L2.0625 9.21469V2.8125H9.9375V9.21469ZM2.93578 8.00297C3.06918 8.06971 3.22363 8.08074 3.36515 8.03362C3.50668 7.9865 3.6237 7.8851 3.69047 7.75172L3.81656 7.5H5.55844L5.68453 7.75172C5.71693 7.81887 5.76235 7.8789 5.81816 7.92834C5.87396 7.97777 5.93904 8.01562 6.00961 8.03968C6.08017 8.06375 6.15481 8.07354 6.2292 8.0685C6.30358 8.06345 6.37622 8.04367 6.44289 8.01031C6.50956 7.97694 6.56893 7.93065 6.61756 7.87414C6.66618 7.81762 6.70308 7.752 6.72612 7.6811C6.74916 7.61019 6.75787 7.53541 6.75175 7.46111C6.74563 7.38681 6.7248 7.31446 6.69047 7.24828L5.19047 4.24828C5.14372 4.15492 5.07191 4.07642 4.98308 4.02155C4.89425 3.96669 4.79191 3.93763 4.6875 3.93763C4.58309 3.93763 4.48075 3.96669 4.39192 4.02155C4.30309 4.07642 4.23128 4.15492 4.18453 4.24828L2.68453 7.24828C2.61779 7.38168 2.60676 7.53613 2.65388 7.67765C2.701 7.81918 2.8024 7.9362 2.93578 8.00297ZM4.99594 6.375H4.37906L4.6875 5.75766L4.99594 6.375ZM6.75 6C6.75 5.85082 6.80926 5.70774 6.91475 5.60225C7.02024 5.49676 7.16332 5.4375 7.3125 5.4375H7.5V5.25C7.5 5.10082 7.55926 4.95774 7.66475 4.85225C7.77024 4.74676 7.91332 4.6875 8.0625 4.6875C8.21168 4.6875 8.35476 4.74676 8.46025 4.85225C8.56574 4.95774 8.625 5.10082 8.625 5.25V5.4375H8.8125C8.96168 5.4375 9.10476 5.49676 9.21025 5.60225C9.31574 5.70774 9.375 5.85082 9.375 6C9.375 6.14918 9.31574 6.29226 9.21025 6.39775C9.10476 6.50324 8.96168 6.5625 8.8125 6.5625H8.625V6.75C8.625 6.89918 8.56574 7.04226 8.46025 7.14775C8.35476 7.25324 8.21168 7.3125 8.0625 7.3125C7.91332 7.3125 7.77024 7.25324 7.66475 7.14775C7.55926 7.04226 7.5 6.89918 7.5 6.75V6.5625H7.3125C7.16332 6.5625 7.02024 6.50324 6.91475 6.39775C6.80926 6.29226 6.75 6.14918 6.75 6Z" fill="#D32F2F"/>
</svg>
