<svg width="16" height="16" viewBox="0 0 16 16" fill="none" xmlns="http://www.w3.org/2000/svg">
<path d="M14.0806 10.3706C13.5381 9.4375 13.25 8.09812 13.25 6.5C13.25 5.10761 12.6969 3.77226 11.7123 2.78769C10.7277 1.80312 9.39239 1.25 8 1.25C6.60761 1.25 5.27225 1.80312 4.28769 2.78769C3.30312 3.77226 2.75 5.10761 2.75 6.5C2.75 8.09875 2.46312 9.4375 1.92062 10.3706C1.80992 10.561 1.75124 10.7771 1.75048 10.9972C1.74971 11.2174 1.80688 11.4339 1.91625 11.625C2.02493 11.8162 2.18266 11.9749 2.37318 12.0848C2.56369 12.1947 2.78008 12.2517 3 12.25H5.26125C5.32327 12.9335 5.63863 13.5691 6.14539 14.032C6.65215 14.4949 7.31367 14.7515 8 14.7515C8.68633 14.7515 9.34785 14.4949 9.85461 14.032C10.3614 13.5691 10.6767 12.9335 10.7387 12.25H13C13.2196 12.2514 13.4356 12.1942 13.6258 12.0843C13.8159 11.9745 13.9734 11.8159 14.0819 11.625C14.1917 11.4342 14.2494 11.2178 14.2492 10.9976C14.249 10.7775 14.1908 10.5612 14.0806 10.3706ZM8 13.25C7.71184 13.2501 7.4325 13.1506 7.20927 12.9683C6.98604 12.7861 6.83263 12.5323 6.775 12.25H9.225C9.16737 12.5323 9.01395 12.7861 8.79072 12.9683C8.5675 13.1506 8.28816 13.2501 8 13.25ZM3.41625 10.75C3.96937 9.625 4.25 8.19625 4.25 6.5C4.25 5.50544 4.64509 4.55161 5.34835 3.84835C6.05161 3.14509 7.00544 2.75 8 2.75C8.99456 2.75 9.94839 3.14509 10.6516 3.84835C11.3549 4.55161 11.75 5.50544 11.75 6.5C11.75 8.19562 12.03 9.625 12.5831 10.75H3.41625Z" fill="#6B6B6B"/>
</svg>
