<svg width="30" height="30" viewBox="0 0 30 30" fill="none" xmlns="http://www.w3.org/2000/svg">
<g clip-path="url(#clip0_838_13604)">
<path d="M28.7812 25.875H26.4375V4.3125H26.9062C27.2792 4.3125 27.6369 4.16434 27.9006 3.90062C28.1643 3.6369 28.3125 3.27921 28.3125 2.90625C28.3125 2.53329 28.1643 2.1756 27.9006 1.91188C27.6369 1.64816 27.2792 1.5 26.9062 1.5H6.28125C5.90829 1.5 5.5506 1.64816 5.28688 1.91188C5.02316 2.1756 4.875 2.53329 4.875 2.90625C4.875 3.27921 5.02316 3.6369 5.28688 3.90062C5.5506 4.16434 5.90829 4.3125 6.28125 4.3125H6.75V25.875H4.40625C4.03329 25.875 3.6756 26.0232 3.41188 26.2869C3.14816 26.5506 3 26.9083 3 27.2812C3 27.6542 3.14816 28.0119 3.41188 28.2756C3.6756 28.5393 4.03329 28.6875 4.40625 28.6875H28.7812C29.1542 28.6875 29.5119 28.5393 29.7756 28.2756C30.0393 28.0119 30.1875 27.6542 30.1875 27.2812C30.1875 26.9083 30.0393 26.5506 29.7756 26.2869C29.5119 26.0232 29.1542 25.875 28.7812 25.875ZM9.5625 4.3125H23.625V25.875H20.8125V21.6562C20.8125 21.2833 20.6643 20.9256 20.4006 20.6619C20.1369 20.3982 19.7792 20.25 19.4062 20.25H13.7812C13.4083 20.25 13.0506 20.3982 12.7869 20.6619C12.5232 20.9256 12.375 21.2833 12.375 21.6562V25.875H9.5625V4.3125ZM18 25.875H15.1875V23.0625H18V25.875ZM11.4375 7.59375C11.4375 7.22079 11.5857 6.8631 11.8494 6.59938C12.1131 6.33566 12.4708 6.1875 12.8438 6.1875H14.25C14.623 6.1875 14.9806 6.33566 15.2444 6.59938C15.5081 6.8631 15.6562 7.22079 15.6562 7.59375C15.6562 7.96671 15.5081 8.3244 15.2444 8.58812C14.9806 8.85184 14.623 9 14.25 9H12.8438C12.4708 9 12.1131 8.85184 11.8494 8.58812C11.5857 8.3244 11.4375 7.96671 11.4375 7.59375ZM17.5312 7.59375C17.5312 7.22079 17.6794 6.8631 17.9431 6.59938C18.2069 6.33566 18.5645 6.1875 18.9375 6.1875H20.3438C20.7167 6.1875 21.0744 6.33566 21.3381 6.59938C21.6018 6.8631 21.75 7.22079 21.75 7.59375C21.75 7.96671 21.6018 8.3244 21.3381 8.58812C21.0744 8.85184 20.7167 9 20.3438 9H18.9375C18.5645 9 18.2069 8.85184 17.9431 8.58812C17.6794 8.3244 17.5312 7.96671 17.5312 7.59375ZM11.4375 12.2812C11.4375 11.9083 11.5857 11.5506 11.8494 11.2869C12.1131 11.0232 12.4708 10.875 12.8438 10.875H14.25C14.623 10.875 14.9806 11.0232 15.2444 11.2869C15.5081 11.5506 15.6562 11.9083 15.6562 12.2812C15.6562 12.6542 15.5081 13.0119 15.2444 13.2756C14.9806 13.5393 14.623 13.6875 14.25 13.6875H12.8438C12.4708 13.6875 12.1131 13.5393 11.8494 13.2756C11.5857 13.0119 11.4375 12.6542 11.4375 12.2812ZM17.5312 12.2812C17.5312 11.9083 17.6794 11.5506 17.9431 11.2869C18.2069 11.0232 18.5645 10.875 18.9375 10.875H20.3438C20.7167 10.875 21.0744 11.0232 21.3381 11.2869C21.6018 11.5506 21.75 11.9083 21.75 12.2812C21.75 12.6542 21.6018 13.0119 21.3381 13.2756C21.0744 13.5393 20.7167 13.6875 20.3438 13.6875H18.9375C18.5645 13.6875 18.2069 13.5393 17.9431 13.2756C17.6794 13.0119 17.5312 12.6542 17.5312 12.2812ZM11.4375 16.9688C11.4375 16.5958 11.5857 16.2381 11.8494 15.9744C12.1131 15.7107 12.4708 15.5625 12.8438 15.5625H14.25C14.623 15.5625 14.9806 15.7107 15.2444 15.9744C15.5081 16.2381 15.6562 16.5958 15.6562 16.9688C15.6562 17.3417 15.5081 17.6994 15.2444 17.9631C14.9806 18.2268 14.623 18.375 14.25 18.375H12.8438C12.4708 18.375 12.1131 18.2268 11.8494 17.9631C11.5857 17.6994 11.4375 17.3417 11.4375 16.9688ZM17.5312 16.9688C17.5312 16.5958 17.6794 16.2381 17.9431 15.9744C18.2069 15.7107 18.5645 15.5625 18.9375 15.5625H20.3438C20.7167 15.5625 21.0744 15.7107 21.3381 15.9744C21.6018 16.2381 21.75 16.5958 21.75 16.9688C21.75 17.3417 21.6018 17.6994 21.3381 17.9631C21.0744 18.2268 20.7167 18.375 20.3438 18.375H18.9375C18.5645 18.375 18.2069 18.2268 17.9431 17.9631C17.6794 17.6994 17.5312 17.3417 17.5312 16.9688Z" fill="#6B6B6B"/>
</g>
<defs>
<clipPath id="clip0_838_13604">
<rect width="30" height="30" fill="white"/>
</clipPath>
</defs>
</svg>
