<svg width="25" height="24" viewBox="0 0 25 24" fill="none" xmlns="http://www.w3.org/2000/svg">
<path d="M16.5293 18.7041C16.7406 18.9154 16.8593 19.2021 16.8593 19.501C16.8593 19.7999 16.7406 20.0865 16.5293 20.2978C16.3179 20.5092 16.0313 20.6279 15.7324 20.6279C15.4335 20.6279 15.1468 20.5092 14.9355 20.2978L7.4355 12.7978C7.33062 12.6933 7.2474 12.5691 7.19062 12.4324C7.13384 12.2956 7.10461 12.149 7.10461 12.001C7.10461 11.8529 7.13384 11.7063 7.19062 11.5696C7.2474 11.4328 7.33062 11.3086 7.4355 11.2041L14.9355 3.7041C15.1468 3.49276 15.4335 3.37402 15.7324 3.37402C16.0313 3.37402 16.3179 3.49276 16.5293 3.7041C16.7406 3.91544 16.8593 4.20209 16.8593 4.50097C16.8593 4.79986 16.7406 5.08651 16.5293 5.29785L9.82706 12L16.5293 18.7041Z" fill="#6B6B6B"/>
</svg>
