<svg width="22" height="21" viewBox="0 0 22 21" fill="none" xmlns="http://www.w3.org/2000/svg">
<path d="M14.7959 8.29594L12.5938 10.5L14.7988 12.7041C15.0101 12.9154 15.1288 13.2021 15.1288 13.5009C15.1288 13.7998 15.0101 14.0865 14.7988 14.2978C14.5874 14.5092 14.3008 14.6279 14.0019 14.6279C13.703 14.6279 13.4163 14.5092 13.205 14.2978L11 12.0938L8.79594 14.2987C8.5846 14.5101 8.29795 14.6288 7.99907 14.6288C7.70018 14.6288 7.41354 14.5101 7.20219 14.2987C6.99085 14.0874 6.87212 13.8008 6.87212 13.5019C6.87212 13.203 6.99085 12.9163 7.20219 12.705L9.40625 10.5L7.20407 8.29594C7.09942 8.19129 7.01641 8.06706 6.95977 7.93033C6.90314 7.7936 6.87399 7.64706 6.87399 7.49906C6.87399 7.20018 6.99272 6.91353 7.20407 6.70219C7.41541 6.49084 7.70206 6.37211 8.00094 6.37211C8.29983 6.37211 8.58647 6.49084 8.79782 6.70219L11 8.90625L13.2041 6.70125C13.4154 6.48991 13.7021 6.37117 14.0009 6.37117C14.2998 6.37117 14.5865 6.48991 14.7978 6.70125C15.0092 6.91259 15.1279 7.19924 15.1279 7.49813C15.1279 7.79701 15.0092 8.08366 14.7978 8.295L14.7959 8.29594ZM21.125 10.5C21.125 12.5025 20.5312 14.4601 19.4186 16.1251C18.3061 17.7902 16.7248 19.0879 14.8747 19.8543C13.0246 20.6206 10.9888 20.8211 9.02471 20.4305C7.06066 20.0398 5.25656 19.0755 3.84055 17.6595C2.42454 16.2435 1.46023 14.4393 1.06955 12.4753C0.678878 10.5112 0.879387 8.47543 1.64572 6.62533C2.41206 4.77523 3.70981 3.19392 5.37486 2.08137C7.0399 0.968821 8.99747 0.375 11 0.375C13.6844 0.377978 16.258 1.44567 18.1562 3.34383C20.0543 5.24199 21.122 7.8156 21.125 10.5ZM18.875 10.5C18.875 8.94247 18.4131 7.41992 17.5478 6.12488C16.6825 4.82985 15.4526 3.82049 14.0136 3.22445C12.5747 2.62841 10.9913 2.47246 9.46367 2.77632C7.93607 3.08017 6.53288 3.8302 5.43154 4.93153C4.3302 6.03287 3.58018 7.43606 3.27632 8.96366C2.97246 10.4913 3.12841 12.0747 3.72445 13.5136C4.32049 14.9526 5.32985 16.1825 6.62489 17.0478C7.91993 17.9131 9.44248 18.375 11 18.375C13.0879 18.3728 15.0896 17.5424 16.566 16.066C18.0424 14.5896 18.8728 12.5879 18.875 10.5Z" fill="#D32F2F"/>
</svg>
