<svg width="24" height="25" viewBox="0 0 24 25" fill="none" xmlns="http://www.w3.org/2000/svg">
<path d="M6.76585 8.78033C6.559 8.57348 6.44279 8.29292 6.44279 8.00038C6.44279 7.70785 6.559 7.42729 6.76585 7.22044C6.97271 7.01358 7.25326 6.89737 7.5458 6.89737C7.83834 6.89737 8.11889 7.01358 8.32575 7.22044L10.8482 9.74472V2.86282C10.8482 2.57079 10.9642 2.29072 11.1707 2.08422C11.3772 1.87773 11.6573 1.76172 11.9493 1.76172C12.2413 1.76172 12.5214 1.87773 12.7279 2.08422C12.9344 2.29072 13.0504 2.57079 13.0504 2.86282V9.74472L15.5747 7.21952C15.7815 7.01266 16.0621 6.89645 16.3546 6.89645C16.6472 6.89645 16.9277 7.01266 17.1346 7.21952C17.3414 7.42637 17.4576 7.70693 17.4576 7.99947C17.4576 8.292 17.3414 8.57256 17.1346 8.77942L12.7302 13.1838C12.6279 13.2865 12.5063 13.3679 12.3725 13.4235C12.2386 13.4791 12.0951 13.5077 11.9502 13.5077C11.8053 13.5077 11.6618 13.4791 11.528 13.4235C11.3941 13.3679 11.2726 13.2865 11.1703 13.1838L6.76585 8.78033ZM20.7581 11.3046H17.4548C17.1628 11.3046 16.8827 11.4206 16.6762 11.6271C16.4697 11.8336 16.3537 12.1137 16.3537 12.4057C16.3537 12.6977 16.4697 12.9778 16.6762 13.1843C16.8827 13.3908 17.1628 13.5068 17.4548 13.5068H20.3911V18.6453H3.5075V13.5068H6.44378C6.73581 13.5068 7.01588 13.3908 7.22238 13.1843C7.42887 12.9778 7.54488 12.6977 7.54488 12.4057C7.54488 12.1137 7.42887 11.8336 7.22238 11.6271C7.01588 11.4206 6.73581 11.3046 6.44378 11.3046H3.14047C2.65375 11.3046 2.18697 11.498 1.84281 11.8421C1.49865 12.1863 1.3053 12.6531 1.3053 13.1398V19.0123C1.3053 19.4991 1.49865 19.9658 1.84281 20.31C2.18697 20.6542 2.65375 20.8475 3.14047 20.8475H20.7581C21.2448 20.8475 21.7116 20.6542 22.0558 20.31C22.3999 19.9658 22.5933 19.4991 22.5933 19.0123V13.1398C22.5933 12.6531 22.3999 12.1863 22.0558 11.8421C21.7116 11.498 21.2448 11.3046 20.7581 11.3046ZM18.9229 16.0761C18.9229 15.7857 18.8368 15.5018 18.6755 15.2604C18.5142 15.019 18.2849 14.8308 18.0166 14.7197C17.7484 14.6086 17.4532 14.5795 17.1684 14.6361C16.8836 14.6928 16.622 14.8326 16.4167 15.0379C16.2114 15.2432 16.0715 15.5048 16.0149 15.7896C15.9582 16.0744 15.9873 16.3696 16.0984 16.6379C16.2095 16.9062 16.3977 17.1354 16.6392 17.2968C16.8806 17.4581 17.1644 17.5442 17.4548 17.5442C17.8442 17.5442 18.2176 17.3895 18.4929 17.1142C18.7683 16.8389 18.9229 16.4654 18.9229 16.0761Z" fill="black"/>
</svg>
