<svg width="24" height="25" viewBox="0 0 24 25" fill="none" xmlns="http://www.w3.org/2000/svg">
<path d="M21.5766 7.11272L17.3869 2.92397C17.0353 2.57247 16.5584 2.375 16.0613 2.375C15.5641 2.375 15.0872 2.57247 14.7356 2.92397L3.17438 14.4843C2.99968 14.6579 2.86116 14.8645 2.76686 15.092C2.67255 15.3196 2.62434 15.5636 2.62501 15.8099V19.9996C2.62501 20.4969 2.82255 20.9738 3.17418 21.3254C3.52581 21.6771 4.00273 21.8746 4.50001 21.8746H20.25C20.5484 21.8746 20.8345 21.7561 21.0455 21.5451C21.2565 21.3341 21.375 21.048 21.375 20.7496C21.375 20.4512 21.2565 20.1651 21.0455 19.9541C20.8345 19.7431 20.5484 19.6246 20.25 19.6246H11.7188L21.5766 9.76491C21.7508 9.59079 21.8889 9.38406 21.9832 9.15652C22.0775 8.92899 22.126 8.68511 22.126 8.43882C22.126 8.19253 22.0775 7.94865 21.9832 7.72111C21.8889 7.49358 21.7508 7.28684 21.5766 7.11272ZM12.75 8.09335L13.7813 9.1246L7.12501 15.7808L6.09376 14.7496L12.75 8.09335ZM4.87501 19.6246V16.7183L6.33001 18.1724L7.78126 19.6246H4.87501ZM9.75001 18.4058L8.71876 17.3746L15.375 10.7183L16.4063 11.7496L9.75001 18.4058ZM18 10.1558L14.3438 6.4996L16.0631 4.78022L19.7194 8.43647L18 10.1558Z" fill="#6B6B6B"/>
</svg>
