<svg width="45" height="44" viewBox="0 0 45 44" fill="none" xmlns="http://www.w3.org/2000/svg">
<rect y="0.400391" width="44.0997" height="43.1975" rx="4" fill="#EDEFF5"/>
<path d="M31.0561 29.4998H13.0436C12.5218 29.4998 12 29.8912 12 30.5434C12 31.1956 12.5218 31.5979 13.0436 31.5979H31.0561C31.7084 31.5979 32.0997 31.1956 32.0997 30.5434C32.0997 29.8912 31.7084 29.4998 31.0561 29.4998ZM31.0561 20.8903H13.0436C12.5218 20.8903 12 21.4121 12 21.9339C12 22.5861 12.5218 23.1079 13.0436 23.1079H31.0561C31.7084 23.1079 32.0997 22.5861 32.0997 21.9339C32.0997 21.4121 31.7084 20.8903 31.0561 20.8903ZM13.0436 14.4875H31.0561C31.7084 14.4875 32.0997 14.0962 32.0997 13.444C32.0997 12.7917 31.7084 12.4004 31.0561 12.4004H13.0436C12.5218 12.4004 12 12.7917 12 13.444C12 14.0962 12.5218 14.4875 13.0436 14.4875Z" fill="#FF5A00"/>
</svg>
