<svg width="16" height="17" viewBox="0 0 16 17" fill="none" xmlns="http://www.w3.org/2000/svg">
<path d="M15.04 8.66675C15.04 8.14675 14.9933 7.64675 14.9067 7.16675H8V10.0034H11.9467C11.7767 10.9201 11.26 11.6967 10.4833 12.2167V14.0567H12.8533C14.24 12.7801 15.04 10.9001 15.04 8.66675Z" fill="#4285F4"/>
<path d="M7.99999 15.8333C9.97999 15.8333 11.64 15.1766 12.8533 14.0566L10.4833 12.2166C9.82666 12.6566 8.98665 12.9166 7.99999 12.9166C6.08999 12.9166 4.47332 11.6266 3.89665 9.89331H1.44666V11.7933C2.65332 14.19 5.13332 15.8333 7.99999 15.8333Z" fill="#34A853"/>
<path d="M3.89669 9.89345C3.75002 9.45345 3.66669 8.98345 3.66669 8.50012C3.66669 8.01679 3.75002 7.54679 3.89669 7.10679V5.20679H1.44669C0.933354 6.22869 0.666235 7.35653 0.666688 8.50012C0.666688 9.68345 0.950021 10.8035 1.44669 11.7935L3.89669 9.89345Z" fill="#FBBC05"/>
<path d="M7.99999 4.08341C9.07665 4.08341 10.0433 4.45341 10.8033 5.18008L12.9067 3.07675C11.6367 1.89341 9.97666 1.16675 7.99999 1.16675C5.13332 1.16675 2.65332 2.81008 1.44666 5.20675L3.89665 7.10675C4.47332 5.37341 6.08999 4.08341 7.99999 4.08341Z" fill="#EA4335"/>
</svg>
