<svg width="22" height="21" viewBox="0 0 21 20" fill="none" xmlns="http://www.w3.org/2000/svg">
<path d="M19.5766 5.11321L15.3869 0.924463C15.0353 0.572955 14.5584 0.375488 14.0613 0.375488C13.5641 0.375488 13.0872 0.572955 12.7356 0.924463L1.17438 12.4848C0.999676 12.6584 0.861159 12.865 0.766857 13.0925C0.672554 13.3201 0.62434 13.5641 0.625007 13.8104V18.0001C0.625007 18.4974 0.822551 18.9743 1.17418 19.3259C1.52581 19.6775 2.00273 19.8751 2.50001 19.8751H18.25C18.5484 19.8751 18.8345 19.7566 19.0455 19.5456C19.2565 19.3346 19.375 19.0485 19.375 18.7501C19.375 18.4517 19.2565 18.1656 19.0455 17.9546C18.8345 17.7436 18.5484 17.6251 18.25 17.6251H9.71876L19.5766 7.7654C19.7508 7.59128 19.8889 7.38455 19.9832 7.15701C20.0775 6.92948 20.126 6.6856 20.126 6.43931C20.126 6.19301 20.0775 5.94913 19.9832 5.7216C19.8889 5.49406 19.7508 5.28733 19.5766 5.11321ZM10.75 6.09384L11.7813 7.12509L5.12501 13.7813L4.09376 12.7501L10.75 6.09384ZM2.87501 17.6251V14.7188L4.33001 16.1729L5.78126 17.6251H2.87501ZM7.75001 16.4063L6.71876 15.3751L13.375 8.71884L14.4063 9.75009L7.75001 16.4063ZM16 8.15634L12.3438 4.50009L14.0631 2.78071L17.7194 6.43696L16 8.15634Z" fill="#6B6B6B"/>
</svg>
