<svg width="19" height="18" viewBox="0 0 19 18" fill="none" xmlns="http://www.w3.org/2000/svg">
<path d="M9.09973 9.5625C10.3424 9.5625 11.3497 8.55514 11.3497 7.3125C11.3497 6.06986 10.3424 5.0625 9.09973 5.0625C7.85709 5.0625 6.84973 6.06986 6.84973 7.3125C6.84973 8.55514 7.85709 9.5625 9.09973 9.5625Z" stroke="#6B6B6B" stroke-width="2" stroke-linecap="round" stroke-linejoin="round"/>
<path d="M14.7247 7.3125C14.7247 12.375 9.09973 16.3125 9.09973 16.3125C9.09973 16.3125 3.47473 12.375 3.47473 7.3125C3.47473 5.82066 4.06736 4.38992 5.12226 3.33502C6.17715 2.28013 7.60789 1.6875 9.09973 1.6875C10.5916 1.6875 12.0223 2.28013 13.0772 3.33502C14.1321 4.38992 14.7247 5.82066 14.7247 7.3125V7.3125Z" stroke="#6B6B6B" stroke-width="2" stroke-linecap="round" stroke-linejoin="round"/>
</svg>
