<svg width="56" height="56" viewBox="0 0 56 56" fill="none" xmlns="http://www.w3.org/2000/svg">
<g clip-path="url(#clip0_812_4229)">
<path d="M-106.164 23.9162C-107.366 23.9162 -108.534 23.6879 -109.668 23.2313C-110.802 22.7671 -111.746 22.1431 -112.499 21.3592L-111.357 19.7496C-110.733 20.4193 -109.957 20.9635 -109.029 21.382C-108.1 21.793 -107.145 21.9985 -106.164 21.9985C-105.09 21.9985 -104.189 21.7511 -103.458 21.2565C-102.728 20.7542 -102.362 20.1187 -102.362 19.3501C-102.362 19.137 -102.396 18.9354 -102.465 18.7451C-102.533 18.5472 -102.613 18.376 -102.705 18.2314C-102.796 18.0792 -102.933 17.9346 -103.116 17.7976C-103.298 17.653 -103.458 17.5351 -103.595 17.4438C-103.724 17.3524 -103.919 17.2573 -104.177 17.1584C-104.436 17.0518 -104.634 16.9757 -104.771 16.9301C-104.9 16.8768 -105.113 16.8121 -105.41 16.736C-105.699 16.6523 -105.89 16.599 -105.981 16.5762C-106.072 16.5534 -106.259 16.5115 -106.54 16.4506C-107.119 16.3289 -107.659 16.1843 -108.161 16.0168C-108.656 15.8418 -109.147 15.6211 -109.634 15.3547C-110.113 15.0808 -110.524 14.7802 -110.867 14.4529C-111.201 14.1181 -111.472 13.7147 -111.677 13.2429C-111.883 12.7711 -111.985 12.2612 -111.985 11.7133C-111.985 10.3739 -111.453 9.2894 -110.387 8.45989C-109.314 7.63037 -107.933 7.21562 -106.243 7.21562C-105.132 7.21562 -104.116 7.39826 -103.196 7.76355C-102.267 8.12884 -101.514 8.62351 -100.935 9.24755L-101.963 10.8457C-102.404 10.3586 -103.017 9.95149 -103.801 9.62425C-104.577 9.29701 -105.399 9.13339 -106.266 9.13339C-107.286 9.13339 -108.131 9.36931 -108.8 9.84114C-109.463 10.3054 -109.794 10.9028 -109.794 11.6333C-109.794 12.9575 -108.507 13.886 -105.935 14.4187C-105.654 14.472 -105.383 14.5328 -105.125 14.6013C-104.858 14.6698 -104.524 14.7726 -104.12 14.9095C-103.709 15.0465 -103.336 15.1987 -103.001 15.3662C-102.659 15.526 -102.309 15.7353 -101.951 15.994C-101.586 16.2528 -101.278 16.5343 -101.027 16.8387C-100.775 17.1355 -100.57 17.4932 -100.41 17.9118C-100.243 18.3303 -100.159 18.7793 -100.159 19.2588C-100.159 20.621 -100.734 21.7397 -101.883 22.6149C-103.024 23.4825 -104.451 23.9162 -106.164 23.9162ZM-89.9423 23.6309L-94.2231 18.8364L-95.7642 20.4802V23.6309H-97.7732V6.79325H-95.7642V17.7634L-90.0679 11.7133H-87.4424L-92.7962 17.341L-87.2826 23.6309H-89.9423ZM-84.4858 9.32745C-84.8739 9.32745 -85.1974 9.20188 -85.4561 8.95075C-85.7149 8.692 -85.8442 8.37237 -85.8442 7.99186C-85.8442 7.60374 -85.7149 7.28411 -85.4561 7.03297C-85.1974 6.78184 -84.8739 6.65627 -84.4858 6.65627C-84.1053 6.65627 -83.7895 6.78184 -83.5383 7.03297C-83.2872 7.28411 -83.1616 7.60374 -83.1616 7.99186C-83.1616 8.37237 -83.291 8.692 -83.5498 8.95075C-83.8009 9.20188 -84.1129 9.32745 -84.4858 9.32745ZM-85.4904 23.6309V11.7133H-83.4813V23.6309H-85.4904ZM-80.0795 23.6309V6.79325H-78.0704V23.6309H-80.0795ZM-74.6686 23.6309V6.79325H-72.6595V23.6309H-74.6686ZM-63.8355 23.9162C-65.0379 23.9162 -66.2061 23.6879 -67.34 23.2313C-68.4739 22.7671 -69.4176 22.1431 -70.171 21.3592L-69.0295 19.7496C-68.4054 20.4193 -67.6292 20.9635 -66.7007 21.382C-65.7723 21.793 -64.8172 21.9985 -63.8355 21.9985C-62.7624 21.9985 -61.8606 21.7511 -61.13 21.2565C-60.3995 20.7542 -60.0342 20.1187 -60.0342 19.3501C-60.0342 19.137 -60.0684 18.9354 -60.1369 18.7451C-60.2054 18.5472 -60.2853 18.376 -60.3766 18.2314C-60.468 18.0792 -60.6049 17.9346 -60.7876 17.7976C-60.9702 17.653 -61.13 17.5351 -61.267 17.4438C-61.3964 17.3524 -61.5905 17.2573 -61.8492 17.1584C-62.108 17.0518 -62.3058 16.9757 -62.4428 16.9301C-62.5722 16.8768 -62.7853 16.8121 -63.0821 16.736C-63.3713 16.6523 -63.5615 16.599 -63.6528 16.5762C-63.7442 16.5534 -63.9306 16.5115 -64.2122 16.4506C-64.7906 16.3289 -65.3309 16.1843 -65.8332 16.0168C-66.3278 15.8418 -66.8187 15.6211 -67.3057 15.3547C-67.7852 15.0808 -68.1961 14.7802 -68.5386 14.4529C-68.8734 14.1181 -69.1436 13.7147 -69.3491 13.2429C-69.5546 12.7711 -69.6573 12.2612 -69.6573 11.7133C-69.6573 10.3739 -69.1246 9.2894 -68.0591 8.45989C-66.9861 7.63037 -65.6049 7.21562 -63.9154 7.21562C-62.8043 7.21562 -61.7883 7.39826 -60.8675 7.76355C-59.939 8.12884 -59.1856 8.62351 -58.6073 9.24755L-59.6346 10.8457C-60.076 10.3586 -60.6887 9.95149 -61.4725 9.62425C-62.2487 9.29701 -63.0707 9.13339 -63.9382 9.13339C-64.958 9.13339 -65.8027 9.36931 -66.4724 9.84114C-67.1345 10.3054 -67.4656 10.9028 -67.4656 11.6333C-67.4656 12.9575 -66.1794 13.886 -63.6072 14.4187C-63.3256 14.472 -63.0554 14.5328 -62.7967 14.6013C-62.5303 14.6698 -62.1955 14.7726 -61.7921 14.9095C-61.3812 15.0465 -61.0083 15.1987 -60.6734 15.3662C-60.331 15.526 -59.9809 15.7353 -59.6232 15.994C-59.2579 16.2528 -58.9497 16.5343 -58.6986 16.8387C-58.4474 17.1355 -58.242 17.4932 -58.0822 17.9118C-57.9147 18.3303 -57.831 18.7793 -57.831 19.2588C-57.831 20.621 -58.4056 21.7397 -59.5547 22.6149C-60.6963 23.4825 -62.1232 23.9162 -63.8355 23.9162ZM-48.8129 11.4279C-47.1082 11.4279 -45.6851 12.0253 -44.5436 13.2201C-43.402 14.4149 -42.8313 15.8989 -42.8313 17.6721C-42.8313 19.4452 -43.402 20.9292 -44.5436 22.124C-45.6851 23.3188 -47.1082 23.9162 -48.8129 23.9162C-49.787 23.9162 -50.6736 23.7032 -51.4727 23.277C-52.2718 22.8432 -52.9262 22.2458 -53.4361 21.4848V28.0714H-55.4452V11.7133H-53.4361V13.8593C-52.9262 13.0983 -52.2718 12.5047 -51.4727 12.0785C-50.6736 11.6448 -49.787 11.4279 -48.8129 11.4279ZM-49.1896 21.9756C-47.9644 21.9756 -46.9446 21.5647 -46.1303 20.7428C-45.316 19.9209 -44.9089 18.8973 -44.9089 17.6721C-44.9089 16.4468 -45.316 15.4232 -46.1303 14.6013C-46.9446 13.7794 -47.9644 13.3685 -49.1896 13.3685C-50.4072 13.3685 -51.4194 13.7794 -52.2261 14.6013C-53.0328 15.4232 -53.4361 16.4468 -53.4361 17.6721C-53.4361 18.8973 -53.0328 19.9209 -52.2261 20.7428C-51.4194 21.5647 -50.4072 21.9756 -49.1896 21.9756ZM-30.2858 11.7133H-28.2767V23.6309H-30.2858V21.4848C-30.7957 22.2458 -31.454 22.8432 -32.2607 23.277C-33.0598 23.7032 -33.9463 23.9162 -34.9205 23.9162C-36.0392 23.9162 -37.0551 23.6461 -37.9684 23.1058C-38.8816 22.5578 -39.5969 21.8082 -40.1144 20.8569C-40.6243 19.898 -40.8793 18.8364 -40.8793 17.6721C-40.8793 16.5077 -40.6243 15.4499 -40.1144 14.4986C-39.5969 13.5397 -38.8816 12.7901 -37.9684 12.2498C-37.0551 11.7018 -36.0392 11.4279 -34.9205 11.4279C-33.9463 11.4279 -33.0598 11.6448 -32.2607 12.0785C-31.454 12.5047 -30.7957 13.0983 -30.2858 13.8593V11.7133ZM-34.5438 21.9756C-33.3261 21.9756 -32.314 21.5647 -31.5073 20.7428C-30.693 19.9209 -30.2858 18.8973 -30.2858 17.6721C-30.2858 16.4468 -30.693 15.4232 -31.5073 14.6013C-32.314 13.7794 -33.3261 13.3685 -34.5438 13.3685C-35.769 13.3685 -36.7888 13.7794 -37.6031 14.6013C-38.4174 15.4232 -38.8245 16.4468 -38.8245 17.6721C-38.8245 18.8973 -38.4174 19.9209 -37.6031 20.7428C-36.7888 21.5647 -35.769 21.9756 -34.5438 21.9756ZM-19.27 23.9162C-20.4572 23.9162 -21.5379 23.6461 -22.512 23.1058C-23.4861 22.5578 -24.2509 21.8082 -24.8065 20.8569C-25.3544 19.898 -25.6284 18.8364 -25.6284 17.6721C-25.6284 16.5077 -25.3544 15.4499 -24.8065 14.4986C-24.2509 13.5397 -23.4861 12.7901 -22.512 12.2498C-21.5379 11.7018 -20.4572 11.4279 -19.27 11.4279C-18.0981 11.4279 -17.0326 11.698 -16.0738 12.2384C-15.1149 12.7711 -14.3653 13.4979 -13.8249 14.4187L-15.5715 15.4689C-15.9368 14.822 -16.4467 14.3121 -17.1011 13.9392C-17.7556 13.5587 -18.4786 13.3685 -19.27 13.3685C-20.4953 13.3685 -21.5151 13.7794 -22.3294 14.6013C-23.1436 15.4232 -23.5508 16.4468 -23.5508 17.6721C-23.5508 18.8973 -23.1436 19.9209 -22.3294 20.7428C-21.5151 21.5647 -20.4953 21.9756 -19.27 21.9756C-18.4786 21.9756 -17.7556 21.7854 -17.1011 21.4049C-16.4467 21.0244 -15.9368 20.5107 -15.5715 19.8638L-13.8249 20.914C-14.3653 21.8425 -15.1187 22.5768 -16.0852 23.1172C-17.0441 23.6499 -18.1057 23.9162 -19.27 23.9162ZM0.215922 17.6721C0.215922 17.7862 0.196896 18.083 0.158845 18.5625H-10.1035C-9.89806 19.6127 -9.39959 20.4612 -8.60813 21.1081C-7.80905 21.7473 -6.83495 22.067 -5.6858 22.067C-4.83346 22.067 -4.04961 21.8881 -3.33425 21.5304C-2.61888 21.1651 -2.05953 20.6971 -1.65619 20.1264L-0.274937 21.3135C-0.876144 22.1202 -1.65619 22.7557 -2.61508 23.2199C-3.56636 23.6841 -4.61276 23.9162 -5.75429 23.9162C-7.6188 23.9162 -9.17128 23.315 -10.4117 22.1126C-11.6522 20.9102 -12.2724 19.4148 -12.2724 17.6264C-12.2724 16.4696 -12.0023 15.4194 -11.462 14.4758C-10.914 13.5245 -10.1606 12.7787 -9.20172 12.2384C-8.24284 11.698 -7.17741 11.4279 -6.00543 11.4279C-4.84107 11.4279 -3.78325 11.698 -2.83197 12.2384C-1.88069 12.7787 -1.13489 13.5283 -0.594566 14.4872C-0.0542409 15.4385 0.215922 16.5001 0.215922 17.6721ZM-6.02826 13.2772C-7.06325 13.2772 -7.95745 13.6006 -8.71086 14.2475C-9.46428 14.8867 -9.93611 15.7162 -10.1264 16.736H-1.91874C-2.109 15.701 -2.58083 14.8677 -3.33425 14.236C-4.08766 13.5968 -4.98566 13.2772 -6.02826 13.2772Z" fill="#6B6B6B"/>
<path d="M18.8953 42.7318C19.1365 43.3149 19.5797 43.7916 20.1438 44.0745C20.7079 44.3574 21.355 44.4276 21.9666 44.2722V38.0439L18.8953 40.212V42.7318Z" fill="#DD5928"/>
<path d="M21.9666 12.6933C22.1025 11.5158 22.4572 10.3742 23.0126 9.32713C24.134 7.31535 25.9135 5.75072 28.0523 4.89601C29.8338 5.68795 31.3421 6.98786 32.3883 8.63298C33.3106 10.1237 33.8162 11.8345 33.8527 13.5871V24.0468L36.924 21.8788V13.549C36.8937 11.2364 36.2365 8.97541 35.0223 7.00697C33.5064 4.62041 31.2527 2.79409 28.6038 1.80564L28.0808 1.60596L27.5483 1.79613C24.4666 2.86418 21.8869 5.0309 20.3026 7.88178C19.5481 9.29941 19.0735 10.849 18.9048 12.446V34.5636L21.9761 32.4051L21.9666 12.6933Z" fill="#DD5928"/>
<path d="M33.8528 44.2721C34.2162 44.3894 34.6013 44.4237 34.9797 44.3727C35.3582 44.3217 35.7204 44.1866 36.0398 43.9774C36.4636 43.6707 36.7744 43.2329 36.9241 42.7317V27.5176L33.8528 29.6571V44.2721Z" fill="#DD5928"/>
<path d="M32.0842 37.8442L29.0128 40.1454V54.0568C29.4398 54.1001 29.871 54.0464 30.2744 53.8999C30.6777 53.7534 31.0428 53.5177 31.3425 53.2105C31.8314 52.6728 32.0967 51.9688 32.0842 51.2422V37.8442Z" fill="#DD5928"/>
<path d="M24.0871 51.2422C24.0746 51.9688 24.3399 52.6728 24.8288 53.2105C25.1284 53.5177 25.4935 53.7534 25.8969 53.8999C26.3003 54.0464 26.7315 54.1001 27.1584 54.0568V40.1454L24.0871 37.8442V51.2422Z" fill="#DD5928"/>
<path d="M13.7795 39.1184V23.3433L15.1963 24.646L17.2787 22.3829L10.7081 16.3638V45.0424L42.2204 22.8108V38.4813L40.756 37.0835L38.6356 39.3086L45.2917 45.6795V16.8868L13.7795 39.1184Z" fill="#DD5928"/>
<path d="M27.9953 15.0611C29.0876 15.0611 29.9731 14.1756 29.9731 13.0833C29.9731 11.991 29.0876 11.1055 27.9953 11.1055C26.903 11.1055 26.0175 11.991 26.0175 13.0833C26.0175 14.1756 26.903 15.0611 27.9953 15.0611Z" fill="#DD5928"/>
</g>
<defs>
<clipPath id="clip0_812_4229">
<rect width="55.6771" height="55.6771" fill="white" transform="translate(0.161499)"/>
</clipPath>
</defs>
</svg>
