<svg width="141" height="32" viewBox="0 0 141 32" fill="none" xmlns="http://www.w3.org/2000/svg">
<path d="M4.99341 25.0839C5.14053 25.4395 5.41088 25.7303 5.75493 25.9028C6.09897 26.0754 6.49367 26.1182 6.86671 26.0234V22.2246L4.99341 23.5469V25.0839Z" fill="#DD5928"/>
<path d="M6.86689 6.76245C6.94974 6.04431 7.16611 5.34798 7.50486 4.70936C8.18884 3.48232 9.27422 2.52801 10.5787 2.0067C11.6653 2.48972 12.5853 3.28257 13.2234 4.28598C13.7859 5.19523 14.0943 6.23867 14.1165 7.30762V13.6873L15.9898 12.365V7.28442C15.9714 5.8739 15.5705 4.49483 14.8299 3.29423C13.9053 1.8386 12.5307 0.724675 10.9151 0.121794L10.5961 0L10.2713 0.115994C8.39171 0.767425 6.81825 2.08897 5.85195 3.8278C5.39176 4.69245 5.10231 5.6376 4.99939 6.61166V20.1018L6.87269 18.7852L6.86689 6.76245Z" fill="#DD5928"/>
<path d="M14.1163 26.0233C14.338 26.0948 14.5729 26.1157 14.8037 26.0846C15.0345 26.0535 15.2554 25.9711 15.4503 25.8435C15.7087 25.6565 15.8983 25.3894 15.9896 25.0837V15.8042L14.1163 17.1091V26.0233Z" fill="#DD5928"/>
<path d="M13.0377 22.1025L11.1644 23.5061V31.991C11.4248 32.0174 11.6879 31.9847 11.9339 31.8953C12.1799 31.806 12.4026 31.6622 12.5854 31.4749C12.8836 31.1469 13.0454 30.7175 13.0377 30.2743V22.1025Z" fill="#DD5928"/>
<path d="M8.16005 30.2743C8.15241 30.7175 8.31421 31.1469 8.61242 31.4749C8.79519 31.6622 9.01788 31.806 9.2639 31.8953C9.50992 31.9847 9.77293 32.0174 10.0334 31.991V23.5061L8.16005 22.1025V30.2743Z" fill="#DD5928"/>
<path d="M1.8733 22.8797V13.258L2.73746 14.0525L4.00759 12.6722L0 9.00098V26.4929L19.2202 12.9332V22.4911L18.3271 21.6385L17.0337 22.9957L21.0935 26.8815V9.31996L1.8733 22.8797Z" fill="#DD5928"/>
<path d="M10.5439 8.20662C11.2101 8.20662 11.7502 7.66652 11.7502 7.00028C11.7502 6.33404 11.2101 5.79395 10.5439 5.79395C9.87762 5.79395 9.33752 6.33404 9.33752 7.00028C9.33752 7.66652 9.87762 8.20662 10.5439 8.20662Z" fill="#DD5928"/>
<path d="M32.8679 23.7854C31.6654 23.7854 30.4973 23.5571 29.3634 23.1005C28.2294 22.6362 27.2858 22.0122 26.5323 21.2283L27.6739 19.6188C28.2979 20.2885 29.0742 20.8326 30.0026 21.2512C30.9311 21.6621 31.8861 21.8676 32.8679 21.8676C33.9409 21.8676 34.8427 21.6203 35.5733 21.1256C36.3039 20.6233 36.6692 19.9879 36.6692 19.2193C36.6692 19.0062 36.6349 18.8045 36.5664 18.6142C36.4979 18.4164 36.418 18.2451 36.3267 18.1005C36.2354 17.9483 36.0984 17.8038 35.9157 17.6668C35.7331 17.5222 35.5733 17.4042 35.4363 17.3129C35.3069 17.2216 35.1129 17.1264 34.8541 17.0275C34.5954 16.921 34.3975 16.8449 34.2605 16.7992C34.1312 16.7459 33.9181 16.6812 33.6213 16.6051C33.3321 16.5214 33.1418 16.4682 33.0505 16.4453C32.9592 16.4225 32.7727 16.3806 32.4912 16.3198C31.9128 16.198 31.3724 16.0534 30.8702 15.886C30.3755 15.7109 29.8847 15.4902 29.3976 15.2239C28.9182 14.9499 28.5072 14.6493 28.1647 14.3221C27.8299 13.9872 27.5597 13.5839 27.3543 13.1121C27.1488 12.6402 27.046 12.1303 27.046 11.5824C27.046 10.243 27.5788 9.15854 28.6442 8.32903C29.7172 7.49952 31.0985 7.08476 32.7879 7.08476C33.899 7.08476 34.915 7.2674 35.8358 7.63269C36.7643 7.99798 37.5177 8.49265 38.0961 9.11669L37.0687 10.7148C36.6273 10.2278 36.0147 9.82063 35.2308 9.49339C34.4546 9.16615 33.6327 9.00253 32.7651 9.00253C31.7453 9.00253 30.9006 9.23845 30.2309 9.71028C29.5688 10.1745 29.2378 10.7719 29.2378 11.5025C29.2378 12.8267 30.5239 13.7551 33.0962 14.2878C33.3777 14.3411 33.6479 14.402 33.9067 14.4705C34.173 14.539 34.5079 14.6417 34.9112 14.7787C35.3222 14.9157 35.6951 15.0679 36.0299 15.2353C36.3724 15.3951 36.7224 15.6044 37.0801 15.8631C37.4454 16.1219 37.7536 16.4035 38.0048 16.7079C38.2559 17.0047 38.4614 17.3624 38.6212 17.7809C38.7886 18.1995 38.8723 18.6485 38.8723 19.1279C38.8723 20.4902 38.2977 21.6089 37.1486 22.484C36.0071 23.3516 34.5802 23.7854 32.8679 23.7854ZM49.089 23.5L44.8083 18.7056L43.2672 20.3494V23.5H41.2581V6.66239H43.2672V17.6325L48.9635 11.5824H51.589L46.2352 17.2102L51.7488 23.5H49.089ZM54.5456 9.19659C54.1574 9.19659 53.834 9.07103 53.5753 8.81989C53.3165 8.56114 53.1871 8.24151 53.1871 7.861C53.1871 7.47288 53.3165 7.15325 53.5753 6.90211C53.834 6.65098 54.1574 6.52541 54.5456 6.52541C54.9261 6.52541 55.2419 6.65098 55.493 6.90211C55.7442 7.15325 55.8697 7.47288 55.8697 7.861C55.8697 8.24151 55.7404 8.56114 55.4816 8.81989C55.2305 9.07103 54.9185 9.19659 54.5456 9.19659ZM53.541 23.5V11.5824H55.5501V23.5H53.541ZM58.9519 23.5V6.66239H60.961V23.5H58.9519ZM64.3627 23.5V6.66239H66.3718V23.5H64.3627ZM75.1959 23.7854C73.9935 23.7854 72.8253 23.5571 71.6914 23.1005C70.5575 22.6362 69.6138 22.0122 68.8604 21.2283L70.0019 19.6188C70.626 20.2885 71.4022 20.8326 72.3306 21.2512C73.2591 21.6621 74.2142 21.8676 75.1959 21.8676C76.2689 21.8676 77.1707 21.6203 77.9013 21.1256C78.6319 20.6233 78.9972 19.9879 78.9972 19.2193C78.9972 19.0062 78.963 18.8045 78.8945 18.6142C78.826 18.4164 78.7461 18.2451 78.6547 18.1005C78.5634 17.9483 78.4264 17.8038 78.2438 17.6668C78.0611 17.5222 77.9013 17.4042 77.7643 17.3129C77.635 17.2216 77.4409 17.1264 77.1822 17.0275C76.9234 16.921 76.7255 16.8449 76.5886 16.7992C76.4592 16.7459 76.2461 16.6812 75.9493 16.6051C75.6601 16.5214 75.4699 16.4682 75.3785 16.4453C75.2872 16.4225 75.1008 16.3806 74.8192 16.3198C74.2408 16.198 73.7005 16.0534 73.1982 15.886C72.7035 15.7109 72.2127 15.4902 71.7256 15.2239C71.2462 14.9499 70.8352 14.6493 70.4928 14.3221C70.1579 13.9872 69.8878 13.5839 69.6823 13.1121C69.4768 12.6402 69.3741 12.1303 69.3741 11.5824C69.3741 10.243 69.9068 9.15854 70.9722 8.32903C72.0453 7.49952 73.4265 7.08476 75.116 7.08476C76.2271 7.08476 77.243 7.2674 78.1639 7.63269C79.0923 7.99798 79.8457 8.49265 80.4241 9.11669L79.3967 10.7148C78.9553 10.2278 78.3427 9.82063 77.5589 9.49339C76.7826 9.16615 75.9607 9.00253 75.0932 9.00253C74.0734 9.00253 73.2287 9.23845 72.559 9.71028C71.8969 10.1745 71.5658 10.7719 71.5658 11.5025C71.5658 12.8267 72.8519 13.7551 75.4242 14.2878C75.7058 14.3411 75.9759 14.402 76.2347 14.4705C76.501 14.539 76.8359 14.6417 77.2392 14.7787C77.6502 14.9157 78.0231 15.0679 78.3579 15.2353C78.7004 15.3951 79.0505 15.6044 79.4081 15.8631C79.7734 16.1219 80.0817 16.4035 80.3328 16.7079C80.5839 17.0047 80.7894 17.3624 80.9492 17.7809C81.1166 18.1995 81.2004 18.6485 81.2004 19.1279C81.2004 20.4902 80.6258 21.6089 79.4766 22.484C78.3351 23.3516 76.9082 23.7854 75.1959 23.7854ZM90.2185 11.297C91.9232 11.297 93.3463 11.8944 94.4878 13.0892C95.6293 14.284 96.2001 15.768 96.2001 17.5412C96.2001 19.3144 95.6293 20.7984 94.4878 21.9932C93.3463 23.188 91.9232 23.7854 90.2185 23.7854C89.2444 23.7854 88.3578 23.5723 87.5587 23.1461C86.7596 22.7123 86.1051 22.1149 85.5953 21.3539V27.9406H83.5862V11.5824H85.5953V13.7285C86.1051 12.9675 86.7596 12.3739 87.5587 11.9477C88.3578 11.5139 89.2444 11.297 90.2185 11.297ZM89.8418 21.8448C91.067 21.8448 92.0868 21.4338 92.9011 20.6119C93.7154 19.79 94.1225 18.7664 94.1225 17.5412C94.1225 16.316 93.7154 15.2924 92.9011 14.4705C92.0868 13.6486 91.067 13.2376 89.8418 13.2376C88.6241 13.2376 87.612 13.6486 86.8053 14.4705C85.9986 15.2924 85.5953 16.316 85.5953 17.5412C85.5953 18.7664 85.9986 19.79 86.8053 20.6119C87.612 21.4338 88.6241 21.8448 89.8418 21.8448ZM108.746 11.5824H110.755V23.5H108.746V21.3539C108.236 22.1149 107.577 22.7123 106.771 23.1461C105.972 23.5723 105.085 23.7854 104.111 23.7854C102.992 23.7854 101.976 23.5152 101.063 22.9749C100.15 22.427 99.4344 21.6774 98.9169 20.7261C98.4071 19.7672 98.1521 18.7056 98.1521 17.5412C98.1521 16.3768 98.4071 15.319 98.9169 14.3677C99.4344 13.4089 100.15 12.6592 101.063 12.1189C101.976 11.571 102.992 11.297 104.111 11.297C105.085 11.297 105.972 11.5139 106.771 11.9477C107.577 12.3739 108.236 12.9675 108.746 13.7285V11.5824ZM104.488 21.8448C105.705 21.8448 106.717 21.4338 107.524 20.6119C108.338 19.79 108.746 18.7664 108.746 17.5412C108.746 16.316 108.338 15.2924 107.524 14.4705C106.717 13.6486 105.705 13.2376 104.488 13.2376C103.262 13.2376 102.243 13.6486 101.428 14.4705C100.614 15.2924 100.207 16.316 100.207 17.5412C100.207 18.7664 100.614 19.79 101.428 20.6119C102.243 21.4338 103.262 21.8448 104.488 21.8448ZM119.761 23.7854C118.574 23.7854 117.493 23.5152 116.519 22.9749C115.545 22.427 114.78 21.6774 114.225 20.7261C113.677 19.7672 113.403 18.7056 113.403 17.5412C113.403 16.3768 113.677 15.319 114.225 14.3677C114.78 13.4089 115.545 12.6592 116.519 12.1189C117.493 11.571 118.574 11.297 119.761 11.297C120.933 11.297 121.999 11.5672 122.958 12.1075C123.917 12.6402 124.666 13.367 125.206 14.2878L123.46 15.338C123.095 14.6912 122.585 14.1813 121.93 13.8084C121.276 13.4279 120.553 13.2376 119.761 13.2376C118.536 13.2376 117.516 13.6486 116.702 14.4705C115.888 15.2924 115.481 16.316 115.481 17.5412C115.481 18.7664 115.888 19.79 116.702 20.6119C117.516 21.4338 118.536 21.8448 119.761 21.8448C120.553 21.8448 121.276 21.6545 121.93 21.274C122.585 20.8935 123.095 20.3798 123.46 19.7329L125.206 20.7832C124.666 21.7116 123.913 22.446 122.946 22.9863C121.987 23.519 120.926 23.7854 119.761 23.7854ZM139.247 17.5412C139.247 17.6554 139.228 17.9522 139.19 18.4316H128.928C129.133 19.4818 129.632 20.3303 130.423 20.9772C131.222 21.6165 132.196 21.9361 133.346 21.9361C134.198 21.9361 134.982 21.7573 135.697 21.3996C136.412 21.0343 136.972 20.5663 137.375 19.9955L138.756 21.1827C138.155 21.9894 137.375 22.6248 136.416 23.089C135.465 23.5533 134.419 23.7854 133.277 23.7854C131.413 23.7854 129.86 23.1842 128.62 21.9818C127.379 20.7793 126.759 19.2839 126.759 17.4955C126.759 16.3388 127.029 15.2886 127.569 14.3449C128.117 13.3936 128.871 12.6478 129.83 12.1075C130.789 11.5672 131.854 11.297 133.026 11.297C134.19 11.297 135.248 11.5672 136.199 12.1075C137.151 12.6478 137.896 13.3974 138.437 14.3563C138.977 15.3076 139.247 16.3692 139.247 17.5412ZM133.003 13.1463C131.968 13.1463 131.074 13.4697 130.321 14.1166C129.567 14.7559 129.095 15.5854 128.905 16.6051H137.113C136.922 15.5702 136.451 14.7368 135.697 14.1052C134.944 13.4659 134.046 13.1463 133.003 13.1463Z" fill="#6B6B6B"/>
</svg>
