<svg width="20" height="20" viewBox="0 0 20 20" fill="none" xmlns="http://www.w3.org/2000/svg">
<path d="M6.5625 7.8125C6.5625 7.56386 6.66127 7.3254 6.83709 7.14959C7.0129 6.97377 7.25136 6.875 7.5 6.875H12.5C12.7486 6.875 12.9871 6.97377 13.1629 7.14959C13.3387 7.3254 13.4375 7.56386 13.4375 7.8125C13.4375 8.06114 13.3387 8.2996 13.1629 8.47541C12.9871 8.65123 12.7486 8.75 12.5 8.75H7.5C7.25136 8.75 7.0129 8.65123 6.83709 8.47541C6.66127 8.2996 6.5625 8.06114 6.5625 7.8125ZM7.5 11.875H12.5C12.7486 11.875 12.9871 11.7762 13.1629 11.6004C13.3387 11.4246 13.4375 11.1861 13.4375 10.9375C13.4375 10.6889 13.3387 10.4504 13.1629 10.2746C12.9871 10.0988 12.7486 10 12.5 10H7.5C7.25136 10 7.0129 10.0988 6.83709 10.2746C6.66127 10.4504 6.5625 10.6889 6.5625 10.9375C6.5625 11.1861 6.66127 11.4246 6.83709 11.6004C7.0129 11.7762 7.25136 11.875 7.5 11.875ZM18.4375 4.375V14.375C18.4375 14.7894 18.2729 15.1868 17.9799 15.4799C17.6868 15.7729 17.2894 15.9375 16.875 15.9375H12.3352L11.357 17.65C11.2204 17.8894 11.0229 18.0883 10.7846 18.2267C10.5463 18.3651 10.2756 18.438 10 18.438C9.72441 18.438 9.45372 18.3651 9.21539 18.2267C8.97706 18.0883 8.77958 17.8894 8.64297 17.65L7.66484 15.9375H3.125C2.7106 15.9375 2.31317 15.7729 2.02015 15.4799C1.72712 15.1868 1.5625 14.7894 1.5625 14.375V4.375C1.5625 3.9606 1.72712 3.56317 2.02015 3.27015C2.31317 2.97712 2.7106 2.8125 3.125 2.8125H16.875C17.2894 2.8125 17.6868 2.97712 17.9799 3.27015C18.2729 3.56317 18.4375 3.9606 18.4375 4.375ZM16.5625 4.6875H3.4375V14.0625H8.20859C8.37391 14.0625 8.53628 14.1062 8.67925 14.1892C8.82221 14.2723 8.94069 14.3916 9.02266 14.5352L10 16.2453L10.9773 14.5352C11.0593 14.3916 11.1778 14.2723 11.3208 14.1892C11.4637 14.1062 11.6261 14.0625 11.7914 14.0625H16.5625V4.6875Z" fill="#6B6B6B"/>
</svg>
