<svg width="20" height="19" viewBox="0 0 20 19" fill="none" xmlns="http://www.w3.org/2000/svg">
<path d="M17.5 0.125H2.5C2.00272 0.125 1.52581 0.322544 1.17417 0.674175C0.822544 1.02581 0.625 1.50272 0.625 2V17C0.625 17.4973 0.822544 17.9742 1.17417 18.3258C1.52581 18.6775 2.00272 18.875 2.5 18.875H17.5C17.9973 18.875 18.4742 18.6775 18.8258 18.3258C19.1775 17.9742 19.375 17.4973 19.375 17V2C19.375 1.50272 19.1775 1.02581 18.8258 0.674175C18.4742 0.322544 17.9973 0.125 17.5 0.125ZM17.125 16.625H2.875V2.375H17.125V16.625ZM5.125 9.5C5.125 9.20163 5.24353 8.91548 5.4545 8.7045C5.66548 8.49353 5.95163 8.375 6.25 8.375H13.75C14.0484 8.375 14.3345 8.49353 14.5455 8.7045C14.7565 8.91548 14.875 9.20163 14.875 9.5C14.875 9.79837 14.7565 10.0845 14.5455 10.2955C14.3345 10.5065 14.0484 10.625 13.75 10.625H6.25C5.95163 10.625 5.66548 10.5065 5.4545 10.2955C5.24353 10.0845 5.125 9.79837 5.125 9.5Z" fill="#8C8C8C"/>
</svg>
