<svg width="12" height="12" viewBox="0 0 12 12" fill="none" xmlns="http://www.w3.org/2000/svg">
<path d="M4.3125 4.3125C4.3125 4.16332 4.37176 4.02024 4.47725 3.91475C4.58274 3.80926 4.72582 3.75 4.875 3.75H7.6875C7.83668 3.75 7.97976 3.80926 8.08525 3.91475C8.19074 4.02024 8.25 4.16332 8.25 4.3125C8.25 4.46168 8.19074 4.60476 8.08525 4.71025C7.97976 4.81574 7.83668 4.875 7.6875 4.875H4.875C4.72582 4.875 4.58274 4.81574 4.47725 4.71025C4.37176 4.60476 4.3125 4.46168 4.3125 4.3125ZM4.875 6.75H7.6875C7.83668 6.75 7.97976 6.69074 8.08525 6.58525C8.19074 6.47976 8.25 6.33668 8.25 6.1875C8.25 6.03832 8.19074 5.89524 8.08525 5.78975C7.97976 5.68426 7.83668 5.625 7.6875 5.625H4.875C4.72582 5.625 4.58274 5.68426 4.47725 5.78975C4.37176 5.89524 4.3125 6.03832 4.3125 6.1875C4.3125 6.33668 4.37176 6.47976 4.47725 6.58525C4.58274 6.69074 4.72582 6.75 4.875 6.75ZM11.0625 9C11.0625 9.44755 10.8847 9.87677 10.5682 10.1932C10.2518 10.5097 9.82255 10.6875 9.375 10.6875H4.125C3.67745 10.6875 3.24822 10.5097 2.93176 10.1932C2.61529 9.87677 2.4375 9.44755 2.4375 9V3C2.4375 2.85082 2.37824 2.70774 2.27275 2.60225C2.16726 2.49676 2.02418 2.4375 1.875 2.4375C1.72582 2.4375 1.58274 2.49676 1.47725 2.60225C1.37176 2.70774 1.3125 2.85082 1.3125 3C1.3125 3.17484 1.46953 3.30516 1.47094 3.30656L1.4625 3.3C1.5244 3.3432 1.57698 3.39841 1.6171 3.46236C1.65721 3.5263 1.68405 3.59766 1.696 3.6722C1.70796 3.74673 1.70479 3.82291 1.68669 3.89619C1.66859 3.96947 1.63592 4.03836 1.59063 4.09875C1.54535 4.15915 1.48837 4.2098 1.42309 4.24771C1.35781 4.28562 1.28558 4.31 1.21068 4.31941C1.13578 4.32881 1.05976 4.32305 0.987135 4.30245C0.914513 4.28185 0.846779 4.24685 0.787969 4.19953C0.726094 4.15406 0.1875 3.72891 0.1875 3C0.1875 2.55245 0.36529 2.12322 0.681757 1.80676C0.998225 1.49029 1.42745 1.3125 1.875 1.3125H8.25C8.69755 1.3125 9.12677 1.49029 9.44324 1.80676C9.75971 2.12322 9.9375 2.55245 9.9375 3V7.6875H10.125C10.2467 7.6875 10.3651 7.72697 10.4625 7.8C10.5239 7.84594 11.0625 8.27109 11.0625 9ZM4.34156 8.07187C4.37893 7.95995 4.45054 7.86261 4.54627 7.79363C4.64201 7.72465 4.75701 7.68752 4.875 7.6875H8.8125V3C8.8125 2.85082 8.75324 2.70774 8.64775 2.60225C8.54226 2.49676 8.39918 2.4375 8.25 2.4375H3.46594C3.52994 2.61813 3.56259 2.80837 3.5625 3V9C3.5625 9.14918 3.62176 9.29226 3.72725 9.39775C3.83274 9.50324 3.97582 9.5625 4.125 9.5625C4.27418 9.5625 4.41726 9.50324 4.52275 9.39775C4.62824 9.29226 4.6875 9.14918 4.6875 9C4.6875 8.83219 4.53891 8.70094 4.5375 8.7C4.44304 8.62912 4.37328 8.53031 4.33811 8.41757C4.30294 8.30484 4.30415 8.18389 4.34156 8.07187ZM9.9375 9C9.93584 8.93333 9.91572 8.86842 9.87937 8.8125H5.80125C5.80944 8.87466 5.81352 8.9373 5.81344 9C5.81357 9.19164 5.78091 9.38188 5.71688 9.5625H9.375C9.52418 9.5625 9.66726 9.50324 9.77275 9.39775C9.87824 9.29226 9.9375 9.14918 9.9375 9Z" fill="#D32F2F"/>
</svg>
