<svg width="14" height="14" viewBox="0 0 14 14" fill="none" xmlns="http://www.w3.org/2000/svg">
<path d="M13.0806 9.37062C12.5381 8.4375 12.25 7.09812 12.25 5.5C12.25 4.10761 11.6969 2.77226 10.7123 1.78769C9.72776 0.803123 8.3924 0.25 7.00002 0.25C5.60763 0.25 4.27227 0.803123 3.28771 1.78769C2.30314 2.77226 1.75002 4.10761 1.75002 5.5C1.75002 7.09875 1.46314 8.4375 0.920642 9.37062C0.809943 9.56095 0.751264 9.77705 0.750496 9.99723C0.749728 10.2174 0.806899 10.4339 0.916267 10.625C1.02494 10.8162 1.18268 10.9749 1.3732 11.0848C1.56371 11.1947 1.7801 11.2517 2.00002 11.25H4.26127C4.32328 11.9335 4.63865 12.5691 5.14541 13.032C5.65217 13.4949 6.31369 13.7515 7.00002 13.7515C7.68635 13.7515 8.34787 13.4949 8.85463 13.032C9.36138 12.5691 9.67675 11.9335 9.73877 11.25H12C12.2196 11.2514 12.4356 11.1942 12.6258 11.0843C12.8159 10.9745 12.9734 10.8159 13.0819 10.625C13.1917 10.4342 13.2494 10.2178 13.2492 9.99765C13.249 9.77747 13.1909 9.56122 13.0806 9.37062ZM7.00002 12.25C6.71185 12.2501 6.43252 12.1506 6.20929 11.9683C5.98606 11.7861 5.83265 11.5323 5.77502 11.25H8.22502C8.16739 11.5323 8.01397 11.7861 7.79074 11.9683C7.56751 12.1506 7.28818 12.2501 7.00002 12.25ZM2.41627 9.75C2.96939 8.625 3.25002 7.19625 3.25002 5.5C3.25002 4.50544 3.64511 3.55161 4.34837 2.84835C5.05163 2.14509 6.00546 1.75 7.00002 1.75C7.99458 1.75 8.94841 2.14509 9.65167 2.84835C10.3549 3.55161 10.75 4.50544 10.75 5.5C10.75 7.19562 11.03 8.625 11.5831 9.75H2.41627Z" fill="#6B6B6B"/>
</svg>
