<svg width="17" height="17" viewBox="0 0 17 17" fill="none" xmlns="http://www.w3.org/2000/svg">
<path d="M0.625 16.375V12.6562L12.175 1.12813C12.35 0.967708 12.5434 0.84375 12.7551 0.75625C12.9669 0.66875 13.1891 0.625 13.4219 0.625C13.6546 0.625 13.8807 0.66875 14.1 0.75625C14.3193 0.84375 14.5089 0.975 14.6687 1.15L15.8719 2.375C16.0469 2.53542 16.1746 2.725 16.2551 2.94375C16.3356 3.1625 16.3756 3.38125 16.375 3.6C16.375 3.83333 16.335 4.05588 16.2551 4.26763C16.1752 4.47938 16.0475 4.67246 15.8719 4.84687L4.34375 16.375H0.625ZM13.4 4.825L14.625 3.6L13.4 2.375L12.175 3.6L13.4 4.825Z" fill="#545454"/>
</svg>
