<svg width="21" height="21" viewBox="0 0 21 21" fill="none" xmlns="http://www.w3.org/2000/svg">
<path d="M19.25 13.2624L14.8353 11.2843L14.8184 11.2768C14.5317 11.1525 14.2182 11.1023 13.907 11.1308C13.5957 11.1593 13.2966 11.2656 13.0372 11.4399C13.0008 11.4643 12.9658 11.4906 12.9322 11.5187L10.8406 13.2999C9.62188 12.639 8.36282 11.3902 7.70094 10.1865L9.48782 8.0621C9.51676 8.02798 9.54338 7.99196 9.56751 7.95428C9.73699 7.69568 9.83989 7.39917 9.86704 7.09117C9.89419 6.78317 9.84476 6.47324 9.72313 6.18897C9.72024 6.18353 9.71774 6.17789 9.71563 6.1721L7.73751 1.74991C7.57526 1.37999 7.29816 1.07218 6.94727 0.872087C6.59638 0.671989 6.19037 0.590247 5.78938 0.638972C4.42848 0.817747 3.17918 1.48579 2.27482 2.51834C1.37046 3.55088 0.87288 4.87732 0.875007 6.24991C0.875007 13.9008 7.09907 20.1249 14.75 20.1249C16.1226 20.127 17.449 19.6295 18.4816 18.7251C19.5141 17.8207 20.1822 16.5714 20.3609 15.2105C20.4095 14.8096 20.3277 14.4036 20.1276 14.0528C19.9275 13.7019 19.6198 13.4248 19.25 13.2624ZM14.75 17.8749C11.668 17.8712 8.7133 16.6452 6.534 14.4659C4.3547 12.2866 3.12873 9.33191 3.12501 6.24991C3.12273 5.47326 3.38639 4.71923 3.87215 4.11323C4.3579 3.50723 5.03647 3.08578 5.79501 2.91897L7.55938 6.85647L5.76313 8.99397C5.73388 9.02807 5.70695 9.06409 5.68251 9.10178C5.50512 9.37252 5.40084 9.68456 5.37981 10.0075C5.35878 10.3305 5.42172 10.6535 5.56251 10.9449C6.44563 12.7524 8.26532 14.5599 10.0916 15.4449C10.3847 15.5839 10.7089 15.6444 11.0325 15.6206C11.356 15.5968 11.6679 15.4894 11.9375 15.309C11.9738 15.2845 12.0085 15.2579 12.0416 15.2293L14.1444 13.4415L18.0819 15.2049C17.9147 15.9634 17.493 16.6419 16.8869 17.1276C16.2808 17.6134 15.5267 17.8771 14.75 17.8749ZM11.375 3.99991C11.375 3.70154 11.4935 3.41539 11.7045 3.20441C11.9155 2.99344 12.2016 2.87491 12.5 2.87491H18.5C18.7984 2.87491 19.0845 2.99344 19.2955 3.20441C19.5065 3.41539 19.625 3.70154 19.625 3.99991C19.625 4.29828 19.5065 4.58443 19.2955 4.7954C19.0845 5.00638 18.7984 5.12491 18.5 5.12491H12.5C12.2016 5.12491 11.9155 5.00638 11.7045 4.7954C11.4935 4.58443 11.375 4.29828 11.375 3.99991ZM11.375 7.74991C11.375 7.45154 11.4935 7.16539 11.7045 6.95441C11.9155 6.74344 12.2016 6.62491 12.5 6.62491H18.5C18.7984 6.62491 19.0845 6.74344 19.2955 6.95441C19.5065 7.16539 19.625 7.45154 19.625 7.74991C19.625 8.04828 19.5065 8.33443 19.2955 8.5454C19.0845 8.75638 18.7984 8.87491 18.5 8.87491H12.5C12.2016 8.87491 11.9155 8.75638 11.7045 8.5454C11.4935 8.33443 11.375 8.04828 11.375 7.74991Z" fill="#6B6B6B"/>
</svg>
