<svg width="20" height="19" viewBox="0 0 20 19" fill="none" xmlns="http://www.w3.org/2000/svg">
<path d="M17.5 0.125H2.5C2.00272 0.125 1.52581 0.322544 1.17417 0.674175C0.822544 1.02581 0.625 1.50272 0.625 2V17C0.625 17.4973 0.822544 17.9742 1.17417 18.3258C1.52581 18.6775 2.00272 18.875 2.5 18.875H17.5C17.9973 18.875 18.4742 18.6775 18.8258 18.3258C19.1775 17.9742 19.375 17.4973 19.375 17V2C19.375 1.50272 19.1775 1.02581 18.8258 0.674175C18.4742 0.322544 17.9973 0.125 17.5 0.125ZM17.125 16.625H2.875V2.375H17.125V16.625ZM5.125 9.5C5.125 9.20163 5.24353 8.91548 5.4545 8.7045C5.66548 8.49353 5.95163 8.375 6.25 8.375H8.875V5.75C8.875 5.45163 8.99353 5.16548 9.2045 4.9545C9.41548 4.74353 9.70163 4.625 10 4.625C10.2984 4.625 10.5845 4.74353 10.7955 4.9545C11.0065 5.16548 11.125 5.45163 11.125 5.75V8.375H13.75C14.0484 8.375 14.3345 8.49353 14.5455 8.7045C14.7565 8.91548 14.875 9.20163 14.875 9.5C14.875 9.79837 14.7565 10.0845 14.5455 10.2955C14.3345 10.5065 14.0484 10.625 13.75 10.625H11.125V13.25C11.125 13.5484 11.0065 13.8345 10.7955 14.0455C10.5845 14.2565 10.2984 14.375 10 14.375C9.70163 14.375 9.41548 14.2565 9.2045 14.0455C8.99353 13.8345 8.875 13.5484 8.875 13.25V10.625H6.25C5.95163 10.625 5.66548 10.5065 5.4545 10.2955C5.24353 10.0845 5.125 9.79837 5.125 9.5Z" fill="#DD5928"/>
</svg>
