<svg width="14" height="14" viewBox="0 0 14 14" fill="none" xmlns="http://www.w3.org/2000/svg">
<path d="M13.5307 12.4693L10.5625 9.49991C11.4525 8.34021 11.868 6.88541 11.7247 5.43063C11.5815 3.97585 10.8902 2.63002 9.79119 1.66616C8.69215 0.702295 7.26764 0.192572 5.8066 0.240389C4.34557 0.288205 2.95742 0.88998 1.92376 1.92364C0.890102 2.9573 0.288327 4.34544 0.240511 5.80648C0.192694 7.26751 0.702417 8.69203 1.66628 9.79107C2.63014 10.8901 3.97597 11.5814 5.43075 11.7246C6.88553 11.8678 8.34033 11.4524 9.50004 10.5624L12.4707 13.5337C12.5404 13.6034 12.6232 13.6588 12.7144 13.6965C12.8056 13.7343 12.9032 13.7537 13.0019 13.7537C13.1006 13.7537 13.1983 13.7343 13.2894 13.6965C13.3806 13.6588 13.4634 13.6034 13.5332 13.5337C13.6029 13.4639 13.6583 13.3811 13.696 13.2899C13.7338 13.1988 13.7532 13.1011 13.7532 13.0024C13.7532 12.9038 13.7338 12.8061 13.696 12.7149C13.6583 12.6238 13.6029 12.5409 13.5332 12.4712L13.5307 12.4693ZM1.75004 5.99991C1.75004 5.15934 1.99929 4.33765 2.46629 3.63874C2.93329 2.93983 3.59705 2.3951 4.37363 2.07343C5.15022 1.75175 6.00475 1.66759 6.82917 1.83158C7.65359 1.99556 8.41087 2.40034 9.00524 2.99471C9.59961 3.58908 10.0044 4.34636 10.1684 5.17078C10.3324 5.9952 10.2482 6.84973 9.92652 7.62632C9.60485 8.40291 9.06012 9.06666 8.36121 9.53366C7.6623 10.0007 6.84061 10.2499 6.00004 10.2499C4.87322 10.2488 3.79289 9.80062 2.99611 9.00384C2.19933 8.20706 1.75119 7.12673 1.75004 5.99991Z" fill="#8C8C8C"/>
</svg>
