<svg width="501" height="500" viewBox="0 0 501 500" fill="none" xmlns="http://www.w3.org/2000/svg">
<path d="M399.9 230.2V399.3H87.7002V230.2L243.8 135.9L399.9 230.2Z" fill="#D1D3D4"/>
<path d="M399.9 400H87.7C87.3 400 87 399.7 87 399.3V230.2C87 230 87.1 229.7 87.3 229.6L243.4 135.2C243.6 135.1 243.9 135.1 244.1 135.2L400.2 229.6C400.4 229.7 400.5 230 400.5 230.2V399.3C400.6 399.7 400.3 400 399.9 400ZM88.4 398.6H399.2V230.6L243.8 136.7L88.4 230.7V398.6Z" fill="#231F20"/>
<path d="M311.6 159.9C311.6 159.9 318.8 146.4 317.9 137.4C317 128.4 308.1 126.9 308.1 126.9C308.1 126.9 286.7 115.8 281.8 108.1L282 119.4C282 119.4 277.4 118.2 271.5 113.2C271.5 113.2 268.2 119 271.7 124.1C271.7 124.1 265.4 125.3 261.3 121.2C261.3 121.2 263.4 138.1 278.4 140.3C288.1 141.6 300.9 160.5 311.6 159.9Z" fill="white"/>
<path d="M311 160.6C305.1 160.6 298.8 155.3 292.6 150.1C287.4 145.7 282.4 141.5 278.1 140.9C262.8 138.7 260.4 121.3 260.4 121.2C260.4 120.9 260.5 120.6 260.8 120.5C261.1 120.4 261.4 120.4 261.6 120.6C264.5 123.5 268.5 123.6 270.4 123.5C267.6 118.4 270.6 113.1 270.7 112.8C270.8 112.6 271 112.5 271.2 112.5C271.4 112.5 271.6 112.5 271.8 112.7C274.6 115.1 277.8 117 281.2 118.4L281.1 108.1C281.1 107.7 281.4 107.4 281.8 107.4C282 107.4 282.3 107.5 282.4 107.7C287 114.9 306.9 125.5 308.4 126.3C309.5 126.5 317.7 128.6 318.6 137.4C319.6 146.5 312.6 159.7 312.2 160.3C312.1 160.5 311.9 160.7 311.6 160.7L311 160.6ZM262.3 122.9C263.4 127.3 267.1 137.9 278.4 139.5C283.1 140.2 288.2 144.5 293.6 149C299.6 154 305.7 159.1 311.1 159.1H311.2C312.3 156.9 318 145.3 317.2 137.4C316.3 129 308.1 127.5 308 127.5C307.9 127.5 307.9 127.5 307.8 127.4C307 127 289.1 117.6 282.5 110.1L282.6 119.3C282.6 119.7 282.3 120 281.9 120C281.8 120 281.8 120 281.7 120C281.5 120 277.2 118.8 271.6 114.3C270.9 115.9 269.6 120 272.2 123.7C272.4 124 272.3 124.5 272 124.7C271.9 124.8 271.8 124.8 271.7 124.8C268.5 125.2 265.1 124.6 262.3 122.9Z" fill="#231F20"/>
<path d="M300.5 299.3C300.5 299.3 335 257.6 340.7 225.7C346.4 193.8 326.5 186.4 319.5 184.1C312.5 181.8 276.4 166.7 258.2 179.8C240 192.9 221.9 274.6 221.9 274.6L300.5 299.3Z" fill="#DD5928"/>
<path d="M176.2 340.8L213.3 294.6C213.3 294.6 239.1 261.7 224.7 258.3C224.7 258.3 204.7 260.9 172.1 272.3C162.4 275.7 145.7 314.2 135.2 340.9L176.2 340.8Z" fill="#231F20"/>
<path d="M176.2 341.5H135.1C134.7 341.5 134.4 341.2 134.4 340.8C134.4 340.7 134.4 340.6 134.5 340.5C146.2 310.9 162.1 274.8 171.8 271.5C204.2 260.2 224.4 257.5 224.6 257.5C224.7 257.5 224.8 257.5 224.8 257.5C226.9 257.9 228.6 259.3 229.3 261.3C232.6 270.8 214.6 294 213.8 294.9L176.7 341.2C176.6 341.4 176.4 341.5 176.2 341.5ZM136.1 340.1H175.9L212.7 294.1C212.9 293.9 231 270.6 228 261.8C227.5 260.3 226.2 259.2 224.6 258.9C222.8 259.1 203.1 262.1 172.2 272.8C165.1 275.3 152.3 299.2 136.1 340.1Z" fill="#231F20"/>
<path d="M238.3 340.8L247.7 317.9C247.7 317.9 270.7 324.8 286 319C296.8 314.9 300.1 301 305 289.7C305 289.7 240.6 274.4 226.2 268.2C226.2 268.2 225.3 268.2 208.8 285.5C201.4 293.3 195.6 316.9 191.3 340.8H238.3Z" fill="#231F20"/>
<path d="M238.3 341.5H191.3C191.1 341.5 190.9 341.4 190.8 341.3C190.7 341.1 190.6 340.9 190.7 340.7C196.1 310.5 202 291.7 208.3 285.1C225 267.5 225.9 267.6 226.2 267.6C226.3 267.6 226.4 267.6 226.4 267.7C240.6 273.8 304.4 289 305.1 289.1C305.3 289.1 305.5 289.3 305.6 289.5C305.7 289.7 305.7 289.9 305.6 290.1C304.7 292.2 303.8 294.4 303 296.6C299.2 306.3 295.3 316.3 286.3 319.7C272.2 325 252 319.8 248.2 318.8L239 341.2C238.8 341.4 238.6 341.5 238.3 341.5ZM192.2 340.1H237.9L247.1 317.6C247.2 317.3 247.6 317.1 248 317.2C248.2 317.3 270.9 323.9 285.8 318.3C294.3 315.1 298.1 305.4 301.7 295.9C302.4 294 303.2 292 304 290.1C296.6 288.3 240.3 274.8 226.3 268.9C225.5 269.5 222.2 272.4 209.4 285.9C203.3 292.4 197.4 311.1 192.2 340.1Z" fill="#231F20"/>
<path d="M258.2 179.8C258.2 179.8 242.9 196.6 234.2 205C225.5 213.4 208.8 224.3 208.8 224.3C208.8 224.3 158.5 228.3 158 229.1C157.5 229.9 158 246.6 158 246.6C158 246.6 207.1 256 216.1 254.4C225.1 252.8 246.2 238.6 246.2 238.6L258.2 179.8Z" fill="#DD5928"/>
<path d="M279.6 171.5L278.1 187.3C278.1 187.3 281 196.4 291.6 194.7C302.2 193 304.2 185.8 304.2 185.8L311.1 154.9C311.1 154.9 304.7 150.3 298.7 132.2C298.7 132.2 276.4 128 275.6 136.6C275.6 136.6 271.2 152 271.5 160.1C271.8 168.1 279.4 171.4 279.6 171.5Z" fill="white"/>
<path d="M289 195.6C283.8 195.6 279.1 192.4 277.3 187.5C277.3 187.4 277.3 187.3 277.3 187.2L278.8 171.9C273.8 169.2 270.9 165 270.7 160.2C270.4 152 274.6 137.1 274.8 136.4C274.9 135 275.7 133.7 276.9 132.8C282.6 128.5 298 131.4 298.7 131.5C298.9 131.5 299.2 131.7 299.2 132C305.1 149.5 311.3 154.3 311.4 154.3C311.6 154.5 311.7 154.7 311.7 155L304.8 185.9C304.7 186.3 302.6 193.7 291.6 195.4C290.8 195.5 289.9 195.6 289 195.6ZM278.7 187.2C279.1 188.3 282 195.4 291.3 194C301.3 192.5 303.3 185.9 303.3 185.6L310.1 155.2C308.6 153.9 303.2 148.4 297.9 132.9C295.4 132.5 282.3 130.5 277.6 134C276.7 134.6 276.1 135.6 276 136.7C275.9 137 271.6 152.2 271.9 160.1C272.1 166.1 276.8 169.3 279.5 170.7C279.6 170.8 279.7 170.8 279.8 170.9C280 171 280 171.3 280 171.5L278.7 187.2Z" fill="#231F20"/>
<path d="M303.4 155.4C303.9 154 304.8 152.8 306 152C307.7 150.9 310.3 149.9 312.4 150.4C315 151.1 316.3 154.3 315.8 156.9C315.1 160.1 312.8 162.7 309.7 163.8C307.6 164.4 305.3 164.2 303.4 163.1" fill="white"/>
<path d="M307.2 164.9C305.7 164.9 304.2 164.5 302.9 163.8C302.6 163.6 302.4 163.2 302.6 162.9C302.8 162.6 303.2 162.4 303.6 162.6C305.4 163.6 307.5 163.8 309.4 163.2C312.3 162.2 314.4 159.8 315 156.8C315.5 154.6 314.4 151.7 312.1 151.1C310.3 150.6 307.9 151.5 306.3 152.6C305.2 153.3 304.4 154.4 304 155.7C303.9 156.1 303.5 156.3 303.1 156.1C302.7 156 302.5 155.6 302.7 155.2C303.2 153.7 304.2 152.3 305.6 151.4C307.3 150.2 310.2 149.1 312.6 149.7C315.6 150.5 317.1 154.2 316.5 157C315.7 160.5 313.2 163.3 309.9 164.5C308.9 164.8 308.1 164.9 307.2 164.9Z" fill="#231F20"/>
<path d="M287.7 147.7C287.7 147.7 281.3 155.1 282.4 156.7C283.5 158.3 287.2 157.8 287.2 157.8" fill="white"/>
<path d="M286 158.5C284.7 158.5 282.8 158.3 281.9 157.1C280.7 155.3 284.7 150.2 287.2 147.2C287.5 146.9 287.9 146.9 288.2 147.1C288.5 147.4 288.5 147.8 288.3 148.1C285.2 151.7 282.8 155.5 283.1 156.2C283.7 157.1 286 157.1 287.3 157C287.7 157 288 157.2 288.1 157.6C288.1 158 287.9 158.3 287.5 158.4C286.9 158.5 286.4 158.5 286 158.5Z" fill="#231F20"/>
<path d="M299.434 146.693C299.602 145.657 299.119 144.717 298.356 144.594C297.592 144.47 296.838 145.21 296.67 146.246C296.503 147.282 296.985 148.221 297.749 148.345C298.512 148.468 299.267 147.729 299.434 146.693Z" fill="#231F20"/>
<path d="M281.867 147.399C282.639 147.372 283.236 146.5 283.2 145.451C283.163 144.402 282.507 143.574 281.735 143.601C280.962 143.628 280.365 144.5 280.401 145.548C280.438 146.597 281.094 147.425 281.867 147.399Z" fill="#231F20"/>
<path d="M279.6 171.5C279.6 171.5 289.2 174.7 295.3 172C295.3 172 287.6 184.6 278.5 182.4L279.6 171.5Z" fill="#231F20"/>
<path d="M280.8 183.3C280 183.3 279.2 183.2 278.4 183C278.1 182.9 277.8 182.6 277.9 182.2L279 171.4C279 171 279.4 170.7 279.8 170.8H279.9C280 170.8 289.3 173.9 295.1 171.3C295.4 171.2 295.7 171.2 295.9 171.5C296.1 171.7 296.1 172.1 296 172.3C295.6 172.8 289.1 183.3 280.8 183.3ZM279.3 181.8C285.6 182.9 291.2 176.5 293.5 173.3C288.5 174.5 282.4 173 280.2 172.4L279.3 181.8Z" fill="#231F20"/>
<path d="M279.7 150.5C279.6 150.5 279.4 150.5 279.2 150.5L274 150.1C270.9 149.9 268.6 147.2 268.9 144.1L269.2 140C269.2 139.6 269.6 139.3 270 139.4L284.9 140.6C285.3 140.6 285.6 141 285.6 141.3L285.3 145.4C285 148.3 282.6 150.5 279.7 150.5ZM270.6 140.7L270.3 144.1C270.2 145.2 270.6 146.3 271.3 147.1C272 147.9 273.1 148.5 274.2 148.6L279.4 149C280.5 149.1 281.6 148.7 282.4 148C283.2 147.3 283.8 146.2 283.9 145.1L284.2 141.7L270.6 140.7Z" fill="#231F20"/>
<path d="M298.3 152C298.2 152 298 152 297.8 152L292.6 151.6C289.5 151.4 287.2 148.7 287.5 145.6L287.8 141.5C287.8 141.1 288.2 140.8 288.6 140.9L303.5 142C303.9 142 304.2 142.4 304.2 142.7L303.9 146.8C303.6 149.7 301.2 151.9 298.3 152ZM297.9 150.6C299 150.7 300.1 150.3 300.9 149.6C301.7 148.9 302.3 147.8 302.4 146.7L302.7 143.3L289.2 142.2L288.9 145.6C288.8 146.7 289.2 147.8 289.9 148.6C290.6 149.4 291.7 150 292.8 150.1L297.9 150.6Z" fill="#231F20"/>
<path d="M288.3 144.8L284.6 144.5C284.2 144.5 283.9 144.1 284 143.7C284 143.3 284.4 143 284.8 143.1L288.4 143.4C288.8 143.5 289 143.8 289 144.2C288.9 144.5 288.6 144.7 288.3 144.8Z" fill="#231F20"/>
<path d="M286 169.4C281.6 169.4 278.1 166 276.8 162.1C276.7 161.9 276.8 161.6 276.9 161.5C277 161.3 277.3 161.2 277.5 161.2C283.5 161.5 289.4 160.6 295 158.5C295.2 158.4 295.5 158.4 295.7 158.6C295.9 158.7 296 159 296 159.2C296 159.5 295.3 167.2 288.5 169.1C287.7 169.3 286.9 169.4 286 169.4ZM278.5 162.6C280 165.7 283.4 169.1 288.1 167.7C292.5 166.5 293.9 162.2 294.4 160.1C289.3 161.9 283.9 162.8 278.5 162.6Z" fill="#231F20"/>
<path d="M337.4 197.1C345.6 200.9 358.8 290.5 344.4 296.4C322 305.7 261.4 274 261.4 274L273.3 250.5C273.3 250.5 314.5 262.8 317.4 254.4C320.3 246 306.1 200 310.9 195C315.7 190 337.4 197.1 337.4 197.1Z" fill="#DD5928"/>
<path d="M275.6 260C268.7 258.4 261.6 256.5 255.2 253.5C250.2 251.1 245.9 248.8 240.3 247.6C233.4 246.1 226.2 245.8 219.2 246.8C218.9 246.8 218.6 246.9 218.4 247.1C217.6 247.8 218.8 249 219.8 249.3C222.5 250.1 225.4 250.5 228.2 250.4C221 251.1 214 252.7 207.2 255.2C206.4 255.5 205.5 256 205.6 256.8C205.7 257.6 207.1 257.8 208 257.7L224.7 254.9C220.4 255.4 216.3 256.6 212.4 258.5C211.8 258.8 211.2 259.2 211.2 259.8C211.1 260.9 212.7 261.1 213.7 260.8C218.8 259.8 223.8 258.3 228.7 256.4L217.6 261C217.4 261.8 217.9 262.6 218.6 262.8C219.4 263 220.2 262.9 220.9 262.6L232.7 259.4L225.1 262.2C223.9 262.6 222.5 263.4 222.7 264.7C222.9 266.2 225 266.3 226.5 266.1C232.4 265.2 238.3 265 244.2 265.4C246.4 265.5 248.5 265.2 250.6 265.8C253.6 266.7 256.6 268.9 259.4 270.3C263.7 272.6 268.1 274.9 272.4 277.2" fill="white"/>
<path d="M272.6 277.9C272.5 277.9 272.4 277.9 272.3 277.8C268 275.5 263.6 273.2 259.3 270.9C258.4 270.4 257.5 269.9 256.6 269.4C254.7 268.2 252.7 267.2 250.6 266.4C249.3 266.1 247.9 266 246.6 266C245.9 266 245.1 266 244.4 266C238.5 265.6 232.6 265.8 226.8 266.6C225.6 266.9 224.3 266.7 223.1 266.1C222.6 265.8 222.3 265.3 222.3 264.7C222.2 263.9 222.5 263.1 223.1 262.6L221.3 263.1C220.4 263.4 219.5 263.5 218.6 263.3C218 263.1 217.5 262.7 217.2 262.1C217 261.7 217 261.1 217.2 260.7C216.1 261 215.1 261.2 214 261.4C213.1 261.6 212.1 261.5 211.2 260.9C210.8 260.6 210.6 260.1 210.7 259.7C210.8 258.6 211.8 258.1 212.3 257.9L213.1 257.5L208.3 258.3C207.4 258.5 206.6 258.4 205.8 257.9C205.5 257.7 205.2 257.3 205.2 256.9C205.1 256.3 205.2 255.3 207.2 254.6C212.2 252.7 217.3 251.4 222.5 250.5C221.6 250.3 220.7 250.1 219.8 249.8C218.8 249.5 218 248.8 217.7 247.8C217.6 247.3 217.8 246.8 218.2 246.5C218.5 246.3 218.9 246.1 219.3 246.1C226.4 245.1 233.6 245.3 240.6 246.9C245.6 248 249.6 249.9 253.9 252L255.7 252.9C262.2 256 269.6 257.9 275.9 259.4C276.2 259.5 276.5 259.8 276.4 260.2C276.3 260.5 276 260.8 275.6 260.7C269.2 259.2 261.7 257.3 255.1 254.1L253.3 253.2C249.1 251.2 245.1 249.3 240.3 248.2C233.4 246.7 226.4 246.4 219.4 247.4C219.2 247.4 219.1 247.5 218.9 247.5C218.9 247.9 219.5 248.4 220.1 248.6C222.8 249.4 225.5 249.8 228.3 249.7C228.7 249.7 228.9 250 228.9 250.4C228.9 250.7 228.7 250.9 228.4 251C221.3 251.7 214.3 253.3 207.6 255.8C207 256 206.4 256.4 206.5 256.7C206.5 256.8 206.6 256.9 206.6 256.9C207.1 257.1 207.6 257.2 208.2 257L221.1 254.8C222.4 254.5 223.6 254.3 224.9 254.2C225.3 254.2 225.5 254.5 225.6 254.8C225.6 255.1 225.4 255.4 225.1 255.4L221.4 256C218.5 256.6 215.7 257.6 213.1 258.9C212.4 259.2 212.3 259.5 212.2 259.6C212.2 259.7 212.2 259.8 212.3 259.8C212.8 260.1 213.4 260.1 214 260C219.1 259 224.1 257.5 228.9 255.6C229.2 255.5 229.6 255.6 229.7 256C229.8 256.4 229.7 256.7 229.3 256.8L218.6 261.2C218.6 261.3 218.6 261.3 218.7 261.4C218.8 261.7 219 261.8 219.3 261.9C220 262 220.7 262 221.3 261.7L233.1 258.5C233.4 258.4 233.8 258.6 233.9 258.9C234 259.2 233.8 259.6 233.5 259.7L225.9 262.5C225.2 262.7 223.7 263.4 223.9 264.3C223.9 264.5 224 264.7 224.2 264.8C225 265.2 226 265.3 226.9 265.1C232.8 264.2 238.7 264 244.7 264.4C245.4 264.4 246.1 264.4 246.8 264.4C248.3 264.3 249.8 264.4 251.2 264.8C253.4 265.6 255.5 266.6 257.4 267.9C258.3 268.4 259.2 268.9 260 269.4C264.3 271.7 268.7 274 273 276.3C273.3 276.5 273.4 276.8 273.3 277.2C273.1 277.7 272.9 277.9 272.6 277.9Z" fill="#231F20"/>
<path d="M260.8 188C257.9 189.7 242.4 224.6 235.6 241.3L260.8 188Z" fill="white"/>
<path d="M235.6 242C235.5 242 235.4 242 235.4 242C235.1 241.9 234.9 241.5 235 241.2C241.1 226 257.1 189.5 260.4 187.6C260.7 187.4 261.1 187.5 261.3 187.8C261.5 188.1 261.4 188.5 261.1 188.7C258.6 190.1 243.8 222.8 236.2 241.7C236.1 241.9 235.9 242 235.6 242Z" fill="#231F20"/>
<path d="M150 255.2L149.1 262.4L239.9 301.5L240.2 294L150 255.2Z" fill="white"/>
<path d="M239.9 302.2C239.8 302.2 239.7 302.2 239.6 302.1L148.9 263C148.6 262.9 148.4 262.6 148.5 262.3L149.3 255.2C149.3 255 149.5 254.8 149.6 254.7C149.8 254.6 150 254.6 150.2 254.7L240.5 293.4C240.8 293.5 240.9 293.8 240.9 294.1L240.6 301.6C240.6 301.9 240.3 302.2 239.9 302.2ZM149.9 261.9L239.3 300.4L239.5 294.4L150.5 256.2L149.9 261.9Z" fill="#231F20"/>
<path d="M150 255.2C150 255.2 176.4 242.5 177.1 242.9C177.8 243.3 271.3 280.7 271.3 280.7L240.2 294L150 255.2Z" fill="white"/>
<path d="M240.2 294.7C240.1 294.7 240 294.7 239.9 294.6L149.6 255.9C149.3 255.8 149.2 255.5 149.2 255.3C149.2 255 149.4 254.8 149.6 254.7C176.4 241.8 177 242.2 177.4 242.4C178.8 243 270.6 279.8 271.5 280.2C271.8 280.3 271.9 280.6 271.9 280.8C271.9 281.1 271.7 281.3 271.5 281.4L240.5 294.6C240.4 294.6 240.3 294.7 240.2 294.7ZM151.6 255.2L240.2 293.2L269.5 280.7C255.1 274.9 181.6 245.5 177 243.6C175.2 244.1 161.2 250.6 151.6 255.2Z" fill="#231F20"/>
<path d="M239.9 301.5L270.1 287.4L271.3 280.7L240.2 294L239.9 301.5Z" fill="white"/>
<path d="M239.9 302.2C239.8 302.2 239.6 302.2 239.5 302.1C239.3 302 239.2 301.7 239.2 301.5L239.4 294.1C239.4 293.8 239.6 293.6 239.8 293.5L270.8 280.2C271 280.1 271.3 280.1 271.5 280.3C271.7 280.5 271.8 280.7 271.8 281L270.6 287.7C270.6 287.9 270.4 288.1 270.2 288.2L240 302.2C240.1 302.1 240 302.2 239.9 302.2ZM240.9 294.5L240.7 300.4L269.5 287L270.4 281.9L240.9 294.5Z" fill="#231F20"/>
<path d="M150 255.2L148.1 189.5L243.1 233.2L240.2 294L150 255.2Z" fill="white"/>
<path d="M240.2 294.7C240.1 294.7 240 294.7 239.9 294.6L149.6 255.9C149.4 255.8 149.2 255.6 149.2 255.3L147.3 189.6C147.3 189.2 147.6 188.9 148 188.9C148.1 188.9 148.2 188.9 148.3 189L243.4 232.6C243.7 232.7 243.8 233 243.8 233.3L240.9 294.1C240.9 294.3 240.8 294.5 240.6 294.7C240.5 294.6 240.4 294.7 240.2 294.7ZM150.6 254.8L239.5 293L242.3 233.7L148.7 190.7L150.6 254.8Z" fill="#231F20"/>
<path d="M290.8 290.6C290.7 290.6 290.6 290.6 290.5 290.5L271.3 281.6C271 281.5 270.8 281.1 270.9 280.8L276.7 256.5C276.8 256.2 277.1 255.9 277.5 256L315.1 262L313.9 202.4C313.9 202 314.2 201.7 314.6 201.7C315 201.7 315.3 202 315.3 202.3L316.5 262.7C316.5 262.9 316.4 263.1 316.3 263.2C316.1 263.3 315.9 263.4 315.7 263.4L277.9 257.4L272.4 280.5L291.1 289.1C291.5 289.3 291.6 289.7 291.5 290C291.3 290.4 291.1 290.6 290.8 290.6Z" fill="#231F20"/>
<path d="M124.3 340.8C121 338.3 117.1 337 114.4 340.8H124.3Z" fill="white"/>
<path d="M124.3 341.5H114.4C114 341.5 113.8 341.2 113.8 340.9C113.8 340.8 113.8 340.7 113.9 340.5C114.8 339.1 116.2 338.2 117.8 337.9C119.8 337.6 122.2 338.4 124.7 340.3C124.9 340.5 125 340.8 124.9 341C124.8 341.3 124.5 341.5 124.3 341.5ZM115.8 340.2H122.2C120.9 339.4 119.5 339.1 118 339.2C117.1 339.3 116.4 339.6 115.8 340.2Z" fill="#231F20"/>
<path d="M195.8 319.8H195.7C195.3 319.7 195.1 319.4 195.1 319C195.2 318.3 198 301.9 203.1 293.5C203.3 293.2 203.8 293.1 204.1 293.3C204.4 293.5 204.5 293.9 204.3 294.2C199.3 302.3 196.5 319 196.5 319.2C196.4 319.6 196.1 319.8 195.8 319.8Z" fill="white"/>
<path d="M282.3 197.8L283.7 202.6L265.9 239.3L271 252.5L282.1 242.9L286.7 202.5L289 200.1L286.6 196L282.3 197.8Z" fill="#231F20"/>
<path d="M399.9 230.2V399.3H87.6997V230.2L243.8 336.5L399.9 230.2Z" fill="white"/>
<path d="M399.9 400H87.7C87.3 400 87 399.7 87 399.3V230.2C87 229.8 87.3 229.5 87.7 229.5C87.8 229.5 88 229.5 88.1 229.6L243.8 335.6L399.5 229.6C399.8 229.4 400.3 229.5 400.5 229.8C400.6 229.9 400.6 230.1 400.6 230.2V399.3C400.6 399.7 400.3 400 399.9 400ZM88.4 398.6H399.2V231.6L244.2 337.2C244 337.4 243.6 337.4 243.4 337.2L88.4 231.6V398.6Z" fill="#231F20"/>
<path d="M87.6997 399.3L243.8 302L399.9 399.3H87.6997Z" fill="white"/>
<path d="M399.9 400H87.6999C87.3999 400 87.0999 399.8 86.9999 399.5C86.8999 399.2 86.9999 398.9 87.2999 398.7L243.4 301.4C243.6 301.3 243.9 301.3 244.1 301.4L400.2 398.7C400.5 398.9 400.6 399.2 400.5 399.5C400.5 399.8 400.2 400 399.9 400ZM90.1999 398.6H397.5L243.9 302.8L90.1999 398.6Z" fill="#231F20"/>
<path d="M410.505 315.3L323.216 337.617L335.577 385.961L422.865 363.643L410.505 315.3Z" fill="#DD5928"/>
<path d="M335.6 386.7C335.5 386.7 335.3 386.7 335.2 386.6C335 386.5 334.9 386.4 334.9 386.2L322.5 337.8C322.4 337.4 322.6 337 323 336.9L410.3 314.6C410.5 314.6 410.7 314.6 410.8 314.7C411 314.8 411.1 314.9 411.1 315.1L423.4 363.5C423.5 363.9 423.3 364.3 422.9 364.4L335.6 386.7ZM324.1 338.1L336.1 385.1L422 363.1L410 316.1L324.1 338.1Z" fill="#231F20"/>
<path d="M335.6 386L372.3 347.7L422.9 363.7L335.6 386Z" fill="#DD5928"/>
<path d="M335.6 386.7C335.4 386.7 335.1 386.6 335 386.3C334.8 386 334.9 385.7 335.1 385.5L371.8 347.2C372 347 372.3 346.9 372.5 347L423.1 363C423.5 363.1 423.7 363.5 423.6 363.9C423.5 364.1 423.3 364.3 423.1 364.4L335.8 386.7C335.7 386.7 335.7 386.7 335.6 386.7ZM372.5 348.5L337.8 384.7L420.3 363.6L372.5 348.5Z" fill="#231F20"/>
<path d="M323.3 337.6L374.4 356L410.5 315.3L323.3 337.6Z" fill="#DD5928"/>
<path d="M374.4 356.7C374.3 356.7 374.2 356.7 374.2 356.7L323 338.3C322.7 338.2 322.5 337.9 322.5 337.6C322.5 337.3 322.7 337 323 337L410.3 314.7C410.6 314.6 410.9 314.7 411.1 315C411.3 315.3 411.2 315.6 411 315.8L374.9 356.5C374.8 356.6 374.6 356.7 374.4 356.7ZM325.6 337.7L374.2 355.2L408.5 316.6L325.6 337.7Z" fill="#231F20"/>
<path d="M456.777 269.945L406.975 282.262L413.793 309.832L463.595 297.515L456.777 269.945Z" fill="#DD5928"/>
<path d="M413.8 310.5C413.5 310.5 413.2 310.3 413.1 310L406.3 282.4C406.2 282 406.4 281.6 406.8 281.5L456.6 269.2C456.8 269.2 457 269.2 457.1 269.3C457.3 269.4 457.4 269.6 457.4 269.7L464.2 297.3C464.3 297.7 464.1 298.1 463.7 298.2L413.9 310.5H413.8ZM407.8 282.7L414.3 309L462.7 297L456.2 270.8L407.8 282.7Z" fill="#231F20"/>
<path d="M413.8 309.8L434.8 288.2L463.5 297.5L413.8 309.8Z" fill="#DD5928"/>
<path d="M413.8 310.5C413.5 310.5 413.3 310.4 413.2 310.1C413 309.8 413.1 309.5 413.3 309.3L434.4 287.7C434.6 287.5 434.9 287.4 435.1 287.5L463.8 296.8C464.2 296.9 464.4 297.3 464.3 297.7C464.2 297.9 464.1 298.1 463.8 298.2L414 310.5H413.8ZM435 289L416 308.6L461 297.5L435 289Z" fill="#231F20"/>
<path d="M406.9 282.2L436 292.9L456.7 269.9L406.9 282.2Z" fill="#DD5928"/>
<path d="M436 293.6C435.9 293.6 435.8 293.6 435.8 293.6L406.7 282.9C406.4 282.8 406.2 282.5 406.2 282.2C406.2 281.9 406.4 281.6 406.7 281.6L456.5 269.3C456.8 269.2 457.1 269.4 457.3 269.6C457.5 269.9 457.4 270.2 457.2 270.4L436.5 293.4C436.4 293.6 436.2 293.7 436 293.6ZM409.3 282.4L435.8 292.2L454.7 271.2L409.3 282.4Z" fill="#231F20"/>
<path d="M382.567 262.955L341.769 281.219L351.902 303.854L392.7 285.59L382.567 262.955Z" fill="#DD5928"/>
<path d="M351.9 304.5C351.6 304.5 351.4 304.3 351.3 304.1L341.2 281.5C341.1 281.3 341.1 281.1 341.2 281C341.3 280.8 341.4 280.7 341.6 280.6L382.4 262.3C382.7 262.1 383.2 262.3 383.3 262.6L393.4 285.2C393.5 285.4 393.5 285.6 393.4 285.7C393.3 285.9 393.2 286 393 286.1L352.2 304.4C352 304.5 351.9 304.5 351.9 304.5ZM342.7 281.5L352.3 302.8L391.8 285.1L382.2 263.8L342.7 281.5Z" fill="#231F20"/>
<path d="M351.9 303.8L366.6 282L392.7 285.6L351.9 303.8Z" fill="#DD5928"/>
<path d="M351.9 304.5C351.7 304.5 351.5 304.4 351.4 304.3C351.2 304.1 351.2 303.7 351.4 303.5L366.1 281.7C366.2 281.5 366.5 281.4 366.8 281.4L392.9 284.9C393.3 285 393.5 285.3 393.5 285.7C393.5 285.9 393.3 286.1 393.1 286.2L352.3 304.5C352.1 304.5 352 304.5 351.9 304.5ZM366.9 282.8L353.8 302.2L390.1 285.9L366.9 282.8Z" fill="#231F20"/>
<path d="M341.7 281.2L368.3 285.9L382.5 263L341.7 281.2Z" fill="#DD5928"/>
<path d="M368.3 286.6H368.2L341.6 281.9C341.3 281.8 341.1 281.6 341 281.3C341 281 341.1 280.7 341.4 280.6L382.2 262.3C382.5 262.2 382.8 262.2 383 262.5C383.2 262.7 383.2 263.1 383.1 263.3L368.9 286.3C368.8 286.5 368.6 286.6 368.3 286.6ZM344.1 280.9L368 285.1L380.8 264.5L344.1 280.9Z" fill="#231F20"/>
<path d="M203.5 100.7H121.4C116 100.7 111.7 105 111.7 110.4V152.4C111.7 157.8 116 162.1 121.4 162.1H194.4L203.1 177L203.2 162.1H203.4C208.8 162.1 213.1 157.8 213.1 152.4V110.4C213.2 105 208.9 100.7 203.5 100.7Z" fill="white"/>
<path d="M203.1 177.7C202.9 177.7 202.6 177.6 202.5 177.3L194 162.7H121.4C115.7 162.7 111 158 111 152.3V110.3C111 104.6 115.7 99.8999 121.4 99.8999H203.5C209.2 99.8999 213.9 104.6 213.9 110.3V152.3C213.9 157.9 209.5 162.5 203.9 162.7L203.8 176.9C203.8 177.2 203.6 177.5 203.3 177.6C203.2 177.7 203.2 177.7 203.1 177.7ZM121.4 101.4C116.4 101.4 112.4 105.4 112.4 110.4V152.4C112.4 157.4 116.4 161.4 121.4 161.4H194.4C194.6 161.4 194.9 161.5 195 161.8L202.5 174.5L202.6 162.1C202.6 161.7 202.9 161.4 203.3 161.4H203.5C208.5 161.4 212.5 157.4 212.5 152.4V110.4C212.5 105.4 208.5 101.4 203.5 101.4H121.4Z" fill="#231F20"/>
<path d="M148.9 133.6L185.7 111.1L154.5 124.1L148.9 133.6Z" fill="#231F20"/>
<path d="M148.9 134.3C148.7 134.3 148.5 134.2 148.4 134.1C148.2 133.9 148.1 133.5 148.3 133.2L153.9 123.7C154 123.6 154.1 123.5 154.2 123.4L185.4 110.4C185.7 110.3 186.1 110.4 186.3 110.7C186.5 111 186.4 111.4 186 111.6L149.2 134.1C149.2 134.2 149 134.3 148.9 134.3ZM155 124.6L150.9 131.5L177.6 115.2L155 124.6Z" fill="#231F20"/>
<path d="M154.5 124.1L166.6 130.2L185.7 111.1L154.5 124.1Z" fill="#DD5928"/>
<path d="M166.6 130.8C166.5 130.8 166.4 130.8 166.3 130.7L154.3 124.5C154.1 124.4 153.9 124.2 153.9 123.9C153.9 123.6 154.1 123.4 154.3 123.3L185.5 110.3C185.8 110.2 186.2 110.4 186.3 110.7C186.4 110.9 186.3 111.1 186.2 111.3L167.1 130.4C166.9 130.7 166.7 130.8 166.6 130.8ZM156.1 124.1L166.5 129.4L183 112.9L156.1 124.1Z" fill="#231F20"/>
<path d="M185.7 111.1L146.1 120.5L137.1 115.4L185.7 111.1Z" fill="#DD5928"/>
<path d="M146.1 121.2C146 121.2 145.9 121.2 145.8 121.1L136.8 115.9C136.6 115.8 136.4 115.5 136.5 115.2C136.6 114.9 136.8 114.7 137.1 114.7L185.7 110.4C186 110.4 186.3 110.6 186.4 110.9C186.5 111.2 186.2 111.5 185.9 111.6L146.3 121.1L146.1 121.2ZM139.2 115.8L146.2 119.8L177.1 112.4L139.2 115.8Z" fill="#231F20"/>
<path d="M146.1 120.5L148.9 133.6L154.5 124.1L185.7 111.1L146.1 120.5Z" fill="#DD5928"/>
<path d="M148.9 134.2H148.8C148.5 134.2 148.3 134 148.3 133.7L145.5 120.7C145.4 120.4 145.6 120 146 119.9L185.6 110.4C185.9 110.3 186.3 110.5 186.4 110.8C186.5 111.1 186.3 111.5 186 111.6L155 124.5L149.6 133.8C149.4 134.1 149.2 134.2 148.9 134.2ZM146.9 121L149.2 131.8L154 123.7C154.1 123.6 154.2 123.5 154.3 123.4L178.1 113.5L146.9 121Z" fill="#231F20"/>
<path d="M144.9 150.8C145.8 151.3 146.7 151.6 147.8 151.6C149.4 151.6 150.4 150.7 150.4 149.5C150.4 148.3 149.7 147.7 148.1 147.1C146.1 146.4 144.8 145.3 144.8 143.6C144.8 141.7 146.4 140.3 148.8 140.3C149.7 140.3 150.7 140.5 151.5 140.9L151.1 142.2C150.4 141.8 149.6 141.6 148.8 141.6C147.1 141.6 146.5 142.6 146.5 143.5C146.5 144.6 147.3 145.2 148.9 145.9C151 146.7 152 147.7 152 149.5C152 151.3 150.6 153 147.7 153C146.6 153 145.5 152.7 144.6 152.2L144.9 150.8Z" fill="#231F20"/>
<path d="M155.1 148.6C155 150.2 156.1 151.5 157.7 151.7C157.8 151.7 158 151.7 158.1 151.7C158.9 151.7 159.8 151.6 160.5 151.2L160.8 152.3C159.9 152.7 158.9 152.9 157.9 152.9C155.6 153 153.7 151.3 153.5 149.1C153.5 148.9 153.5 148.7 153.5 148.5C153.5 145.8 155.1 143.7 157.6 143.7C160.5 143.7 161.3 146.2 161.3 147.9C161.3 148.2 161.3 148.5 161.3 148.7L155.1 148.6ZM159.8 147.5C159.8 146.5 159.4 144.9 157.6 144.9C156.2 145 155.2 146.1 155.1 147.5H159.8Z" fill="#231F20"/>
<path d="M163.3 146.3C163.3 145.4 163.3 144.6 163.2 143.9H164.6L164.7 145.4C165.3 144.3 166.4 143.7 167.6 143.7C168.8 143.7 170.7 144.4 170.7 147.5V152.8H169.1V147.7C169.1 146.3 168.6 145.1 167 145.1C166 145.1 165.1 145.8 164.8 146.7C164.7 146.9 164.7 147.2 164.7 147.5V152.8H163.1L163.3 146.3Z" fill="#231F20"/>
<path d="M175.3 141.4V143.9H177.6V145.1H175.3V149.9C175.3 151 175.6 151.6 176.5 151.6C176.8 151.6 177.1 151.6 177.4 151.5L177.5 152.7C177 152.9 176.6 152.9 176.1 152.9C175.5 152.9 174.8 152.7 174.4 152.2C173.9 151.5 173.7 150.7 173.8 149.9V145.1H172.4V143.9H173.8V141.8L175.3 141.4Z" fill="#231F20"/>
<path d="M197.8 382.8C197.4 382.8 197.1 382.5 197.1 382.1C197.1 381.7 197.4 381.4 197.8 381.4C199.7 381.4 201.5 381.3 203.4 381.3C203.8 381.3 204.1 381.6 204.1 381.9C204.1 382.3 203.8 382.6 203.4 382.6C201.6 382.7 199.7 382.8 197.8 382.8ZM192.2 382.8C190.3 382.8 188.4 382.7 186.6 382.7C186.2 382.7 185.9 382.4 185.9 382C185.9 381.6 186.2 381.3 186.6 381.3C188.5 381.4 190.3 381.4 192.2 381.4C192.6 381.4 192.9 381.7 192.9 382.1C192.9 382.5 192.6 382.8 192.2 382.8ZM209 382.4C208.6 382.4 208.3 382.1 208.3 381.7C208.3 381.3 208.6 381 209 381C210.9 380.9 212.7 380.8 214.6 380.6C215 380.5 215.3 380.8 215.4 381.2C215.5 381.6 215.2 381.9 214.8 382H214.7C212.8 382.2 211 382.3 209 382.4ZM181 382.4C179.1 382.3 177.3 382.2 175.4 382C175 382 174.7 381.6 174.8 381.2C174.8 380.8 175.2 380.5 175.6 380.6C177.5 380.7 179.3 380.9 181.2 381C181.6 381 181.9 381.3 181.9 381.7C181.8 382.1 181.5 382.4 181 382.4ZM220.2 381.5C219.8 381.5 219.5 381.2 219.5 380.8C219.5 380.4 219.8 380.1 220.2 380.1C222 379.9 223.9 379.7 225.8 379.5C226.2 379.5 226.5 379.7 226.6 380.1C226.6 380.5 226.4 380.8 226 380.9C224 381.1 222.1 381.3 220.2 381.5ZM169.9 381.5C168 381.3 166.1 381.1 164.2 380.8C163.8 380.7 163.5 380.4 163.6 380C163.7 379.6 164 379.3 164.4 379.4C166.2 379.6 168.1 379.9 169.9 380.1C170.3 380.1 170.6 380.5 170.6 380.8C170.6 381.2 170.3 381.5 169.9 381.5ZM231.3 380.2C231 380.2 230.7 379.9 230.6 379.6C230.5 379.2 230.8 378.9 231.2 378.8C233 378.5 234.9 378.2 236.7 377.9C237.1 377.8 237.4 378.1 237.5 378.5C237.6 378.9 237.3 379.2 236.9 379.3C235.1 379.6 233.2 379.9 231.3 380.2ZM158.8 380H158.7C156.8 379.7 155 379.4 153.2 379C152.8 378.9 152.6 378.6 152.6 378.2C152.7 377.8 153 377.6 153.4 377.6C155.2 377.9 157 378.3 158.9 378.6C159.3 378.7 159.5 379 159.5 379.4C159.4 379.8 159.1 380 158.8 380ZM242.4 378.2C242.1 378.2 241.8 378 241.7 377.6C241.6 377.2 241.9 376.9 242.3 376.8C244.1 376.4 246 376.1 247.8 375.7C248.2 375.6 248.6 375.8 248.7 376.1C248.8 376.4 248.6 376.9 248.3 377H248.2C246.4 377.4 244.5 377.8 242.7 378.1L242.4 378.2ZM147.8 378H147.7C145.9 377.6 144 377.2 142.2 376.8C141.8 376.7 141.6 376.3 141.7 376C141.8 375.6 142.2 375.4 142.5 375.5C144.3 375.9 146.1 376.4 147.9 376.7C148.3 376.8 148.5 377.2 148.4 377.5C148.4 377.8 148.1 378 147.8 378ZM253.3 375.9C253 375.9 252.7 375.7 252.6 375.4C252.5 375 252.7 374.6 253.1 374.5C254.9 374.1 256.7 373.6 258.5 373.1C258.9 373 259.3 373.2 259.4 373.6C259.5 374 259.3 374.4 258.9 374.5C257.1 375 255.3 375.5 253.5 375.9H253.3ZM136.9 375.4C136.8 375.4 136.8 375.4 136.7 375.4C134.9 374.9 133.1 374.4 131.3 373.8C130.9 373.7 130.7 373.3 130.8 372.9C130.9 372.5 131.3 372.3 131.7 372.4C133.5 372.9 135.3 373.5 137.1 374C137.5 374.1 137.7 374.5 137.6 374.9C137.5 375.2 137.2 375.4 136.9 375.4ZM264.1 373C263.7 373 263.4 372.7 263.4 372.3C263.4 372 263.6 371.7 263.9 371.6C265.7 371.1 267.5 370.5 269.2 370C269.6 369.9 270 370 270.1 370.4C270.2 370.8 270.1 371.2 269.7 371.3C269.7 371.3 269.7 371.3 269.6 371.3C267.8 371.9 266 372.4 264.2 373C264.2 372.9 264.2 372.9 264.1 373ZM126.2 372C126.1 372 126 372 126 372C124.2 371.4 122.5 370.8 120.7 370.1C120.3 369.9 120.2 369.5 120.3 369.2C120.4 368.9 120.8 368.7 121.2 368.8C122.9 369.5 124.7 370.1 126.4 370.7C126.8 370.8 127 371.2 126.8 371.6C126.8 371.9 126.5 372 126.2 372ZM274.8 369.5C274.4 369.5 274.1 369.2 274.1 368.8C274.1 368.5 274.3 368.2 274.6 368.1C276.4 367.5 278.1 366.8 279.8 366.2C280.2 366 280.6 366.2 280.7 366.6C280.9 367 280.7 367.4 280.3 367.5C280.3 367.5 280.3 367.5 280.2 367.5C278.5 368.2 276.7 368.8 274.9 369.4C274.9 369.4 274.9 369.4 274.8 369.5ZM115.8 368C115.7 368 115.6 368 115.5 368C113.8 367.3 112 366.5 110.4 365.8C110 365.6 109.9 365.2 110.1 364.9C110.3 364.6 110.7 364.4 111 364.5C112.7 365.3 114.4 366 116.1 366.7C116.5 366.8 116.6 367.3 116.5 367.6C116.3 367.9 116.1 368.1 115.8 368ZM285.3 365.5C285 365.5 284.8 365.3 284.7 365.1C284.6 364.7 284.7 364.3 285.1 364.2C286.8 363.5 288.5 362.8 290.2 362C290.6 361.9 291 362.1 291.1 362.4C291.2 362.7 291.1 363.1 290.8 363.2C289.1 364 287.4 364.7 285.6 365.4C285.4 365.4 285.3 365.5 285.3 365.5ZM105.6 363.4C105.5 363.4 105.4 363.4 105.3 363.3C103.6 362.5 102 361.6 100.3 360.7C100 360.5 99.8002 360.1 100 359.7C100.2 359.3 100.6 359.2 101 359.4C102.6 360.3 104.3 361.2 105.9 362C106.2 362.2 106.4 362.6 106.2 362.9C106.1 363.2 105.8 363.4 105.6 363.4ZM295.5 360.9C295.2 360.9 295 360.7 294.9 360.5C294.7 360.2 294.9 359.7 295.2 359.6C296.9 358.8 298.6 358 300.2 357.1C300.6 357 301 357.1 301.1 357.5C301.2 357.8 301.1 358.2 300.8 358.4C299.1 359.3 297.5 360.1 295.8 360.9C295.7 360.9 295.6 360.9 295.5 360.9ZM95.8002 358C95.7002 358 95.5002 358 95.4002 357.9C93.8002 356.9 92.2002 355.9 90.6002 354.9C90.3002 354.7 90.2002 354.3 90.4002 353.9C90.6002 353.6 91.0002 353.5 91.4002 353.7C92.9002 354.7 94.5002 355.7 96.1002 356.7C96.4002 356.9 96.6002 357.3 96.4002 357.7C96.3002 357.9 96.1002 358.1 95.8002 358ZM305.4 355.8C305 355.8 304.7 355.5 304.7 355.1C304.7 354.8 304.8 354.6 305.1 354.5C306.7 353.6 308.3 352.7 309.9 351.7C310.2 351.5 310.7 351.6 310.9 351.9C311.1 352.2 311 352.7 310.7 352.9C309.1 353.9 307.5 354.8 305.8 355.7C305.7 355.7 305.6 355.8 305.4 355.8ZM86.5002 351.8C86.4002 351.8 86.2002 351.8 86.1002 351.7C84.6002 350.6 83.1002 349.5 81.6002 348.3C81.3002 348 81.3002 347.6 81.6002 347.3C81.8002 347.1 82.2002 347 82.5002 347.2C83.9002 348.3 85.4002 349.5 86.9002 350.6C87.2002 350.8 87.3002 351.3 87.1002 351.6C86.9002 351.8 86.7002 351.9 86.5002 351.8ZM77.7002 344.9C77.5002 344.9 77.4002 344.8 77.2002 344.7C75.9002 343.6 74.7002 342.5 73.5002 341.3L73.1002 340.9C72.8002 340.6 72.8002 340.2 73.1002 339.9C73.4002 339.6 73.8002 339.6 74.1002 339.9L74.5002 340.3C75.7002 341.4 76.9002 342.5 78.2002 343.6C78.5002 343.9 78.5002 344.3 78.3002 344.6C78.2002 344.8 78.0002 344.9 77.7002 344.9ZM69.6002 337.2C69.4002 337.2 69.2002 337.1 69.1002 337C67.8002 335.6 66.5002 334.3 65.3002 332.9C65.0002 332.7 64.9002 332.2 65.1002 331.9C65.3002 331.6 65.8002 331.5 66.1002 331.7C66.2002 331.8 66.2002 331.8 66.3002 331.9C67.5002 333.3 68.8002 334.6 70.1002 336C70.4002 336.3 70.4002 336.7 70.1002 337C69.9002 337.1 69.8002 337.2 69.6002 337.2ZM62.1002 328.8C61.9002 328.8 61.7002 328.7 61.6002 328.6C60.4002 327.1 59.2002 325.7 58.1002 324.2C57.9002 323.9 57.9002 323.5 58.2002 323.2C58.5002 323 58.9002 323 59.2002 323.3C60.3002 324.8 61.5002 326.2 62.7002 327.7C62.9002 328 62.9002 328.4 62.6002 328.7C62.5002 328.8 62.3002 328.9 62.1002 328.8ZM55.4002 319.9C55.2002 319.9 55.0002 319.8 54.8002 319.6C53.7002 318 52.7002 316.5 51.7002 314.9C51.5002 314.6 51.5002 314.1 51.9002 313.9C52.2002 313.7 52.7002 313.7 52.9002 314.1C52.9002 314.1 52.9002 314.2 53.0002 314.2C54.0002 315.8 55.0002 317.3 56.0002 318.9C56.2002 319.2 56.2002 319.6 55.9002 319.9C55.6002 319.9 55.5002 319.9 55.4002 319.9ZM49.5002 310.4C49.2002 310.4 49.0002 310.3 48.9002 310C48.0002 308.4 47.1002 306.7 46.3002 305C46.2002 304.6 46.3002 304.2 46.7002 304.1C47.0002 304 47.4002 304.1 47.6002 304.4C48.4002 306 49.3002 307.7 50.1002 309.4C50.3002 309.8 50.1002 310.2 49.7002 310.3C49.7002 310.3 49.6002 310.3 49.5002 310.4ZM44.6002 300.3C44.3002 300.3 44.1002 300.1 43.9002 299.9C43.2002 298.2 42.5002 296.4 41.9002 294.6C41.8002 294.2 42.0002 293.8 42.4002 293.7C42.7002 293.6 43.1002 293.8 43.2002 294.1C43.8002 295.8 44.5002 297.6 45.2002 299.3C45.4002 299.7 45.2002 300.1 44.8002 300.2C44.8002 300.2 44.7002 300.2 44.6002 300.3ZM40.9002 289.7C40.6002 289.7 40.3002 289.5 40.2002 289.2C39.7002 287.4 39.2002 285.6 38.8002 283.7C38.7002 283.3 39.0002 282.9 39.3002 282.9C39.7002 282.8 40.1002 283.1 40.1002 283.4C40.5002 285.2 41.0002 287 41.5002 288.8C41.6002 289.2 41.4002 289.6 41.0002 289.7C41.1002 289.7 41.0002 289.7 40.9002 289.7ZM38.5002 278.8C38.2002 278.8 37.9002 278.6 37.8002 278.2C37.5002 276.3 37.3002 274.5 37.1002 272.6C37.0002 272.2 37.3002 271.9 37.7002 271.8C38.1002 271.7 38.4002 272 38.5002 272.4V272.5C38.7002 274.3 38.9002 276.2 39.2002 278C39.3002 278.4 39.0002 278.7 38.6002 278.8H38.5002ZM37.4002 267.6C37.0002 267.6 36.7002 267.3 36.7002 266.9C36.7002 266 36.7002 265 36.7002 264.1C36.7002 263.2 36.7002 262.2 36.7002 261.2C36.7002 260.8 37.0002 260.5 37.4002 260.5C37.8002 260.5 38.1002 260.8 38.1002 261.2C38.1002 262.1 38.1002 263.1 38.1002 264C38.1002 264.9 38.1002 265.8 38.1002 266.7C38.1002 267.3 37.8002 267.6 37.4002 267.6ZM37.8002 256.5C37.3002 256.5 37.1002 256.1 37.1002 255.7C37.3002 253.8 37.6002 251.9 37.9002 250.1C38.0002 249.7 38.3002 249.5 38.7002 249.5C39.1002 249.6 39.3002 249.9 39.3002 250.3C39.0002 252.1 38.7002 254 38.5002 255.8C38.5002 256.2 38.2002 256.5 37.8002 256.5ZM39.7002 245.5C39.6002 245.5 39.6002 245.5 39.5002 245.5C39.1002 245.4 38.9002 245 39.0002 244.7C39.5002 242.9 40.0002 241 40.5002 239.3C40.6002 238.9 41.0002 238.8 41.4002 238.9C41.7002 239 41.9002 239.4 41.8002 239.7C41.2002 241.5 40.7002 243.2 40.3002 245C40.3002 245.3 40.0002 245.5 39.7002 245.5ZM43.1002 234.8C43.0002 234.8 42.9002 234.8 42.8002 234.8C42.4002 234.7 42.3002 234.2 42.4002 233.9C43.1002 232.1 43.9002 230.4 44.7002 228.7C44.9002 228.4 45.3002 228.2 45.6002 228.4C45.9002 228.6 46.1002 229 45.9002 229.3C45.1002 230.9 44.3002 232.7 43.6002 234.4C43.7002 234.7 43.4002 234.9 43.1002 234.8ZM48.0002 224.8C47.9002 224.8 47.8002 224.8 47.7002 224.7C47.4002 224.5 47.2002 224.1 47.4002 223.8C47.4002 223.8 47.4002 223.8 47.4002 223.7C48.4002 222.1 49.4002 220.5 50.4002 218.9C50.6002 218.6 51.0002 218.5 51.4002 218.7C51.8002 218.9 51.8002 219.3 51.6002 219.7C50.6002 221.2 49.6002 222.8 48.7002 224.4C48.6002 224.6 48.3002 224.8 48.0002 224.8ZM54.2002 215.5C54.1002 215.5 53.9002 215.5 53.8002 215.4C53.5002 215.2 53.4002 214.7 53.6002 214.4C54.7002 212.9 55.9002 211.4 57.1002 210C57.3002 209.7 57.8002 209.7 58.1002 209.9C58.4002 210.1 58.4002 210.6 58.2002 210.9C57.0002 212.3 55.9002 213.8 54.8002 215.3C54.6002 215.3 54.4002 215.4 54.2002 215.5ZM61.3002 206.8C60.9002 206.8 60.6002 206.5 60.6002 206.1C60.6002 205.9 60.7002 205.7 60.8002 205.6C62.1002 204.2 63.4002 202.8 64.7002 201.5C65.0002 201.2 65.4002 201.2 65.7002 201.5C66.0002 201.8 66.0002 202.2 65.7002 202.5C64.4002 203.8 63.1002 205.1 61.8002 206.5C61.7002 206.7 61.5002 206.8 61.3002 206.8ZM69.3002 199C68.9002 199 68.6002 198.7 68.6002 198.3C68.6002 198.1 68.7002 197.9 68.8002 197.8C70.2002 196.6 71.7002 195.4 73.1002 194.2C73.4002 193.9 73.8002 194 74.1002 194.2C74.4002 194.4 74.3002 194.9 74.1002 195.2C74.1002 195.2 74.0002 195.2 74.0002 195.3C72.6002 196.4 71.1002 197.6 69.7002 198.8C69.7002 198.9 69.5002 199 69.3002 199ZM185.7 196.8C185.4 196.8 185.2 196.7 185.1 196.4C184.2 194.8 183.1 193.4 181.9 192C181.6 191.8 181.5 191.3 181.7 191C181.9 190.7 182.4 190.6 182.7 190.8C182.8 190.9 182.8 190.9 182.9 191C184.2 192.4 185.4 194 186.3 195.6C186.5 195.9 186.3 196.4 186 196.5C185.8 196.7 185.7 196.8 185.7 196.8ZM78.2002 192.1C78.0002 192.1 77.8002 192 77.6002 191.8C77.4002 191.5 77.4002 191.1 77.7002 190.8C79.2002 189.7 80.8002 188.7 82.4002 187.7C82.7002 187.5 83.2002 187.6 83.4002 187.9C83.6002 188.2 83.5002 188.7 83.2002 188.9C81.6002 189.8 80.0002 190.9 78.5002 191.9C78.4002 192 78.3002 192.1 78.2002 192.1ZM178.3 188.4C178.1 188.4 178 188.3 177.9 188.2C176.5 187 175 185.9 173.5 184.9C173.2 184.7 173.1 184.3 173.3 183.9C173.5 183.6 173.9 183.5 174.3 183.7C175.9 184.7 177.4 185.9 178.9 187.1C179.2 187.3 179.2 187.8 179 188.1C178.7 188.3 178.5 188.4 178.3 188.4ZM87.7002 186.4C87.4002 186.4 87.2002 186.3 87.1002 186C86.9002 185.7 87.0002 185.2 87.4002 185.1C89.1002 184.2 90.8002 183.4 92.5002 182.6C92.8002 182.4 93.3002 182.5 93.5002 182.9C93.7002 183.2 93.6002 183.7 93.2002 183.9C93.2002 183.9 93.1002 183.9 93.1002 184C91.4002 184.8 89.7002 185.6 88.1002 186.4C88.0002 186.3 87.9002 186.3 87.7002 186.4ZM168.9 182.4C168.8 182.4 168.7 182.4 168.6 182.3C167 181.5 165.3 180.7 163.5 180.1C163.1 180 162.9 179.6 163 179.2C163.1 178.8 163.5 178.6 163.9 178.7C163.9 178.7 164 178.7 164 178.8C165.8 179.5 167.5 180.2 169.2 181.1C169.5 181.3 169.7 181.7 169.5 182C169.4 182.2 169.1 182.4 168.9 182.4ZM97.9002 181.8C97.5002 181.8 97.2002 181.5 97.2002 181.1C97.2002 180.8 97.4002 180.6 97.6002 180.5C99.4002 179.8 101.1 179.2 102.9 178.7C103.3 178.6 103.7 178.8 103.8 179.2C103.9 179.6 103.7 180 103.3 180.1C101.5 180.7 99.8002 181.3 98.1002 181.9C98.1002 181.8 98.0002 181.8 97.9002 181.8ZM108.6 178.4C108.2 178.4 107.9 178.1 107.8 177.7C107.8 177.3 108.1 177 108.5 176.9C110.3 176.5 112.2 176 114 175.7C114.4 175.6 114.7 175.9 114.8 176.2C114.9 176.6 114.6 176.9 114.2 177C112.4 177.4 110.6 177.8 108.8 178.2L108.6 178.4ZM158.5 178.3C158.4 178.3 158.4 178.3 158.3 178.3C156.6 177.8 154.8 177.4 152.9 177C152.5 176.9 152.3 176.6 152.3 176.2C152.3 175.8 152.7 175.6 153.1 175.6C155 176 156.8 176.4 158.6 176.9C159 177 159.2 177.4 159.1 177.7C159.1 178.1 158.8 178.4 158.5 178.3ZM119.6 176.3C119.3 176.3 119 176 118.9 175.7C118.9 175.3 119.1 175 119.5 174.9C121.3 174.7 123.2 174.4 125.1 174.3C125.5 174.3 125.8 174.5 125.9 174.9C125.9 175.3 125.6 175.6 125.3 175.7C123.4 175.9 121.5 176.1 119.6 176.3ZM147.5 176C145.6 175.8 143.8 175.6 141.9 175.4C141.5 175.4 141.2 175 141.2 174.7C141.2 174.3 141.6 174 142 174.1C143.9 174.2 145.8 174.4 147.6 174.7C148 174.8 148.2 175.1 148.2 175.5C148.2 175.7 147.9 176 147.5 176ZM130.7 175.3C130.3 175.3 130 175 130 174.6C130 174.2 130.3 173.9 130.7 173.9C132.6 173.8 134.5 173.8 136.3 173.8C136.7 173.8 137 174.1 137 174.5C137 174.9 136.7 175.2 136.3 175.2C134.5 175.2 132.6 175.2 130.7 175.3Z" fill="#D1D3D4"/>
</svg>
