<svg width="20" height="20" viewBox="0 0 20 20" fill="none" xmlns="http://www.w3.org/2000/svg">
<path d="M10.25 0C8.32164 0 6.43657 0.571828 4.83319 1.64317C3.22982 2.71451 1.98013 4.23726 1.24218 6.01884C0.504225 7.80042 0.311142 9.76082 0.687348 11.6521C1.06355 13.5434 1.99215 15.2807 3.35571 16.6443C4.71928 18.0079 6.45656 18.9365 8.34787 19.3127C10.2392 19.6889 12.1996 19.4958 13.9812 18.7578C15.7627 18.0199 17.2855 16.7702 18.3568 15.1668C19.4282 13.5634 20 11.6784 20 9.75C19.9973 7.16498 18.9692 4.68661 17.1413 2.85872C15.3134 1.03084 12.835 0.00272983 10.25 0ZM14.5306 8.03063L9.28063 13.2806C9.21097 13.3504 9.12826 13.4057 9.03721 13.4434C8.94616 13.4812 8.84857 13.5006 8.75 13.5006C8.65144 13.5006 8.55385 13.4812 8.4628 13.4434C8.37175 13.4057 8.28903 13.3504 8.21938 13.2806L5.96938 11.0306C5.82865 10.8899 5.74959 10.699 5.74959 10.5C5.74959 10.301 5.82865 10.1101 5.96938 9.96937C6.11011 9.82864 6.30098 9.74958 6.5 9.74958C6.69903 9.74958 6.8899 9.82864 7.03063 9.96937L8.75 11.6897L13.4694 6.96937C13.5391 6.89969 13.6218 6.84442 13.7128 6.8067C13.8039 6.76899 13.9015 6.74958 14 6.74958C14.0986 6.74958 14.1961 6.76899 14.2872 6.8067C14.3782 6.84442 14.4609 6.89969 14.5306 6.96937C14.6003 7.03906 14.6556 7.12178 14.6933 7.21283C14.731 7.30387 14.7504 7.40145 14.7504 7.5C14.7504 7.59855 14.731 7.69613 14.6933 7.78717C14.6556 7.87822 14.6003 7.96094 14.5306 8.03063Z" fill="#388E3C"/>
</svg>
