<svg width="24" height="25" viewBox="0 0 24 25" fill="none" xmlns="http://www.w3.org/2000/svg">
<path d="M16.5459 9.45406C16.6508 9.55858 16.734 9.68277 16.7908 9.81952C16.8476 9.95626 16.8768 10.1029 16.8768 10.2509C16.8768 10.399 16.8476 10.5456 16.7908 10.6824C16.734 10.8191 16.6508 10.9433 16.5459 11.0478L11.2959 16.2978C11.1914 16.4027 11.0672 16.4859 10.9305 16.5427C10.7937 16.5995 10.6471 16.6287 10.4991 16.6287C10.351 16.6287 10.2044 16.5995 10.0676 16.5427C9.9309 16.4859 9.80671 16.4027 9.70219 16.2978L7.45219 14.0478C7.34754 13.9432 7.26453 13.8189 7.2079 13.6822C7.15127 13.5455 7.12212 13.3989 7.12212 13.2509C7.12212 13.1029 7.15127 12.9564 7.2079 12.8197C7.26453 12.6829 7.34754 12.5587 7.45219 12.4541C7.55684 12.3494 7.68107 12.2664 7.8178 12.2098C7.95453 12.1531 8.10107 12.124 8.24907 12.124C8.39706 12.124 8.5436 12.1531 8.68033 12.2098C8.81706 12.2664 8.94129 12.3494 9.04594 12.4541L10.5 13.9062L14.9541 9.45125C15.0587 9.34684 15.183 9.26408 15.3196 9.2077C15.4563 9.15133 15.6027 9.12245 15.7506 9.12271C15.8984 9.12297 16.0448 9.15237 16.1812 9.20922C16.3177 9.26608 16.4416 9.34928 16.5459 9.45406ZM22.125 12.5C22.125 14.5025 21.5312 16.4601 20.4186 18.1251C19.3061 19.7902 17.7248 21.0879 15.8747 21.8543C14.0246 22.6206 11.9888 22.8211 10.0247 22.4305C8.06066 22.0398 6.25656 21.0755 4.84055 19.6595C3.42454 18.2435 2.46023 16.4393 2.06955 14.4753C1.67888 12.5112 1.87939 10.4754 2.64572 8.62533C3.41206 6.77523 4.70981 5.19392 6.37486 4.08137C8.0399 2.96882 9.99747 2.375 12 2.375C14.6844 2.37798 17.258 3.44567 19.1562 5.34383C21.0543 7.24199 22.122 9.8156 22.125 12.5ZM19.875 12.5C19.875 10.9425 19.4131 9.41992 18.5478 8.12488C17.6825 6.82985 16.4526 5.82049 15.0136 5.22445C13.5747 4.62841 11.9913 4.47246 10.4637 4.77632C8.93607 5.08017 7.53288 5.8302 6.43154 6.93153C5.3302 8.03287 4.58018 9.43606 4.27632 10.9637C3.97246 12.4913 4.12841 14.0747 4.72445 15.5136C5.32049 16.9526 6.32985 18.1825 7.62489 19.0478C8.91993 19.9131 10.4425 20.375 12 20.375C14.0879 20.3728 16.0896 19.5424 17.566 18.066C19.0424 16.5896 19.8728 14.5879 19.875 12.5Z" fill="#B5B5B5"/>
</svg>
