<svg width="24" height="25" viewBox="0 0 24 25" fill="none" xmlns="http://www.w3.org/2000/svg">
<path d="M20.2959 7.955L15.0459 2.705C14.9415 2.60039 14.8174 2.5174 14.6808 2.46078C14.5442 2.40416 14.3978 2.37501 14.25 2.375H5.25C4.75272 2.375 4.27581 2.57254 3.92417 2.92417C3.57254 3.27581 3.375 3.75272 3.375 4.25V20.75C3.375 21.2473 3.57254 21.7242 3.92417 22.0758C4.27581 22.4275 4.75272 22.625 5.25 22.625H18.75C19.2473 22.625 19.7242 22.4275 20.0758 22.0758C20.4275 21.7242 20.625 21.2473 20.625 20.75V8.75C20.625 8.45187 20.5066 8.16593 20.2959 7.955ZM17.1562 8H15V5.84375L17.1562 8ZM5.625 20.375V4.625H12.75V9.125C12.75 9.42337 12.8685 9.70952 13.0795 9.9205C13.2905 10.1315 13.5766 10.25 13.875 10.25H18.375V20.375H5.625ZM15.0459 13.5791C15.2573 13.7904 15.376 14.0771 15.376 14.3759C15.376 14.6748 15.2573 14.9615 15.0459 15.1728C14.8346 15.3842 14.5479 15.5029 14.2491 15.5029C13.9502 15.5029 13.6635 15.3842 13.4522 15.1728L13.125 14.8438V17.75C13.125 18.0484 13.0065 18.3345 12.7955 18.5455C12.5845 18.7565 12.2984 18.875 12 18.875C11.7016 18.875 11.4155 18.7565 11.2045 18.5455C10.9935 18.3345 10.875 18.0484 10.875 17.75V14.8438L10.5459 15.1737C10.3346 15.3851 10.0479 15.5038 9.74906 15.5038C9.45018 15.5038 9.16353 15.3851 8.95219 15.1737C8.74084 14.9624 8.62211 14.6758 8.62211 14.3769C8.62211 14.078 8.74084 13.7913 8.95219 13.58L11.2022 11.33C11.3067 11.2251 11.4309 11.1419 11.5676 11.0851C11.7044 11.0283 11.851 10.9991 11.9991 10.9991C12.1471 10.9991 12.2937 11.0283 12.4305 11.0851C12.5672 11.1419 12.6914 11.2251 12.7959 11.33L15.0459 13.5791Z" fill="#6B6B6B"/>
</svg>
