<svg width="21" height="21" viewBox="0 0 21 21" fill="none" xmlns="http://www.w3.org/2000/svg">
<path d="M18 11.75V16.75C18 16.9158 17.9342 17.0747 17.8169 17.1919C17.6997 17.3092 17.5408 17.375 17.375 17.375H3.625C3.45924 17.375 3.30027 17.3092 3.18306 17.1919C3.06585 17.0747 3 16.9158 3 16.75V11.75C3 11.5842 3.06585 11.4253 3.18306 11.3081C3.30027 11.1909 3.45924 11.125 3.625 11.125C3.79076 11.125 3.94973 11.1909 4.06694 11.3081C4.18415 11.4253 4.25 11.5842 4.25 11.75V16.125H16.75V11.75C16.75 11.5842 16.8158 11.4253 16.9331 11.3081C17.0503 11.1909 17.2092 11.125 17.375 11.125C17.5408 11.125 17.6997 11.1909 17.8169 11.3081C17.9342 11.4253 18 11.5842 18 11.75ZM7.81719 6.56719L9.875 4.5086V11.75C9.875 11.9158 9.94085 12.0747 10.0581 12.1919C10.1753 12.3092 10.3342 12.375 10.5 12.375C10.6658 12.375 10.8247 12.3092 10.9419 12.1919C11.0592 12.0747 11.125 11.9158 11.125 11.75V4.5086L13.1828 6.56719C13.3001 6.68447 13.4591 6.75035 13.625 6.75035C13.7909 6.75035 13.9499 6.68447 14.0672 6.56719C14.1845 6.44992 14.2503 6.29086 14.2503 6.125C14.2503 5.95915 14.1845 5.80009 14.0672 5.68282L10.9422 2.55782C10.8841 2.49971 10.8152 2.45361 10.7393 2.42215C10.6635 2.3907 10.5821 2.37451 10.5 2.37451C10.4179 2.37451 10.3365 2.3907 10.2607 2.42215C10.1848 2.45361 10.1159 2.49971 10.0578 2.55782L6.93281 5.68282C6.81554 5.80009 6.74965 5.95915 6.74965 6.125C6.74965 6.29086 6.81554 6.44992 6.93281 6.56719C7.05009 6.68447 7.20915 6.75035 7.375 6.75035C7.54085 6.75035 7.69991 6.68447 7.81719 6.56719Z" fill="black"/>
</svg>
