<svg width="12" height="8" viewBox="0 0 12 8" fill="none" xmlns="http://www.w3.org/2000/svg">
<path d="M11.4382 0.999512V3.99951C11.4382 4.1487 11.3789 4.29177 11.2735 4.39726C11.168 4.50275 11.0249 4.56201 10.8757 4.56201C10.7265 4.56201 10.5835 4.50275 10.478 4.39726C10.3725 4.29177 10.3132 4.1487 10.3132 3.99951V2.35889L6.77368 5.89889C6.72142 5.95133 6.65933 5.99294 6.59095 6.02133C6.52258 6.04972 6.44928 6.06433 6.37524 6.06433C6.30121 6.06433 6.22791 6.04972 6.15953 6.02133C6.09116 5.99294 6.02906 5.95133 5.97681 5.89889L4.50071 4.42139L1.52368 7.39748C1.41801 7.50315 1.27469 7.56252 1.12524 7.56252C0.9758 7.56252 0.832478 7.50315 0.726806 7.39748C0.621134 7.29181 0.561768 7.14849 0.561768 6.99904C0.561768 6.8496 0.621134 6.70628 0.726806 6.60061L4.10181 3.22561C4.15406 3.17317 4.21616 3.13156 4.28453 3.10317C4.35291 3.07478 4.42621 3.06016 4.50024 3.06016C4.57428 3.06016 4.64758 3.07478 4.71595 3.10317C4.78433 3.13156 4.84642 3.17317 4.89868 3.22561L6.37571 4.70264L9.51634 1.56201H7.87571C7.72653 1.56201 7.58345 1.50275 7.47796 1.39726C7.37248 1.29177 7.31321 1.1487 7.31321 0.999512C7.31321 0.850327 7.37248 0.707253 7.47796 0.601764C7.58345 0.496275 7.72653 0.437012 7.87571 0.437012H10.8757C11.0249 0.437012 11.168 0.496275 11.2735 0.601764C11.3789 0.707253 11.4382 0.850327 11.4382 0.999512Z" fill="#DD5928"/>
</svg>
