<svg width="25" height="24" viewBox="0 0 25 24" fill="none" xmlns="http://www.w3.org/2000/svg">
<path d="M12.7969 0C10.4235 0 8.10343 0.703788 6.13004 2.02236C4.15665 3.34094 2.61858 5.21508 1.71033 7.4078C0.802074 9.60051 0.564434 12.0133 1.02746 14.3411C1.49048 16.6689 2.63337 18.807 4.3116 20.4853C5.98983 22.1635 8.12802 23.3064 10.4558 23.7694C12.7836 24.2324 15.1964 23.9948 17.3891 23.0865C19.5818 22.1783 21.4559 20.6402 22.7745 18.6668C24.0931 16.6934 24.7969 14.3734 24.7969 12C24.7935 8.81843 23.5282 5.76814 21.2784 3.51843C19.0287 1.26872 15.9784 0.00335979 12.7969 0ZM18.0653 9.88384L11.6038 16.3454C11.5181 16.4312 11.4163 16.4993 11.3042 16.5457C11.1921 16.5922 11.072 16.6161 10.9507 16.6161C10.8294 16.6161 10.7093 16.5922 10.5972 16.5457C10.4852 16.4993 10.3834 16.4312 10.2976 16.3454L7.52842 13.5762C7.35521 13.4029 7.2579 13.168 7.2579 12.9231C7.2579 12.6781 7.35521 12.4432 7.52842 12.27C7.70162 12.0968 7.93654 11.9995 8.18149 11.9995C8.42645 11.9995 8.66136 12.0968 8.83457 12.27L10.9507 14.3873L16.7592 8.57769C16.8449 8.49193 16.9468 8.4239 17.0588 8.37748C17.1709 8.33107 17.291 8.30718 17.4123 8.30718C17.5336 8.30718 17.6537 8.33107 17.7657 8.37748C17.8778 8.4239 17.9796 8.49193 18.0653 8.57769C18.1511 8.66345 18.2191 8.76527 18.2655 8.87733C18.312 8.98938 18.3359 9.10948 18.3359 9.23077C18.3359 9.35205 18.312 9.47216 18.2655 9.58421C18.2191 9.69627 18.1511 9.79808 18.0653 9.88384Z" fill="#388E3C"/>
</svg>
