<svg width="501" height="500" viewBox="0 0 501 500" fill="none" xmlns="http://www.w3.org/2000/svg">
<path d="M247.501 427C284.614 427 314.701 422.254 314.701 416.4C314.701 410.546 284.614 405.8 247.501 405.8C210.387 405.8 180.301 410.546 180.301 416.4C180.301 422.254 210.387 427 247.501 427Z" fill="#D1D3D4"/>
<path d="M167.7 245.1C166.6 245.1 165.5 244.7 164.6 244.1C86.9999 192 71.8999 141.8 71.2999 139.6C70.4999 136.6 72.2998 133.5 75.1998 132.7C78.0998 131.9 81.1998 133.6 81.9998 136.5C82.0998 137 96.8998 185.1 170.7 234.8C173.3 236.5 174 240 172.2 242.6C171.3 244.2 169.6 245.1 167.7 245.1Z" fill="#231F20"/>
<path d="M363.099 238.6C334.099 238.6 289.299 201.9 283.599 197.1C281.199 195.1 280.899 191.6 282.899 189.2C284.899 186.8 288.399 186.5 290.799 188.5C301.299 197.1 312.399 205 323.899 212.1C345.399 225.2 361.999 230.2 369.599 226C386.299 216.5 385.399 178 383.599 163.9C383.199 160.8 385.299 158 388.299 157.5C391.399 157.1 394.199 159.2 394.699 162.2C394.699 162.3 394.699 162.3 394.699 162.4C395.799 172.4 395.999 182.4 395.199 192.4C393.399 214.6 386.599 229.1 375.099 235.7C371.399 237.7 367.299 238.7 363.099 238.6Z" fill="#231F20"/>
<path d="M140.1 358.4C137 358.4 134.5 355.9 134.4 352.8C134.4 349.7 136.9 347.2 140 347.2C157 346.9 170.2 341.8 179 332.1C193.8 315.8 192.2 291.9 192.2 291.6C192 288.5 194.3 285.8 197.4 285.6C200.5 285.4 203.2 287.7 203.4 290.8C203.5 292 205.3 319.8 187.3 339.7C176.3 351.7 160.4 358.1 140.1 358.4Z" fill="#231F20"/>
<path d="M351.099 346.8C348.499 346.8 346.199 345 345.599 342.4C336.299 301.4 278.999 300 278.399 300C275.299 300 272.799 297.4 272.899 294.3C272.899 291.2 275.499 288.7 278.599 288.8C290.299 289.3 301.799 291.5 312.799 295.3C336.799 303.8 351.899 319.2 356.599 339.9C357.299 342.9 355.399 345.9 352.399 346.6C351.899 346.8 351.499 346.8 351.099 346.8Z" fill="#231F20"/>
<path d="M241 320.1C291.59 320.1 332.6 279.089 332.6 228.5C332.6 177.911 291.59 136.9 241 136.9C190.411 136.9 149.4 177.911 149.4 228.5C149.4 279.089 190.411 320.1 241 320.1Z" fill="#DD5928"/>
<path d="M241 136.9C291.6 136.9 332.6 177.9 332.6 228.5C332.6 279.1 291.6 320.1 241 320.1C190.4 320.1 149.4 279.1 149.4 228.5C149.4 177.9 190.4 136.9 241 136.9ZM241 135.5C189.6 135.5 147.9 177.2 147.9 228.6C147.9 280 189.6 321.7 241 321.7C292.4 321.7 334.1 280 334.1 228.6C334.1 177.2 292.4 135.5 241 135.5Z" fill="#231F20"/>
<path d="M218.2 207.2C217 207.2 216.1 206.3 216.1 205.1C216.1 196 213 189.9 210.9 189.9C208.8 189.9 205.7 196 205.7 205.1C205.7 206.3 204.8 207.2 203.6 207.2C202.4 207.2 201.5 206.3 201.5 205.1C201.5 195.7 204.8 185.7 210.9 185.7C217 185.7 220.3 195.7 220.3 205.1C220.3 206.3 219.3 207.2 218.2 207.2Z" fill="#231F20"/>
<path d="M278.501 207.2C277.301 207.2 276.401 206.3 276.401 205.1C276.401 196 273.301 189.9 271.201 189.9C269.101 189.9 266.001 196 266.001 205.1C266.001 206.3 265.101 207.2 263.901 207.2C262.701 207.2 261.801 206.3 261.801 205.1C261.801 195.7 265.101 185.7 271.201 185.7C277.301 185.7 280.601 195.7 280.601 205.1C280.601 206.3 279.701 207.2 278.501 207.2Z" fill="#231F20"/>
<path d="M292.1 247.7C292.1 269.1 269.2 286.4 241.1 286.4C213 286.4 190.1 269.1 190.1 247.7H292.1Z" fill="#231F20"/>
<path d="M374 183.6C367.8 179.8 363.9 165.8 365 158.1C366.1 150.4 369.8 151.5 374 150.8C373.6 147.7 373.2 144.1 375.2 141.6C376.3 140.4 377.7 139.4 379.2 138.9C387.9 135.2 397.6 135 406.4 138.3C408.1 138.8 409.6 139.8 410.8 141.1C411.8 142.5 412.5 144 412.7 145.7C416.3 161.3 408.6 171.5 406.8 186.1C400.9 185.7 395.1 185.3 389.2 184.9C385.3 184.6 377.6 185.7 374.1 183.7L374 183.6Z" fill="white"/>
<path d="M406.8 186.9L389.2 185.7C388.1 185.6 386.6 185.7 385 185.7C381 185.8 376.4 185.9 373.8 184.4L373.6 184.3C366.8 180.2 363.2 165.6 364.2 158.1C365.1 151.1 368.4 150.8 371.8 150.4L373.1 150.3C372.7 147.1 372.6 143.8 374.6 141.3C375.8 140 377.3 139 378.9 138.4C387.7 134.6 397.7 134.4 406.7 137.8C408.5 138.4 410.1 139.4 411.4 140.8C412.5 142.2 413.2 143.9 413.5 145.7C415.9 155.9 413.5 163.7 411 172C409.5 176.7 408.3 181.5 407.6 186.3C407.5 186.6 407.2 186.9 406.8 186.9ZM387.5 184.1C388.2 184.1 388.8 184.1 389.3 184.2L406.2 185.4C407 180.7 408.1 176.1 409.6 171.5C412 163.4 414.4 155.7 412.1 145.9C411.8 144.3 411.2 142.9 410.3 141.6C409.2 140.4 407.7 139.5 406.2 139C397.6 135.7 388 135.9 379.5 139.6C378.1 140.1 376.8 141 375.7 142.1C373.9 144.3 374.2 147.6 374.6 150.7C374.7 151.1 374.4 151.4 374 151.5C373.3 151.6 372.6 151.7 372 151.8C368.8 152.1 366.4 152.4 365.6 158.2C364.5 166.1 368.6 179.5 374.3 182.9L374.4 183C376.7 184.3 381.2 184.2 384.9 184.1C385.8 184.1 386.7 184.1 387.5 184.1Z" fill="#231F20"/>
<path d="M411.7 189.9L371.2 191.2C369 191.3 367.2 189.5 367.1 187.3L367 183.4C366.9 181.2 368.7 179.4 370.9 179.3L411.4 178C413.6 177.9 415.4 179.7 415.5 181.9L415.6 185.8C415.6 188 413.9 189.8 411.7 189.9Z" fill="white"/>
<path d="M372.5 191.9C369.1 191.9 366.3 189.2 366.2 185.8V185C366.1 181.5 368.8 178.6 372.3 178.5L409.7 177.3C413.2 177.2 416.1 179.9 416.2 183.4V184.2C416.3 187.7 413.6 190.6 410.1 190.7L372.7 191.9H372.5ZM372.3 180C369.6 180.1 367.5 182.3 367.6 185V185.8C367.7 188.5 369.9 190.6 372.6 190.5L410 189.3C412.7 189.2 414.8 187 414.7 184.3V183.5C414.7 182.2 414.1 181 413.2 180.1C412.3 179.2 411 178.7 409.7 178.8L372.3 180Z" fill="#231F20"/>
<path d="M178.901 231.1C185.031 231.1 190.001 227.921 190.001 224C190.001 220.079 185.031 216.9 178.901 216.9C172.77 216.9 167.801 220.079 167.801 224C167.801 227.921 172.77 231.1 178.901 231.1Z" fill="white"/>
<path d="M303.2 231.1C309.33 231.1 314.3 227.921 314.3 224C314.3 220.079 309.33 216.9 303.2 216.9C297.069 216.9 292.1 220.079 292.1 224C292.1 227.921 297.069 231.1 303.2 231.1Z" fill="white"/>
<path d="M373.9 150.8C373.9 150.8 398 147.4 395.6 154C393.2 160.6 375.9 164.2 375.9 164.2C375.9 164.2 391.3 160 394.9 171.6" fill="white"/>
<path d="M394.899 172.3C394.599 172.3 394.299 172.1 394.199 171.8C392.799 167.3 389.399 164.8 383.999 164.3C381.699 164.1 379.399 164.3 377.099 164.7L375.999 164.9C375.599 165 375.199 164.7 375.099 164.4C374.999 164 375.199 163.6 375.599 163.5C375.599 163.5 375.999 163.4 376.499 163.3C379.999 162.5 392.799 159.1 394.799 153.8C394.999 153.4 394.999 152.8 394.699 152.4C392.699 149.9 380.899 150.5 373.999 151.5C373.599 151.6 373.199 151.3 373.199 150.9C373.099 150.5 373.399 150.1 373.799 150.1C375.699 149.8 392.699 147.6 395.899 151.5C396.499 152.3 396.699 153.4 396.299 154.3C394.899 158.2 388.799 161.1 383.599 162.8C388.299 163.1 393.599 165 395.599 171.4C395.699 171.8 395.499 172.2 395.099 172.3H394.899Z" fill="#231F20"/>
<path d="M107.801 157.7C111.701 151.6 108.901 137.3 104.601 130.9C100.301 124.5 97.3008 127.1 93.3008 128.3C92.3008 125.3 91.0008 122 88.1008 120.6C86.6008 120 84.9008 119.8 83.3008 120C73.9008 120.6 65.1008 124.7 58.7008 131.6C57.4008 132.8 56.5008 134.4 56.0008 136C55.7008 137.7 55.8008 139.4 56.3008 141C60.0008 156.6 71.5008 162.3 79.6008 174.5C84.7008 171.5 89.7008 168.5 94.8008 165.6C98.2008 163.6 105.601 161.1 107.801 157.8V157.7Z" fill="white"/>
<path d="M79.5 175.3C79.3 175.3 79 175.2 78.9 175C76.1 171 73 167.2 69.5 163.7C63.6 157.4 58 151.4 55.5 141.3C55 139.6 54.9 137.8 55.2 136C55.7 134.2 56.7 132.5 58.1 131.2C64.6 124.1 73.6 119.9 83.2 119.3C85 119.1 86.7 119.3 88.4 120C91.3 121.3 92.6 124.3 93.7 127.4C94.1 127.3 94.5 127.1 94.9 127C98.1 125.8 101.2 124.7 105.1 130.5C109.3 136.7 112.6 151.4 108.4 158.1L108.3 158.3C106.6 160.8 102.5 162.7 98.8 164.4C97.4 165.1 96 165.7 95 166.3L79.8 175.2C79.7 175.3 79.6 175.3 79.5 175.3ZM84.4 120.7C84 120.7 83.6 120.7 83.3 120.7C74.1 121.2 65.4 125.3 59.2 132.1C58 133.2 57.1 134.7 56.7 136.2C56.4 137.7 56.6 139.3 57 140.8C59.3 150.6 64.8 156.4 70.6 162.6C73.9 166 77 169.6 79.8 173.5C84.7 170.6 89.6 167.8 94.4 164.9C95.4 164.3 96.8 163.6 98.3 163C101.6 161.4 105.7 159.5 107.2 157.4L107.3 157.3C110.9 151.6 108.5 137.8 104.1 131.3C100.8 126.4 98.6 127.2 95.5 128.3C94.9 128.5 94.2 128.8 93.5 129C93.1 129.1 92.7 128.9 92.6 128.5C91.6 125.5 90.4 122.5 87.8 121.3C86.7 120.8 85.6 120.6 84.4 120.7Z" fill="#231F20"/>
<path d="M71.9001 169.3L108.8 152.4C110.8 151.5 113.2 152.4 114.1 154.4L115.7 158C116.6 160 115.7 162.4 113.7 163.3L76.8001 180.2C74.8001 181.1 72.4001 180.2 71.5001 178.2L69.9001 174.6C69.0001 172.6 69.9001 170.2 71.9001 169.3Z" fill="white"/>
<path d="M76.0006 180.7C75.2006 180.7 74.5006 180.6 73.8006 180.3C72.2006 179.7 71.0006 178.5 70.3006 177L70.0006 176.3C68.6006 173.1 70.0006 169.4 73.1006 168L107.101 152.4C110.301 151 114.001 152.3 115.501 155.5L115.801 156.2C117.201 159.4 115.901 163.1 112.701 164.6L78.7006 180.2C77.8006 180.5 76.9006 180.7 76.0006 180.7ZM109.701 153.3C109.001 153.3 108.301 153.5 107.701 153.7L73.7006 169.3C71.3006 170.4 70.2006 173.3 71.3006 175.7L71.6006 176.4C72.7006 178.8 75.6006 179.9 78.0006 178.8L112.001 163.2C114.401 162.1 115.501 159.2 114.401 156.8L114.101 156.1C113.301 154.4 111.601 153.3 109.701 153.3Z" fill="#231F20"/>
<path d="M93.2998 128.3C93.2998 128.3 70.1998 136 75.2998 140.8C80.3998 145.6 97.4998 141.1 97.4998 141.1C97.4998 141.1 81.7998 144.2 83.7998 156.2" fill="white"/>
<path d="M83.7002 157C83.3002 157 83.0002 156.7 83.0002 156.4C81.9002 149.8 85.9002 145.8 89.9002 143.4C84.5002 144.1 77.8002 144.3 74.7002 141.4C73.9002 140.8 73.6002 139.7 73.8002 138.8C74.9002 133.8 91.1002 128.3 92.9002 127.7C93.3002 127.6 93.7002 127.8 93.8002 128.2C93.9002 128.6 93.7002 128.9 93.4002 129.1C86.7002 131.3 75.9002 136 75.2002 139.2C75.1002 139.7 75.3002 140.2 75.7002 140.5C79.8002 144.4 92.8002 141.7 96.3002 140.9L97.2002 140.7C97.6002 140.6 98.0002 140.9 98.1002 141.2C98.2002 141.6 97.9002 142 97.6002 142.1C97.5002 142.1 97.1002 142.2 96.5002 142.4C94.3002 143 92.2002 143.9 90.2002 145.1C85.6002 147.9 83.7002 151.7 84.4002 156.4C84.5002 156.8 84.2002 157.2 83.8002 157.2L83.7002 157Z" fill="#231F20"/>
<path d="M357.4 310.1C357.4 310.1 331.9 316.1 326 339L359.6 385.3L405.2 321.7L371.5 333.2L357.4 310.1Z" fill="white"/>
<path d="M359.599 386C359.399 386 359.199 385.9 358.999 385.7L325.399 339.4C325.299 339.2 325.199 339 325.299 338.8C331.199 315.7 356.899 309.4 357.199 309.3C357.499 309.2 357.799 309.4 357.999 309.6L371.799 332.3L404.899 321C405.199 320.9 405.499 321 405.699 321.2C405.899 321.5 405.899 321.8 405.699 322.1L360.099 385.7C359.999 385.9 359.799 386 359.599 386ZM326.799 338.9L359.599 384.1L403.299 323.1L371.799 333.9C371.499 334 371.099 333.9 370.899 333.6L357.099 310.9C353.499 311.9 332.199 318.6 326.799 338.9Z" fill="#231F20"/>
<path d="M361.4 387C349 377.2 362.6 361.7 375.7 344.4C385.1 332 402.5 316.7 410.9 323.3C420.6 330.9 376.2 398.6 361.4 387Z" fill="#D1D3D4"/>
<path d="M365.401 389.1C363.801 389.1 362.201 388.6 361.001 387.6C349.101 378.2 360.101 363.7 371.801 348.3C372.901 346.9 374.001 345.4 375.101 343.9C382.701 333.7 395.201 322.2 404.401 321C406.801 320.6 409.301 321.2 411.301 322.6C412.701 323.7 413.201 325.9 412.801 329C410.701 343.6 386.301 381.4 369.801 388C368.401 388.7 366.901 389 365.401 389.1ZM361.901 386.5C363.701 387.9 366.301 388 369.301 386.8C384.101 380.8 409.201 344.3 411.401 328.9C411.601 327.1 411.701 324.8 410.501 323.9C408.801 322.7 406.701 322.2 404.701 322.5C396.301 323.6 384.101 334.6 376.301 344.8C375.201 346.3 374.101 347.7 373.001 349.2C361.201 364.7 351.101 378 361.901 386.5Z" fill="#231F20"/>
<path d="M150 368L145 333C130.1 337 114.7 339.1 99.2996 339.3C99.2996 339.3 91.1996 394.4 94.8996 394.5C98.5996 394.6 112.2 371.1 112.2 371.1C112.2 371.1 123.9 376.2 150 368Z" fill="white"/>
<path d="M94.9001 395.3C94.5001 395.3 94.2001 395.1 94.0001 394.8C91.1001 391.2 97.3001 347.8 98.6001 339.2C98.7001 338.9 98.9001 338.6 99.3001 338.6C114.7 338.4 130 336.3 144.8 332.4C145 332.3 145.2 332.4 145.4 332.5C145.6 332.6 145.7 332.8 145.7 333L150.7 368C150.8 368.4 150.5 368.7 150.2 368.8C127.1 376 115.3 373 112.5 372C109 378.2 98.7001 395.3 94.9001 395.3ZM99.9001 340C96.3001 364.5 93.5001 391.2 95.1001 393.8C97.3001 393.4 105.2 381.9 111.7 370.7C111.9 370.4 112.3 370.3 112.6 370.4C112.7 370.4 124.2 375.1 149.3 367.4L144.5 333.9C129.8 337.7 114.9 339.7 99.9001 340Z" fill="#231F20"/>
<path d="M145 333.1C145 333.1 140.1 337.9 140.1 352.9C140.1 361 145.7 371.5 150 368.1C154.3 364.7 156.4 333 145 333.1Z" fill="#231F20"/>
<path d="M148.3 369.4C147.7 369.4 147.2 369.3 146.7 369C143 367.2 139.5 359.4 139.5 352.8C139.5 337.7 144.4 332.7 144.6 332.5C144.7 332.4 144.9 332.3 145.1 332.3C148.4 332.3 151 334.6 152.5 339.1C155.7 348.3 154 365.8 150.6 368.6C149.8 369.1 149.1 369.4 148.3 369.4ZM145.3 333.8C144.4 334.9 140.8 340.1 140.8 352.8C140.8 358.8 144 366.2 147.2 367.7C147.9 368.1 148.9 368 149.5 367.5C152 365.5 154.3 349.1 151 339.6C149.7 335.9 147.8 333.9 145.3 333.8Z" fill="#231F20"/>
<path d="M314.799 129C314.599 129 314.399 128.9 314.299 128.8C313.999 128.5 313.999 128.1 314.299 127.8L345.099 96.1C345.399 95.8 345.799 95.8 346.099 96.1C346.399 96.4 346.399 96.8 346.099 97.1L315.299 128.8C315.199 128.9 314.999 129 314.799 129Z" fill="#D1D3D4"/>
<path d="M248.3 113.2C247.9 113.2 247.6 112.9 247.6 112.5L246 73.8C246 73.4 246.3 73.1 246.7 73C247.1 73 247.4 73.3 247.5 73.7L249.1 112.4C249.1 112.8 248.8 113.1 248.3 113.2Z" fill="#D1D3D4"/>
<path d="M159.198 141.4C158.998 141.4 158.798 141.3 158.698 141.2L120.498 99.7001C120.198 99.4001 120.198 98.9001 120.498 98.7001C120.798 98.4001 121.298 98.4001 121.498 98.7001L159.698 140.2C159.998 140.5 159.998 140.9 159.698 141.2C159.598 141.4 159.398 141.5 159.198 141.4Z" fill="#D1D3D4"/>
<path d="M26.8992 262.3C26.4992 262.3 26.1992 262 26.1992 261.6C26.1992 261.2 26.4992 260.9 26.8992 260.9L120.999 254.7C121.399 254.7 121.699 255 121.799 255.4C121.799 255.8 121.499 256.1 121.099 256.2L26.9992 262.4H26.8992V262.3Z" fill="#D1D3D4"/>
<path d="M76.7 320.9C76.3 320.9 76 320.6 76 320.2C76 319.9 76.2 319.7 76.5 319.6L115.1 303.3C115.5 303.1 115.9 303.3 116 303.7C116.2 304.1 116 304.5 115.6 304.6L76.9 320.9C76.9 320.9 76.8 320.9 76.7 320.9Z" fill="#D1D3D4"/>
<path d="M378.7 257.7C378.3 257.7 378 257.4 378 257C378 256.6 378.2 256.3 378.6 256.3L474 237.8C474.4 237.7 474.8 238 474.9 238.4C475 238.8 474.7 239.2 474.3 239.3L378.9 257.8L378.7 257.7Z" fill="#D1D3D4"/>
<path d="M444.099 310.8H443.899L384.199 295.2C383.799 295.1 383.599 294.7 383.699 294.3C383.799 293.9 384.199 293.7 384.599 293.8L444.299 309.4C444.699 309.5 444.899 309.9 444.799 310.3C444.699 310.6 444.399 310.8 444.099 310.8Z" fill="#D1D3D4"/>
<path d="M195.699 113.2C195.399 113.2 195.099 113 194.999 112.7L189.299 96.8C189.199 96.4 189.399 96 189.699 95.9C190.099 95.8 190.499 96 190.599 96.3L196.299 112.2C196.399 112.6 196.199 113 195.899 113.1C195.799 113.1 195.799 113.2 195.699 113.2Z" fill="#D1D3D4"/>
<path d="M96.0993 217.7C95.9993 217.7 95.8994 217.7 95.7994 217.6L67.2994 205.8C66.8994 205.6 66.7993 205.2 66.8993 204.8C67.0993 204.5 67.4994 204.3 67.7994 204.4L96.2994 216.2C96.6994 216.3 96.8993 216.8 96.6993 217.1C96.5993 217.5 96.3993 217.7 96.0993 217.7Z" fill="#D1D3D4"/>
</svg>
