<svg width="18" height="21" viewBox="0 0 18 21" fill="none" xmlns="http://www.w3.org/2000/svg">
<path d="M17.2959 5.955L12.0459 0.705C11.9415 0.600392 11.8174 0.517403 11.6808 0.46078C11.5442 0.404156 11.3978 0.375007 11.25 0.375H2.25C1.75272 0.375 1.27581 0.572544 0.924175 0.924175C0.572544 1.27581 0.375 1.75272 0.375 2.25V18.75C0.375 19.2473 0.572544 19.7242 0.924175 20.0758C1.27581 20.4275 1.75272 20.625 2.25 20.625H15.75C16.2473 20.625 16.7242 20.4275 17.0758 20.0758C17.4275 19.7242 17.625 19.2473 17.625 18.75V6.75C17.625 6.45187 17.5066 6.16593 17.2959 5.955ZM14.1562 6H12V3.84375L14.1562 6ZM2.625 18.375V2.625H9.75V7.125C9.75 7.42337 9.86853 7.70952 10.0795 7.9205C10.2905 8.13147 10.5766 8.25 10.875 8.25H15.375V18.375H2.625ZM12.0459 11.5791C12.2573 11.7904 12.376 12.0771 12.376 12.3759C12.376 12.6748 12.2573 12.9615 12.0459 13.1728C11.8346 13.3842 11.5479 13.5029 11.2491 13.5029C10.9502 13.5029 10.6635 13.3842 10.4522 13.1728L10.125 12.8438V15.75C10.125 16.0484 10.0065 16.3345 9.79549 16.5455C9.58452 16.7565 9.29837 16.875 9 16.875C8.70163 16.875 8.41548 16.7565 8.2045 16.5455C7.99353 16.3345 7.875 16.0484 7.875 15.75V12.8438L7.54594 13.1737C7.33459 13.3851 7.04795 13.5038 6.74906 13.5038C6.45018 13.5038 6.16353 13.3851 5.95219 13.1737C5.74084 12.9624 5.62211 12.6758 5.62211 12.3769C5.62211 12.078 5.74084 11.7913 5.95219 11.58L8.20219 9.33C8.3067 9.22512 8.4309 9.1419 8.56764 9.08512C8.70439 9.02834 8.851 8.99911 8.99906 8.99911C9.14713 8.99911 9.29374 9.02834 9.43048 9.08512C9.56723 9.1419 9.69142 9.22512 9.79594 9.33L12.0459 11.5791Z" fill="#6B6B6B"/>
</svg>
