<svg width="32" height="32" viewBox="0 0 32 32" fill="none" xmlns="http://www.w3.org/2000/svg">
<g clip-path="url(#clip0_68_9262)">
<path d="M0 0H32V32H0V0Z" fill="#20603D"/>
<path d="M0 0H32V24H0V0Z" fill="#FAD201"/>
<path d="M0 0H32V16H0V0Z" fill="#00A1DE"/>
<path d="M28.5598 8.36256L24.9866 8.57144L28.3821 9.70032L24.8799 8.97588L27.871 10.9403L24.671 9.33143L27.0443 12.0114L24.3732 9.63365L25.9821 12.8336L24.0132 9.84254L24.7332 13.3403L23.6088 9.9492L23.3999 13.5225L23.3555 8.31812L28.5598 8.36256Z" fill="#E5BE01"/>
<path d="M28.5598 8.36254L24.9866 8.15365L28.3821 7.02478L24.8799 7.74921L27.871 5.7848L24.671 7.39366L27.0443 4.71371L24.3732 7.09145L25.9821 3.8915L24.0132 6.88256L24.7332 3.38484L23.6088 6.7759L23.3999 3.20262L23.3555 8.40698L28.5598 8.36254Z" fill="#E5BE01"/>
<path d="M18.2405 8.36256L21.8137 8.57144L18.4182 9.70032L21.9204 8.97588L18.9293 10.9403L22.1293 9.33143L19.756 12.0114L22.4271 9.63365L20.8182 12.8336L22.7871 9.84254L22.0671 13.3403L23.1915 9.9492L23.4004 13.5225L23.4448 8.31812L18.2405 8.36256Z" fill="#E5BE01"/>
<path d="M18.2405 8.36254L21.8137 8.15365L18.4182 7.02478L21.9204 7.74921L18.9293 5.7848L22.1293 7.39366L19.756 4.71371L22.4271 7.09145L20.8182 3.8915L22.7871 6.88256L22.0671 3.38484L23.1915 6.7759L23.4004 3.20262L23.4448 8.40698L18.2405 8.36254Z" fill="#E5BE01"/>
<path d="M23.4004 9.88698C24.2423 9.88698 24.9248 9.20447 24.9248 8.36256C24.9248 7.52064 24.2423 6.83813 23.4004 6.83813C22.5585 6.83813 21.876 7.52064 21.876 8.36256C21.876 9.20447 22.5585 9.88698 23.4004 9.88698Z" fill="#E5BE01" stroke="#00A1DE" stroke-width="2.41774"/>
</g>
<defs>
<clipPath id="clip0_68_9262">
<rect width="32" height="32" rx="4" fill="white"/>
</clipPath>
</defs>
</svg>
