<svg width="32" height="32" viewBox="0 0 32 32" fill="none" xmlns="http://www.w3.org/2000/svg">
<g clip-path="url(#clip0_68_11727)">
<mask id="mask0_68_11727" style="mask-type:luminance" maskUnits="userSpaceOnUse" x="-1" y="0" width="33" height="32">
<path d="M-0.00146484 0H31.9936V31.9951H-0.00146484V0Z" fill="white"/>
</mask>
<g mask="url(#mask0_68_11727)">
<path fill-rule="evenodd" clip-rule="evenodd" d="M-8 21.3323H39.9926V26.6669H-8V21.3323Z" fill="#FFE700"/>
<path fill-rule="evenodd" clip-rule="evenodd" d="M-8 15.9976H39.9926V21.3322H-8V15.9976Z" fill="#000001"/>
<path fill-rule="evenodd" clip-rule="evenodd" d="M-8 10.6693H39.9926V15.9975H-8V10.6693Z" fill="#DE3908"/>
<path fill-rule="evenodd" clip-rule="evenodd" d="M-8 5.33472H39.9926V10.6694H-8V5.33472Z" fill="#FFE700"/>
<path fill-rule="evenodd" clip-rule="evenodd" d="M-8 0H39.9926V5.33467H-8V0Z" fill="#000001"/>
<path fill-rule="evenodd" clip-rule="evenodd" d="M20.9828 15.9975C20.9828 17.3191 20.4578 18.5866 19.5233 19.5211C18.5888 20.4556 17.3213 20.9806 15.9997 20.9806C14.6781 20.9806 13.4106 20.4556 12.4761 19.5211C11.5416 18.5866 11.0166 17.3191 11.0166 15.9975C11.0166 14.6759 11.5416 13.4084 12.4761 12.4739C13.4106 11.5394 14.6781 11.0144 15.9997 11.0144C17.3213 11.0144 18.5888 11.5394 19.5233 12.4739C20.4578 13.4084 20.9828 14.6759 20.9828 15.9975Z" fill="#FFFDFF" stroke="black" stroke-width="0.92889"/>
<path fill-rule="evenodd" clip-rule="evenodd" d="M15.1189 12.1787L14.7964 11.5853C14.9254 11.4563 15.1318 11.366 15.4673 11.366L15.435 12.011L15.1189 12.1787Z" fill="#DE3108" stroke="black" stroke-width="0.92889"/>
<path fill-rule="evenodd" clip-rule="evenodd" d="M15.4351 12.024L15.4738 11.366C15.4738 11.366 16.1446 11.3273 16.5059 11.7595L16.1511 12.2755L15.4351 12.024Z" fill="#FFE700" stroke="black" stroke-width="0.92889"/>
<path fill-rule="evenodd" clip-rule="evenodd" d="M16.1641 12.2691L16.493 11.7531C16.7124 11.9853 16.8027 12.153 16.8414 12.3981C16.8414 12.411 16.3189 12.5271 16.3189 12.5271L16.1641 12.2691Z" fill="#DE3108" stroke="black" stroke-width="0.92889"/>
<path fill-rule="evenodd" clip-rule="evenodd" d="M15.2867 20.7C15.2867 20.7 15.906 19.9904 17.1058 20.1388C16.9252 19.8485 16.3382 19.8808 16.3382 19.8808C16.3382 19.8808 16.1575 18.5003 16.2995 18.4358C16.4414 18.3713 17.0413 18.4358 17.0413 18.4358C17.1251 18.4358 17.2606 18.223 17.1509 18.0875C17.0413 17.952 16.7252 17.4295 16.8542 17.3263C16.9832 17.2231 17.6928 17.3844 17.6928 17.3844L15.6931 14.817C15.6931 14.817 15.4867 13.8495 15.8995 13.3915C16.3898 12.9786 16.3382 12.54 16.3253 12.5464C16.2608 12.0949 15.577 11.7723 15.1125 12.1852C14.8416 12.5142 15.0222 12.7657 15.0222 12.7657C15.0222 12.7657 14.3127 12.9593 14.2804 13.0883C14.2546 13.2044 15.0867 13.0625 15.0867 13.0625L15.0093 13.6301C15.0093 13.6301 13.3838 15.1138 14.6223 16.3845C14.6416 16.3845 14.6674 16.3265 14.6674 16.3265C14.6674 16.3265 15.1061 16.8683 15.5641 16.9845C15.9963 17.4295 15.9511 17.3586 15.9511 17.3586C15.9511 17.3586 16.0414 18.0553 15.9576 18.1972C15.5037 18.141 15.0449 18.1367 14.59 18.1843C14.4417 18.2294 13.874 18.2036 14.0095 19.1261L14.2159 18.6552C14.2159 18.6552 14.203 18.9906 14.3385 19.1067C14.3127 18.7584 14.4675 18.5197 14.4675 18.5197C14.4675 18.5197 14.4933 18.9067 14.5836 18.9583C14.6674 19.0229 14.6674 18.3391 15.1383 18.3907C15.6092 18.4552 15.9511 18.4358 15.9511 18.4358C15.9511 18.4358 16.1059 19.7647 16.0543 19.8937C15.7189 19.8098 14.9061 19.9259 14.8545 20.1324C15.3319 20.1001 15.5512 20.1582 15.5512 20.1582C15.5512 20.1582 15.1641 20.5 15.2867 20.7Z" fill="black" stroke="black" stroke-width="0.82568" stroke-linecap="round" stroke-linejoin="round"/>
<path fill-rule="evenodd" clip-rule="evenodd" d="M15.4802 13.4174C15.4802 13.4174 14.2933 14.7204 14.8029 15.7202C14.8352 15.5783 14.8223 15.4945 14.8352 15.5009C14.8094 15.4816 14.9835 15.617 14.9642 15.5912C14.9771 15.5203 14.919 15.3654 14.919 15.3654L15.0738 15.4042L14.9835 15.23L15.2093 15.2622C15.2093 15.2622 15.1319 15.0429 15.1577 15.0429C15.2201 15.0463 15.2825 15.0506 15.3448 15.0558C15.0093 14.4559 15.3254 13.9592 15.4738 13.4238L15.4802 13.4174Z" fill="#9CA69C" stroke="#9CA69C" stroke-width="0.82568" stroke-linecap="round" stroke-linejoin="round"/>
<path fill-rule="evenodd" clip-rule="evenodd" d="M15.8867 12.3077C15.8867 12.3077 15.9512 12.7593 15.7061 12.8883C15.6674 12.9141 15.5126 12.9657 15.5319 13.056C15.5642 13.1786 15.6287 13.1528 15.7255 13.1334C15.9835 13.0883 16.2802 12.54 15.8867 12.3077Z" fill="#9CA69C" stroke="#9CA69C" stroke-width="0.92889"/>
<path fill-rule="evenodd" clip-rule="evenodd" d="M15.4479 12.6884C15.4479 12.7141 15.4377 12.7387 15.4196 12.7569C15.4014 12.775 15.3768 12.7852 15.3512 12.7852C15.3255 12.7852 15.3009 12.775 15.2827 12.7569C15.2646 12.7387 15.2544 12.7141 15.2544 12.6884C15.2544 12.6628 15.2646 12.6382 15.2827 12.62C15.3009 12.6019 15.3255 12.5917 15.3512 12.5917C15.3768 12.5917 15.4014 12.6019 15.4196 12.62C15.4377 12.6382 15.4479 12.6628 15.4479 12.6884Z" fill="white"/>
<path fill-rule="evenodd" clip-rule="evenodd" d="M15.0674 13.0625C15.0029 13.1141 14.6804 13.456 15.0029 13.5785C15.3383 13.4882 15.2416 13.4302 15.319 13.3528C15.319 13.2044 15.1512 13.1593 15.0674 13.0625Z" fill="#DE3108" stroke="black" stroke-width="0.92889"/>
<path fill-rule="evenodd" clip-rule="evenodd" d="M15.7835 16.2814C15.7641 16.3588 15.6932 16.6297 15.7964 16.8361C16.0802 16.72 16.2092 16.7523 16.306 16.8168C16.0738 16.6233 15.9835 16.5523 15.7835 16.2814Z" fill="#9CA69C" stroke="#9CA69C" stroke-width="0.82568" stroke-linecap="round" stroke-linejoin="round"/>
<path fill-rule="evenodd" clip-rule="evenodd" d="M16.2739 17.5715L16.2868 18.2037C16.2868 18.2037 16.5126 18.2488 16.6094 18.2037C16.7126 18.165 16.6094 17.7651 16.2739 17.5715Z" fill="white" stroke="white" stroke-width="0.82568" stroke-linecap="round" stroke-linejoin="round"/>
<path fill-rule="evenodd" clip-rule="evenodd" d="M17.8799 17.6489C17.8799 17.6489 17.467 16.662 16.4285 16.4104C15.3899 16.1588 15.5189 15.0558 15.6028 14.9848C15.6479 14.888 15.6802 14.7397 15.9834 14.8816C16.2865 15.0235 17.667 15.7202 17.8669 15.7524C18.0669 15.7847 17.8928 17.6747 17.8799 17.6489Z" fill="#9CA69C" stroke="black" stroke-width="0.92889"/>
<path fill-rule="evenodd" clip-rule="evenodd" d="M16.8864 16.4104C16.8671 16.4168 18.2798 17.2425 17.854 17.9521C18.2604 17.6876 18.1249 17.2167 18.1249 17.2167C18.1249 17.2167 18.4539 18.0747 17.6541 18.4939C17.7444 18.5714 17.796 18.552 17.796 18.552L17.667 18.6875C17.667 18.6875 17.6024 18.7907 18.1379 18.5326C17.9895 18.6488 17.9766 18.7326 17.9766 18.7326C17.9766 18.7326 18.0217 18.8487 18.3701 18.5391C18.2313 18.6756 18.1139 18.8321 18.0217 19.0035C18.7958 18.9326 20.4601 16.4426 17.4992 15.7073L17.6282 15.8492L16.8864 16.4104Z" fill="#DE3108" stroke="black" stroke-width="0.82568" stroke-linejoin="round"/>
<path fill-rule="evenodd" clip-rule="evenodd" d="M16.9447 16.1652C17.1382 16.2942 17.2028 16.3458 17.2286 16.4103C17.0544 16.3716 16.8931 16.3845 16.8931 16.3845C16.8931 16.3845 16.519 16.0233 16.448 15.9975C16.3964 15.9975 16.0997 15.804 16.0997 15.804C15.9513 15.733 15.8159 15.2234 16.3577 15.3718C16.9254 15.6363 17.0028 15.6556 17.0028 15.6556L17.6736 15.8685L18.0607 16.3007C18.0607 16.3007 17.3705 15.9588 17.2866 15.9523C17.4801 16.1072 17.5833 16.3136 17.5833 16.3136C17.364 16.2491 17.1769 16.1975 16.9447 16.1652Z" fill="white" stroke="black" stroke-width="0.82568" stroke-linecap="round" stroke-linejoin="round"/>
<path d="M14.2739 13.1141C14.2739 13.1141 14.9319 12.9593 15.0093 12.9851" stroke="white" stroke-width="0.82568" stroke-linecap="round"/>
<path fill-rule="evenodd" clip-rule="evenodd" d="M-8 26.6669H39.9926V32.0015H-8V26.6669Z" fill="#DE3908"/>
</g>
</g>
<defs>
<clipPath id="clip0_68_11727">
<rect width="32" height="32" rx="4" fill="white"/>
</clipPath>
</defs>
</svg>
